<svg width="1440" height="320" viewBox="0 0 1440 320" fill="none" xmlns="http://www.w3.org/2000/svg">
<g clip-path="url(#clip0_127_32161)">
<path d="M0 880H1440V-559.995H0V880Z" fill="#D11958"/>
<path d="M810.125 947.439L760.415 932.824L761.68 928.516C771.395 895.324 782.415 857.705 813.8 826.32C845.175 794.939 882.795 783.92 915.985 774.205C947.16 765.074 974.08 757.189 996.095 735.17C1018.11 713.16 1026 686.234 1035.13 655.064C1044.85 621.869 1055.87 584.256 1087.24 552.875C1118.62 521.5 1156.23 510.484 1189.43 500.76C1220.6 491.625 1247.52 483.744 1269.54 461.73C1291.55 439.72 1299.44 412.801 1308.57 381.619C1318.28 348.435 1329.31 310.815 1360.69 279.435C1392.06 248.06 1429.68 237.04 1462.87 227.32L1467.19 226.05L1481.81 275.76L1477.43 277.045C1446.26 286.175 1419.33 294.065 1397.33 316.075C1375.31 338.085 1367.42 365.01 1358.29 396.185C1348.57 429.375 1337.56 466.99 1306.18 498.369C1274.8 529.744 1237.18 540.765 1203.99 550.49C1172.82 559.615 1145.89 567.506 1123.88 589.515C1101.87 611.529 1093.98 638.449 1084.85 669.625C1075.13 702.814 1064.11 740.429 1032.74 771.81C1001.36 803.189 963.735 814.205 930.545 823.926C899.375 833.055 872.45 840.945 850.44 862.961C828.42 884.975 820.53 911.9 811.405 943.08L810.125 947.439Z" fill="#DC1A5D"/>
<path d="M675.43 958.189L638.27 922.08C659.48 900.26 667.615 872.465 676.23 843.051C685.95 809.865 696.975 772.244 728.345 740.875C759.725 709.484 797.345 698.47 830.535 688.75C861.705 679.619 888.63 671.74 910.64 649.715C932.66 627.705 940.54 600.779 949.68 569.615C959.395 536.42 970.415 498.805 1001.78 467.42C1033.17 436.051 1070.78 425.035 1103.97 415.31C1135.14 406.176 1162.07 398.295 1184.08 376.275C1206.1 354.27 1213.98 327.345 1223.11 296.175C1232.83 262.985 1243.85 225.365 1275.23 193.985C1306.6 162.61 1344.23 151.59 1377.41 141.87C1406.84 133.255 1434.62 125.11 1456.44 103.9L1492.56 141.06C1461.52 171.22 1424.58 182.045 1391.98 191.595C1360.8 200.73 1333.88 208.615 1311.88 230.63C1289.85 252.64 1281.97 279.565 1272.84 310.735C1263.11 343.925 1252.1 381.545 1220.72 412.914C1189.34 444.289 1151.73 455.315 1118.54 465.035C1087.37 474.17 1060.45 482.051 1038.43 504.07C1016.41 526.08 1008.53 553.006 999.395 584.17C989.68 617.365 978.655 654.98 947.285 686.359C915.905 717.734 878.285 728.756 845.1 738.47C813.925 747.605 787 755.49 764.99 777.506C742.975 799.519 735.09 826.439 725.955 857.609C716.415 890.209 705.595 927.154 675.43 958.189Z" fill="#DC1A5D"/>
<path d="M412.217 959.84L378.584 920.43C407.89 895.414 440.302 885.926 471.646 876.744C502.815 867.615 529.74 859.721 551.76 837.709C573.765 815.699 581.65 788.779 590.78 757.605C600.51 724.414 611.525 686.795 642.9 655.414C674.275 624.039 711.895 613.025 745.08 603.301C776.255 594.17 803.175 586.285 825.19 564.269C847.205 542.25 855.095 515.33 864.225 484.154C873.945 450.97 884.96 413.355 916.34 381.98C947.72 350.6 985.335 339.58 1018.53 329.86C1049.7 320.73 1076.62 312.84 1098.64 290.83C1120.65 268.82 1128.54 241.895 1137.67 210.725C1147.39 177.535 1158.41 139.91 1189.79 108.535C1221.16 77.1599 1258.78 66.1449 1291.96 56.4199C1323.14 47.2899 1350.06 39.405 1372.07 17.39C1394.08 -4.62 1401.98 -31.545 1411.11 -62.72C1420.29 -94.0549 1429.78 -126.475 1454.8 -155.78L1494.2 -122.14C1476.39 -101.265 1468.83 -75.47 1460.83 -48.155C1451.11 -14.965 1440.09 22.65 1408.71 54.03C1377.33 85.405 1339.72 96.425 1306.53 106.15C1275.35 115.28 1248.44 123.165 1226.42 145.175C1204.41 167.185 1196.52 194.11 1187.39 225.285C1177.67 258.47 1166.65 296.095 1135.27 327.47C1103.89 358.85 1066.27 369.86 1033.09 379.585C1001.91 388.715 974.99 396.599 952.98 418.619C930.965 440.625 923.08 467.551 913.95 498.72C904.23 531.91 893.21 569.525 861.825 600.91C830.45 632.285 792.83 643.304 759.645 653.029C728.47 662.16 701.555 670.045 679.54 692.054C657.525 714.064 649.64 740.99 640.51 772.17C630.78 805.349 619.77 842.971 588.395 874.346C557.01 905.73 519.395 916.75 486.205 926.465C458.896 934.465 433.095 942.019 412.217 959.84Z" fill="#DC1A5D"/>
<path d="M285.323 947.65L235.739 932.615C244.356 904.195 255.905 871.519 284.014 843.404C315.385 812.029 353.004 801.01 386.192 791.295C417.373 782.16 444.287 774.275 466.299 752.26C488.317 730.244 496.201 703.324 505.33 672.154C515.055 638.959 526.075 601.345 557.45 569.965C588.83 538.59 626.445 527.574 659.64 517.845C690.81 508.715 717.73 500.834 739.745 478.824C761.76 456.805 769.65 429.891 778.77 398.715C788.495 365.525 799.51 327.905 830.89 296.53C862.265 265.15 899.885 254.135 933.065 244.41C964.25 235.285 991.165 227.4 1013.19 205.385C1035.2 183.365 1043.08 156.45 1052.21 125.27C1061.93 92.0801 1072.95 54.4651 1104.33 23.0901C1135.71 -8.28491 1173.33 -19.3049 1206.52 -29.0349C1237.7 -38.1649 1264.61 -46.0449 1286.63 -68.0599C1308.65 -90.0699 1316.53 -116.995 1325.66 -148.165C1335.38 -181.355 1346.4 -218.975 1377.78 -250.355C1405.88 -278.465 1438.56 -290.01 1466.98 -298.625L1482.02 -249.045C1458.58 -241.945 1434.06 -233.36 1414.42 -213.715C1392.4 -191.7 1384.51 -164.775 1375.38 -133.605C1365.66 -100.415 1354.64 -62.7949 1323.27 -31.4149C1291.89 -0.0449219 1254.26 10.97 1221.08 20.7001C1189.9 29.8301 1162.98 37.71 1140.97 59.73C1118.95 81.745 1111.07 108.66 1101.94 139.84C1092.21 173.025 1081.2 210.645 1049.81 242.02C1018.44 273.395 980.825 284.415 947.635 294.14C916.465 303.27 889.54 311.15 867.52 333.17C845.515 355.175 837.625 382.105 828.5 413.276C818.775 446.465 807.765 484.08 776.385 515.455C745.005 546.834 707.39 557.849 674.2 567.58C643.025 576.705 616.1 584.59 594.09 606.605C572.075 628.619 564.19 655.539 555.06 686.715C545.335 719.9 534.315 757.519 502.945 788.9C471.569 820.275 433.951 831.295 400.762 841.016C369.586 850.144 342.666 858.029 320.655 880.045C301.012 899.695 292.432 924.215 285.323 947.65Z" fill="#DC1A5D"/>
<path d="M162.406 954.849L119.756 925.42C132.91 906.359 139.488 883.904 146.445 860.135C156.162 826.955 167.181 789.334 198.558 757.955C229.935 726.574 267.552 715.56 300.742 705.84C331.92 696.711 358.842 688.824 380.855 666.804C402.871 644.801 410.758 617.875 419.883 586.699C429.609 553.51 440.619 515.9 471.996 484.515C503.38 453.14 540.995 442.125 574.185 432.4C605.36 423.269 632.285 415.381 654.29 393.369C676.31 371.36 684.195 344.44 693.32 313.26C703.045 280.075 714.06 242.455 745.44 211.075C776.82 179.695 814.44 168.685 847.62 158.96C878.8 149.835 905.725 141.945 927.73 119.93C949.745 97.9199 957.63 70.9949 966.765 39.8199C976.485 6.62994 987.5 -30.985 1018.87 -62.3651C1050.26 -93.74 1087.87 -104.76 1121.06 -114.475C1152.23 -123.605 1179.16 -131.495 1201.17 -153.51C1223.19 -175.525 1231.07 -202.445 1240.2 -233.615C1249.92 -266.805 1260.94 -304.425 1292.32 -335.805C1323.7 -367.18 1361.32 -378.205 1394.5 -387.92C1418.27 -394.875 1440.72 -401.46 1459.78 -414.615L1489.21 -371.96C1463.28 -354.07 1435.72 -346 1409.06 -338.195C1377.89 -329.065 1350.97 -321.18 1328.96 -299.165C1306.94 -277.155 1299.06 -250.23 1289.92 -219.055C1280.21 -185.87 1269.19 -148.25 1237.81 -116.87C1206.43 -85.4901 1168.82 -74.4751 1135.62 -64.7551C1104.45 -55.6251 1077.53 -47.7401 1055.52 -25.725C1033.5 -3.71503 1025.61 23.21 1016.49 54.3849C1006.76 87.575 995.745 125.19 964.37 156.57C932.99 187.95 895.37 198.965 862.185 208.685C831.01 217.815 804.09 225.705 782.08 247.715C760.065 269.73 752.18 296.65 743.045 327.825C733.325 361.02 722.31 398.64 690.935 430.01C659.56 461.385 621.945 472.4 588.75 482.125C557.575 491.256 530.655 499.14 508.64 521.154C486.627 543.17 478.734 570.09 469.609 601.265C459.886 634.449 448.871 672.064 417.494 703.445C386.113 734.824 348.496 745.845 315.306 755.564C284.131 764.695 257.207 772.584 235.201 794.595C213.183 816.605 205.302 843.529 196.168 874.699C188.365 901.355 180.293 928.92 162.406 954.849Z" fill="#DC1A5D"/>
<path d="M-64.369 949.84L-80.254 900.525C-72.926 898.16 -65.537 895.99 -58.1445 893.824C-26.9668 884.699 -0.0488052 876.81 21.9629 854.801C43.9785 832.785 51.865 805.865 60.996 774.689C70.713 741.5 81.7325 703.881 113.106 672.506C144.492 641.131 182.109 630.109 215.299 620.385C246.465 611.265 273.389 603.375 295.41 581.359C317.418 559.349 325.303 532.426 334.434 501.256C344.156 468.06 355.176 430.445 386.556 399.07C417.924 367.69 455.543 356.675 488.73 346.955C519.9 337.82 546.825 329.935 568.84 307.925C590.86 285.905 598.75 258.98 607.87 227.81C617.6 194.62 628.615 157 659.99 125.63C691.365 94.2548 728.985 83.2298 762.18 73.5098C793.355 64.3748 820.27 56.4948 842.29 34.4797C864.295 12.4647 872.19 -14.4603 881.31 -45.6252C891.035 -78.8202 902.05 -116.435 933.43 -147.805C964.805 -179.19 1002.42 -190.21 1035.61 -199.925C1066.78 -209.065 1093.71 -216.945 1115.72 -238.955C1137.74 -260.975 1145.62 -287.895 1154.75 -319.07C1164.47 -352.26 1175.49 -389.875 1206.87 -421.255C1238.25 -452.635 1275.87 -463.65 1309.05 -473.375C1340.23 -482.505 1367.15 -490.385 1389.16 -512.405C1411.17 -534.42 1419.06 -561.33 1428.2 -592.51C1430.35 -599.9 1432.53 -607.285 1434.89 -614.62L1484.2 -598.725C1481.98 -591.84 1479.95 -584.895 1477.92 -577.945C1468.21 -544.755 1457.18 -507.145 1425.8 -475.76C1394.42 -444.39 1356.8 -433.37 1323.62 -423.645C1292.44 -414.51 1265.52 -406.63 1243.5 -384.615C1221.49 -362.605 1213.61 -335.68 1204.47 -304.51C1194.75 -271.32 1183.74 -233.7 1152.36 -202.32C1120.98 -170.945 1083.37 -159.93 1050.17 -150.205C1019.01 -141.075 992.08 -133.195 970.07 -111.17C948.055 -89.1603 940.165 -62.2353 931.04 -31.0653C921.315 2.12469 910.305 39.7397 878.925 71.1198C847.545 102.495 809.925 113.51 776.745 123.235C745.565 132.365 718.645 140.25 696.63 162.265C674.62 184.28 666.735 211.2 657.605 242.375C647.875 275.56 636.855 313.18 605.48 344.56C574.1 375.935 536.485 386.955 503.295 396.679C472.123 405.81 445.199 413.695 423.194 435.711C401.172 457.72 393.291 484.644 384.16 515.82C374.434 549.01 363.418 586.625 332.045 618.006C300.664 649.381 263.047 660.39 229.859 670.115C198.686 679.244 171.764 687.135 149.746 709.144C127.735 731.154 119.848 758.08 110.717 789.256C100.996 822.439 89.9805 860.06 58.5975 891.439C27.2227 922.814 -10.3906 933.83 -43.5781 943.554C-50.5275 945.59 -57.4805 947.615 -64.369 949.84Z" fill="#DC1A5D"/>
<path d="M-59.1955 830.895L-85.4295 786.22C-77.1545 781.359 -69.9705 775.84 -63.496 769.349C-41.4746 747.336 -33.5879 720.414 -24.4571 689.24C-14.7364 656.051 -3.72072 618.436 27.6621 587.055C59.037 555.68 96.6565 544.664 129.84 534.94C161.015 525.811 187.939 517.926 209.955 495.91C231.972 473.895 239.853 446.974 248.984 415.801C258.705 382.609 269.726 344.995 301.097 313.615C332.48 282.235 370.097 271.225 403.285 261.5C434.459 252.37 461.383 244.485 483.398 222.47C505.41 200.46 513.29 173.535 522.42 142.365C532.15 109.175 543.165 71.5601 574.535 40.175C605.92 8.80005 643.535 -2.21497 676.725 -11.9399C707.895 -21.0699 734.82 -28.95 756.83 -50.965C778.85 -72.985 786.735 -99.905 795.865 -131.085C805.585 -164.27 816.6 -201.885 847.98 -233.26C879.355 -264.645 916.97 -275.66 950.16 -285.38C981.34 -294.51 1008.25 -302.4 1030.27 -324.41C1052.28 -346.425 1060.17 -373.35 1069.3 -404.525C1079.03 -437.71 1090.04 -475.325 1121.41 -506.705C1152.8 -538.085 1190.41 -549.1 1223.6 -558.82C1254.77 -567.95 1281.7 -575.84 1303.71 -597.85C1310.21 -604.35 1315.73 -611.53 1320.58 -619.79L1365.26 -593.555C1358.15 -581.45 1350.01 -570.875 1340.36 -561.215C1308.97 -529.835 1271.36 -518.82 1238.16 -509.095C1206.99 -499.97 1180.07 -492.08 1158.05 -470.07C1136.04 -448.05 1128.16 -421.135 1119.03 -389.96C1109.3 -356.77 1098.28 -319.155 1066.9 -287.775C1035.53 -256.395 997.92 -245.375 964.725 -235.66C933.55 -226.525 906.635 -218.645 884.62 -196.63C862.61 -174.61 854.715 -147.69 845.585 -116.515C835.87 -83.325 824.85 -45.71 793.475 -14.335C762.09 17.045 724.475 28.065 691.285 37.785C660.115 46.92 633.195 54.8 611.175 76.8151C589.165 98.83 581.28 125.75 572.15 156.925C562.425 190.115 551.41 227.735 520.04 259.105C488.652 290.49 451.039 301.505 417.845 311.225C386.679 320.35 359.746 328.24 337.744 350.255C315.722 372.27 307.842 399.189 298.705 430.365C288.99 463.551 277.969 501.164 246.588 532.551C215.215 563.926 177.597 574.945 144.404 584.664C113.232 593.795 86.3145 601.686 64.293 623.695C42.2793 645.715 34.3945 672.625 25.2636 703.804C15.5469 736.994 4.52538 774.615 -26.8555 805.984C-36.4844 815.619 -47.0606 823.775 -59.1955 830.895Z" fill="#DC1A5D"/>
<path d="M-48.2032 581.465L-96.426 562.5C-86.576 537.465 -74.3025 518.115 -57.793 501.605C-26.416 470.23 11.2011 459.215 44.3945 449.49C75.5665 440.365 102.49 432.474 124.508 410.465C146.517 388.449 154.404 361.53 163.535 330.355C173.252 297.165 184.273 259.545 215.654 228.17C247.031 196.79 284.648 185.77 317.836 176.05C349.013 166.92 375.927 159.035 397.949 137.02C419.955 115.005 427.842 88.0898 436.972 56.9148C446.695 23.7248 457.715 -13.8901 489.092 -45.2751C520.47 -76.6501 558.085 -87.6701 591.275 -97.3851C622.45 -106.52 649.365 -114.405 671.38 -136.415C693.4 -158.44 701.29 -185.355 710.415 -216.535C720.135 -249.72 731.15 -287.34 762.53 -318.71C793.905 -350.095 831.525 -361.11 864.71 -370.83C895.89 -379.965 922.81 -387.845 944.825 -409.86C966.835 -431.875 974.725 -458.795 983.855 -489.97C993.575 -523.16 1004.59 -560.775 1035.96 -592.15C1052.46 -608.65 1071.81 -620.925 1096.85 -630.775L1115.83 -582.57C1097.39 -575.305 1084.05 -566.965 1072.6 -555.51C1050.59 -533.505 1042.7 -506.58 1033.58 -475.405C1023.85 -442.22 1012.84 -404.605 981.465 -373.225C950.085 -341.85 912.465 -330.83 879.275 -321.105C848.1 -311.975 821.175 -304.085 799.17 -282.075C777.16 -260.065 769.275 -233.14 760.14 -201.97C750.42 -168.78 739.4 -131.16 708.02 -99.7802C676.645 -68.4052 639.03 -57.3901 605.84 -47.6652C574.665 -38.5352 547.745 -30.6501 525.73 -8.64014C503.71 13.3799 495.83 40.3048 486.699 71.4798C476.972 104.665 465.963 142.28 434.586 173.655C403.203 205.04 365.586 216.05 332.402 225.775C301.224 234.905 274.302 242.79 252.289 264.81C230.273 286.82 222.386 313.745 213.258 344.915C203.535 378.105 192.52 415.724 161.142 447.105C129.761 478.48 92.1425 489.494 58.955 499.22C27.7832 508.345 0.85936 516.234 -21.1582 538.244C-32.6114 549.699 -40.9532 563.025 -48.2032 581.465Z" fill="#DC1A5D"/>
<path d="M-62.885 425.551L-81.7385 377.29C-68.076 371.955 -54.33 367.93 -41.0547 364.04C-9.88283 354.905 17.041 347.025 39.0469 325.01C61.0705 303 68.951 276.075 78.08 244.9C87.8065 211.715 98.8184 174.095 130.195 142.72C161.576 111.345 199.195 100.32 232.383 90.6C263.554 81.4701 290.478 73.5901 312.49 51.5701C334.511 29.5551 342.392 2.6301 351.523 -28.5399C361.244 -61.7299 372.265 -99.3449 403.636 -130.725C435.019 -162.105 472.636 -173.115 505.82 -182.84C536.995 -191.975 563.92 -199.855 585.935 -221.875C607.95 -243.885 615.83 -270.805 624.96 -301.98C634.685 -335.165 645.71 -372.785 677.09 -404.165C708.46 -435.545 746.08 -446.555 779.27 -456.285C810.44 -465.415 837.365 -473.295 859.37 -495.315C881.385 -517.325 889.27 -544.25 898.405 -575.425C902.295 -588.705 906.315 -602.435 911.65 -616.095L959.91 -597.25C955.41 -585.705 951.875 -573.635 948.125 -560.865C938.41 -527.665 927.39 -490.05 896.015 -458.67C864.64 -427.295 827.02 -416.28 793.84 -406.555C762.655 -397.42 735.735 -389.54 713.72 -367.53C691.705 -345.51 683.825 -318.59 674.685 -287.41C664.965 -254.225 653.95 -216.605 622.58 -185.235C591.195 -153.855 553.58 -142.835 520.39 -133.11C489.209 -123.98 462.295 -116.1 440.273 -94.0899C418.261 -72.0699 410.381 -45.1499 401.25 -13.9799C391.529 19.2151 380.508 56.8301 349.131 88.2101C317.754 119.585 280.136 130.605 246.943 140.325C215.771 149.46 188.851 157.34 166.836 179.36C144.824 201.37 136.943 228.285 127.812 259.465C118.086 292.655 107.066 330.275 75.6935 361.655C44.3164 393.026 6.70507 404.045 -26.4844 413.766C-39.2617 417.506 -51.338 421.039 -62.885 425.551Z" fill="#DC1A5D"/>
<path d="M-61.865 311.165L-82.758 263.755C-67.92 257.21 -56.367 249.53 -46.4023 239.56C-24.3847 217.545 -16.498 190.625 -7.3672 159.45C2.35352 126.265 13.3692 88.6501 44.7461 57.2701C76.123 25.8901 113.74 14.8701 146.933 5.15009C178.105 -3.97992 205.03 -11.8649 227.041 -33.8749C249.056 -55.8949 256.943 -82.8199 266.074 -113.99C275.791 -147.18 286.81 -184.8 318.189 -216.18C349.57 -247.555 387.188 -258.57 420.377 -268.29C451.549 -277.42 478.467 -285.305 500.49 -307.32C522.495 -329.33 530.38 -356.25 539.51 -387.425C549.235 -420.615 560.255 -458.23 591.635 -489.615C623.015 -520.99 660.63 -532.01 693.815 -541.73C724.99 -550.86 751.915 -558.75 773.93 -580.76C783.885 -590.715 791.57 -602.27 798.125 -617.125L845.525 -596.22C836.44 -575.6 825 -558.56 810.565 -544.12C779.185 -512.745 741.565 -501.725 708.38 -492.01C677.205 -482.875 650.285 -474.985 628.27 -452.975C606.255 -430.965 598.365 -404.035 589.24 -372.86C579.51 -339.68 568.5 -302.06 537.125 -270.685C505.74 -239.3 468.125 -228.285 434.935 -218.565C403.765 -209.44 376.842 -201.545 354.824 -179.535C332.812 -157.525 324.927 -130.6 315.797 -99.4249C306.074 -66.2399 295.058 -28.6249 263.676 2.76007C232.301 34.1351 194.681 45.1501 161.498 54.8751C130.323 64.0051 103.398 71.8901 81.3865 93.9051C59.375 115.92 51.4885 142.835 42.3574 174.015C32.6367 207.2 21.6172 244.82 -9.7617 276.2C-24.209 290.645 -41.2597 302.085 -61.865 311.165Z" fill="#DC1A5D"/>
<path d="M-47.5391 103.52L-97.086 88.34C-95.619 83.575 -94.219 78.79 -92.8225 74.01C-83.0955 40.815 -72.074 3.195 -40.7032 -28.19C-9.32615 -59.56 28.291 -70.575 61.4745 -80.305C92.6525 -89.435 119.574 -97.315 141.592 -119.33C163.609 -141.35 171.49 -168.27 180.625 -199.445C190.345 -232.63 201.363 -270.25 232.734 -301.625C264.115 -333 301.734 -344.02 334.922 -353.74C366.094 -362.87 393.018 -370.755 415.039 -392.775C437.051 -414.785 444.932 -441.71 454.062 -472.875C463.783 -506.07 474.805 -543.685 506.18 -575.07C537.56 -606.44 575.18 -617.455 608.37 -627.18C613.155 -628.58 617.94 -629.98 622.705 -631.445L637.885 -581.9C632.915 -580.38 627.925 -578.915 622.93 -577.45C591.76 -568.32 564.835 -560.44 542.815 -538.42C520.8 -516.41 512.92 -489.485 503.79 -458.315C494.068 -425.125 483.047 -387.51 451.67 -356.13C420.293 -324.755 382.676 -313.735 349.492 -304.02C318.316 -294.885 291.391 -286.995 269.375 -264.98C247.363 -242.975 239.483 -216.05 230.352 -184.885C220.625 -151.69 209.605 -114.07 178.223 -82.69C146.85 -51.32 109.234 -40.3 76.045 -30.57C44.873 -21.44 17.9492 -13.56 -4.0625 8.45001C-26.0781 30.47 -33.9649 57.4 -43.0957 88.57C-44.5547 93.56 -46.0196 98.55 -47.5391 103.52Z" fill="#DC1A5D"/>
</g>
<defs>
<clipPath id="clip0_127_32161">
<rect width="1440" height="320" fill="white"/>
</clipPath>
</defs>
</svg>
