<svg xmlns="http://www.w3.org/2000/svg" width="14" height="10" viewBox="0 0 14 10" fill="none">
<g clip-path="url(#clip0_1_1715)">
<path d="M7.0039 9.16015C7.19922 9.16015 7.39453 9.08203 7.52734 8.93359L13.5742 2.73828C13.707 2.60546 13.7851 2.43359 13.7851 2.23828C13.7851 1.83203 13.4804 1.51953 13.0742 1.51953C12.8789 1.51953 12.6992 1.59766 12.5664 1.72266L6.58203 7.83984H7.41796L1.43359 1.72266C1.30859 1.59766 1.12891 1.51953 0.925782 1.51953C0.519532 1.51953 0.214844 1.83203 0.214844 2.23828C0.214844 2.43359 0.292969 2.60546 0.425782 2.74609L6.47265 8.93359C6.62109 9.08203 6.80078 9.16015 7.0039 9.16015Z" fill="#2B2F32"/>
</g>
<defs>
<clipPath id="clip0_1_1715">
<rect width="13.5703" height="8.32031" fill="white" transform="translate(0.214844 0.839844)"/>
</clipPath>
</defs>
</svg>