<svg xmlns="http://www.w3.org/2000/svg" width="28" height="28" viewBox="0 0 28 28" fill="none">
<rect width="28" height="28" rx="14" fill="#111111"/>
<path d="M18.4786 10.0623C18.3857 10.0143 18.2953 9.96168 18.2077 9.90464C17.9529 9.73619 17.7192 9.53771 17.5119 9.31348C16.9929 8.71974 16.7991 8.1174 16.7278 7.69568H16.7306C16.671 7.34563 16.6956 7.11914 16.6994 7.11914H14.3359V16.2583C14.3359 16.381 14.3359 16.5023 14.3307 16.6221C14.3307 16.637 14.3293 16.6508 14.3284 16.6668C14.3284 16.6734 14.3284 16.6803 14.327 16.6872C14.327 16.6889 14.327 16.6906 14.327 16.6923C14.3021 17.0203 14.197 17.337 14.0209 17.6148C13.8448 17.8925 13.6032 18.1228 13.3173 18.2852C13.0193 18.4547 12.6822 18.5437 12.3394 18.5432C11.2382 18.5432 10.3457 17.6453 10.3457 16.5364C10.3457 15.4275 11.2382 14.5295 12.3394 14.5295C12.5478 14.5294 12.755 14.5622 12.9532 14.6267L12.956 12.2202C12.3544 12.1425 11.7431 12.1903 11.1609 12.3607C10.5786 12.531 10.038 12.8202 9.57308 13.2099C9.16571 13.5639 8.82323 13.9862 8.56105 14.4579C8.46129 14.6299 8.08486 15.3211 8.03928 16.4429C8.01061 17.0797 8.20183 17.7393 8.293 18.012V18.0177C8.35034 18.1783 8.57252 18.7261 8.93461 19.188C9.22659 19.5585 9.57155 19.8839 9.95839 20.1539V20.1481L9.96412 20.1539C11.1083 20.9314 12.3769 20.8803 12.3769 20.8803C12.5965 20.8715 13.3322 20.8803 14.1676 20.4844C15.0942 20.0455 15.6217 19.3915 15.6217 19.3915C15.9587 19.0008 16.2267 18.5555 16.4141 18.0748C16.628 17.5126 16.6994 16.8383 16.6994 16.5688V11.7203C16.728 11.7375 17.1099 11.99 17.1099 11.99C17.1099 11.99 17.6601 12.3427 18.5184 12.5723C19.1342 12.7357 19.9639 12.7701 19.9639 12.7701V10.4238C19.6732 10.4554 19.0829 10.3636 18.4786 10.0623Z" fill="white"/>
</svg>