<svg xmlns="http://www.w3.org/2000/svg" width="28" height="28" viewBox="0 0 28 28" fill="none">
<rect width="28" height="28" rx="14" fill="#111111"/>
<path d="M11.6698 14.0358C11.6698 12.746 12.7148 11.7002 14.0042 11.7002C15.2936 11.7002 16.3391 12.746 16.3391 14.0358C16.3391 15.3255 15.2936 16.3714 14.0042 16.3714C12.7148 16.3714 11.6698 15.3255 11.6698 14.0358ZM10.4076 14.0358C10.4076 16.0227 12.0178 17.6334 14.0042 17.6334C15.9906 17.6334 17.6008 16.0227 17.6008 14.0358C17.6008 12.0488 15.9906 10.4382 14.0042 10.4382C12.0178 10.4382 10.4076 12.0488 10.4076 14.0358ZM16.9026 10.2955C16.9026 10.4618 16.9518 10.6244 17.0441 10.7627C17.1364 10.901 17.2676 11.0088 17.4212 11.0725C17.5748 11.1362 17.7437 11.1529 17.9068 11.1205C18.0699 11.0881 18.2196 11.0081 18.3372 10.8906C18.4548 10.773 18.5349 10.6233 18.5674 10.4602C18.5999 10.2971 18.5834 10.1281 18.5198 9.97441C18.4563 9.82076 18.3486 9.68941 18.2104 9.59697C18.0722 9.50454 17.9097 9.45516 17.7435 9.4551H17.7432C17.5203 9.4552 17.3067 9.54376 17.1491 9.70134C16.9915 9.85892 16.9028 10.0726 16.9026 10.2955ZM11.1745 19.7387C10.4916 19.7076 10.1205 19.5938 9.8738 19.4976C9.54678 19.3703 9.31346 19.2186 9.06814 18.9736C8.82283 18.7285 8.67098 18.4954 8.54423 18.1683C8.44808 17.9216 8.33433 17.5503 8.30329 16.8672C8.26933 16.1287 8.26255 15.9068 8.26255 14.0358C8.26255 12.1648 8.26989 11.9436 8.30329 11.2045C8.33438 10.5214 8.44897 10.1507 8.54423 9.90338C8.67154 9.57627 8.82317 9.34288 9.06814 9.0975C9.31312 8.85211 9.54622 8.70022 9.8738 8.57343C10.1203 8.47725 10.4916 8.36347 11.1745 8.33242C11.9128 8.29845 12.1346 8.29167 14.0042 8.29167C15.8738 8.29167 16.0958 8.29901 16.8347 8.33242C17.5176 8.36353 17.8882 8.47815 18.1354 8.57343C18.4625 8.70022 18.6958 8.85245 18.9411 9.0975C19.1864 9.34255 19.3377 9.57627 19.465 9.90338C19.5612 10.15 19.6749 10.5214 19.706 11.2045C19.7399 11.9436 19.7467 12.1648 19.7467 14.0358C19.7467 15.9068 19.7399 16.128 19.706 16.8672C19.6749 17.5503 19.5605 17.9215 19.465 18.1683C19.3377 18.4954 19.1861 18.7288 18.9411 18.9736C18.6961 19.2184 18.4625 19.3703 18.1354 19.4976C17.8889 19.5938 17.5176 19.7076 16.8347 19.7387C16.0964 19.7726 15.8747 19.7794 14.0042 19.7794C12.1337 19.7794 11.9126 19.7726 11.1745 19.7387ZM11.1165 7.07197C10.3709 7.10594 9.86136 7.2242 9.41639 7.3974C8.95557 7.57625 8.56547 7.8162 8.17564 8.20552C7.78582 8.59484 7.54655 8.98568 7.36775 9.44663C7.1946 9.892 7.07637 10.4014 7.04242 11.1472C7.0079 11.8943 7 12.1331 7 14.0358C7 15.9384 7.0079 16.1773 7.04242 16.9243C7.07637 17.6702 7.1946 18.1795 7.36775 18.6249C7.54655 19.0856 7.78587 19.4769 8.17564 19.866C8.56541 20.2552 8.95557 20.4948 9.41639 20.6741C9.8622 20.8473 10.3709 20.9656 11.1165 20.9996C11.8637 21.0335 12.1021 21.042 14.0042 21.042C15.9063 21.042 16.1451 21.0341 16.8919 20.9996C17.6376 20.9656 18.1468 20.8473 18.592 20.6741C19.0525 20.4948 19.4429 20.2553 19.8328 19.866C20.2226 19.4767 20.4613 19.0856 20.6407 18.6249C20.8138 18.1795 20.9326 17.6701 20.966 16.9243C20.9999 16.1767 21.0078 15.9384 21.0078 14.0358C21.0078 12.1331 20.9999 11.8943 20.966 11.1472C20.932 10.4013 20.8138 9.89172 20.6407 9.44663C20.4613 8.98596 20.222 8.59546 19.8328 8.20552C19.4435 7.81558 19.0525 7.57625 18.5926 7.3974C18.1468 7.2242 17.6375 7.10538 16.8925 7.07197C16.1456 7.038 15.9069 7.02954 14.0048 7.02954C12.1026 7.02954 11.8637 7.03744 11.1165 7.07197Z" fill="white"/>
<path d="M11.6698 14.0358C11.6698 12.746 12.7148 11.7002 14.0042 11.7002C15.2936 11.7002 16.3391 12.746 16.3391 14.0358C16.3391 15.3255 15.2936 16.3714 14.0042 16.3714C12.7148 16.3714 11.6698 15.3255 11.6698 14.0358ZM10.4076 14.0358C10.4076 16.0227 12.0178 17.6334 14.0042 17.6334C15.9906 17.6334 17.6008 16.0227 17.6008 14.0358C17.6008 12.0488 15.9906 10.4382 14.0042 10.4382C12.0178 10.4382 10.4076 12.0488 10.4076 14.0358ZM16.9026 10.2955C16.9026 10.4618 16.9518 10.6244 17.0441 10.7627C17.1364 10.901 17.2676 11.0088 17.4212 11.0725C17.5748 11.1362 17.7437 11.1529 17.9068 11.1205C18.0699 11.0881 18.2196 11.0081 18.3372 10.8906C18.4548 10.773 18.5349 10.6233 18.5674 10.4602C18.5999 10.2971 18.5834 10.1281 18.5198 9.97441C18.4563 9.82076 18.3486 9.68941 18.2104 9.59697C18.0722 9.50454 17.9097 9.45516 17.7435 9.4551H17.7432C17.5203 9.4552 17.3067 9.54376 17.1491 9.70134C16.9915 9.85892 16.9028 10.0726 16.9026 10.2955ZM11.1745 19.7387C10.4916 19.7076 10.1205 19.5938 9.8738 19.4976C9.54678 19.3703 9.31346 19.2186 9.06814 18.9736C8.82283 18.7285 8.67098 18.4954 8.54423 18.1683C8.44808 17.9216 8.33433 17.5503 8.30329 16.8672C8.26933 16.1287 8.26255 15.9068 8.26255 14.0358C8.26255 12.1648 8.26989 11.9436 8.30329 11.2045C8.33438 10.5214 8.44897 10.1507 8.54423 9.90338C8.67154 9.57627 8.82317 9.34288 9.06814 9.0975C9.31312 8.85211 9.54622 8.70022 9.8738 8.57343C10.1203 8.47725 10.4916 8.36347 11.1745 8.33242C11.9128 8.29845 12.1346 8.29167 14.0042 8.29167C15.8738 8.29167 16.0958 8.29901 16.8347 8.33242C17.5176 8.36353 17.8882 8.47815 18.1354 8.57343C18.4625 8.70022 18.6958 8.85245 18.9411 9.0975C19.1864 9.34255 19.3377 9.57627 19.465 9.90338C19.5612 10.15 19.6749 10.5214 19.706 11.2045C19.7399 11.9436 19.7467 12.1648 19.7467 14.0358C19.7467 15.9068 19.7399 16.128 19.706 16.8672C19.6749 17.5503 19.5605 17.9215 19.465 18.1683C19.3377 18.4954 19.1861 18.7288 18.9411 18.9736C18.6961 19.2184 18.4625 19.3703 18.1354 19.4976C17.8889 19.5938 17.5176 19.7076 16.8347 19.7387C16.0964 19.7726 15.8747 19.7794 14.0042 19.7794C12.1337 19.7794 11.9126 19.7726 11.1745 19.7387ZM11.1165 7.07197C10.3709 7.10594 9.86136 7.2242 9.41639 7.3974C8.95557 7.57625 8.56547 7.8162 8.17564 8.20552C7.78582 8.59484 7.54655 8.98568 7.36775 9.44663C7.1946 9.892 7.07637 10.4014 7.04242 11.1472C7.0079 11.8943 7 12.1331 7 14.0358C7 15.9384 7.0079 16.1773 7.04242 16.9243C7.07637 17.6702 7.1946 18.1795 7.36775 18.6249C7.54655 19.0856 7.78587 19.4769 8.17564 19.866C8.56541 20.2552 8.95557 20.4948 9.41639 20.6741C9.8622 20.8473 10.3709 20.9656 11.1165 20.9996C11.8637 21.0335 12.1021 21.042 14.0042 21.042C15.9063 21.042 16.1451 21.0341 16.8919 20.9996C17.6376 20.9656 18.1468 20.8473 18.592 20.6741C19.0525 20.4948 19.4429 20.2553 19.8328 19.866C20.2226 19.4767 20.4613 19.0856 20.6407 18.6249C20.8138 18.1795 20.9326 17.6701 20.966 16.9243C20.9999 16.1767 21.0078 15.9384 21.0078 14.0358C21.0078 12.1331 20.9999 11.8943 20.966 11.1472C20.932 10.4013 20.8138 9.89172 20.6407 9.44663C20.4613 8.98596 20.222 8.59546 19.8328 8.20552C19.4435 7.81558 19.0525 7.57625 18.5926 7.3974C18.1468 7.2242 17.6375 7.10538 16.8925 7.07197C16.1456 7.038 15.9069 7.02954 14.0048 7.02954C12.1026 7.02954 11.8637 7.03744 11.1165 7.07197Z" fill="white"/>
</svg>