<svg xmlns="http://www.w3.org/2000/svg" width="28" height="28" viewBox="0 0 28 28" fill="none">
<rect width="28" height="28" rx="14" fill="#111111"/>
<path d="M21.7878 10.1489C21.605 9.4616 21.0642 8.91942 20.3761 8.7336C19.132 8.40015 14.1404 8.40015 14.1404 8.40015C14.1404 8.40015 9.15131 8.40015 7.90468 8.7336C7.21915 8.91687 6.67835 9.45906 6.49301 10.1489C6.1604 11.3961 6.1604 14.0001 6.1604 14.0001C6.1604 14.0001 6.1604 16.6041 6.49301 17.8514C6.67581 18.5387 7.21661 19.0809 7.90468 19.2667C9.15131 19.6001 14.1404 19.6001 14.1404 19.6001C14.1404 19.6001 19.132 19.6001 20.3761 19.2667C21.0616 19.0834 21.6025 18.5412 21.7878 17.8514C22.1204 16.6041 22.1204 14.0001 22.1204 14.0001C22.1204 14.0001 22.1204 11.3961 21.7878 10.1489Z" fill="white"/>
<path d="M12.5459 16.4005L16.6921 14.0001L12.5459 11.5998V16.4005Z" fill="white"/>
<path d="M12.5459 16.4006L16.692 14.0002L12.5459 11.5999V16.4006Z" fill="#111111"/>
</svg>