<svg xmlns="http://www.w3.org/2000/svg" width="99" height="24" viewBox="0 0 99 24" fill="none">
  <g clip-path="url(#clip0_1_1775)">
    <path d="M98.6668 16.6163H86.3354C87.1506 19.6951 90.5678 20.3251 95.1278 18.3338C95.8097 19.0276 96.5297 19.7626 97.2306 20.4788C95.0097 23.3476 90.7163 24.3713 86.8573 23.0513C83.162 21.7838 80.9525 18.6076 81.0211 14.6588C81.1011 10.0388 84.1144 6.63383 88.6858 5.99633C93.1125 5.38133 96.8268 7.69133 98.2935 11.9588C98.3658 12.1726 98.5411 12.3563 98.6668 12.5513V16.6126V16.6163ZM93.7068 12.9863C93.1658 11.0101 91.9049 10.1401 89.8249 10.2001C87.8439 10.2563 86.6592 11.1601 86.2401 12.9863H93.7068Z" fill="#111111"/>
    <path d="M56.1411 0C56.0878 5.4525 56.0306 10.905 55.9887 16.3575C55.9697 18.6112 55.9887 20.865 55.9887 23.1863H50.5259C50.8687 20.5875 51.2116 18.105 51.5164 15.6188C51.6268 14.7188 51.9735 13.6762 51.6535 12.9225C50.3659 9.89625 50.9487 6.76875 50.8268 3.67875C50.7773 2.4525 50.8268 1.22625 50.8268 0H56.1411V0Z" fill="#111111"/>
    <path d="M64.1141 0V4.29H58.7998V0H64.1141Z" fill="#111111"/>
    <path d="M27.9239 23.205H22.3658C22.3658 20.3513 22.3658 17.5463 22.3658 14.745C22.3658 11.715 21.4858 10.3913 19.4972 10.4063C17.4744 10.4213 16.5868 11.7263 16.5792 14.7113C16.5753 17.4713 16.5792 20.2275 16.5792 23.1225H11.3563C11.3563 20.4675 11.3563 17.7863 11.3563 15.105C11.3563 14.55 11.3792 13.995 11.3449 13.4438C11.2192 11.52 10.1411 10.3875 8.48392 10.4063C6.80011 10.425 5.64963 11.5463 5.60773 13.4325C5.54297 16.62 5.58868 19.8075 5.58868 23.1263H0.350586C0.350586 20.3288 0.350586 17.52 0.350586 14.715C0.350586 11.9625 0.350586 9.21379 0.350586 6.37129H5.3982L5.7182 7.80379C9.63058 5.11129 12.423 5.28004 15.4173 8.44879C17.0134 6.74254 19.0096 5.74504 21.4134 5.97004C22.5144 6.07504 23.6611 6.38254 24.6325 6.88129C25.9963 7.58254 26.663 8.46754 25.7868 10.26C23.9734 13.9613 24.3582 17.655 26.823 21.0788C27.223 21.6338 27.463 22.2975 27.9239 23.2013V23.205Z" fill="#111111"/>
    <path d="M42.4569 9.89615C40.5331 11.8911 40.4455 14.1224 41.3484 16.5899H34.3198V13.2524L38.735 13.0161C38.2322 10.7324 36.0646 9.64865 33.6379 10.3724C31.2417 11.0849 30.0303 14.0286 31.055 16.6574C32.2093 19.6311 35.7331 20.3211 40.2322 18.3149C40.9027 18.9974 41.6265 19.7399 42.3427 20.4711C40.0379 23.3886 35.7255 24.3974 31.8055 22.9949C27.9884 21.6336 25.9617 18.4686 26.137 14.1486C26.2893 10.3424 28.7427 7.2824 32.4379 6.2924C36.4341 5.2199 40.2055 6.53614 42.4569 9.89615Z" fill="#111111"/>
    <path d="M65.8017 6.28506C67.2836 6.28506 68.674 6.18006 70.0264 6.34131C70.5255 6.40131 71.1464 7.00881 71.3636 7.51131C72.7007 10.6201 73.935 13.7663 75.3826 17.3401C76.5598 14.4263 77.5845 11.8876 78.6055 9.34506C79.4563 7.22756 81.1172 6.23381 83.5883 6.36381C83.3293 6.69381 83.1655 6.97131 82.9369 7.18131C80.0874 9.82506 79.234 13.0951 79.8321 16.7701C80.2207 19.1663 78.7464 20.9813 77.8245 22.9238C77.3559 23.9101 72.9483 23.2501 72.5102 22.2376C70.3274 17.2088 68.1674 12.1726 66.0074 7.13631C65.9159 6.92256 65.8931 6.67881 65.7979 6.28881L65.8017 6.28506Z" fill="#111111"/>
    <path d="M58.8989 23.1563V6.41626H63.8742V23.1563H58.8989Z" fill="#111111"/>
    <path d="M46.3885 10.7549C48.198 10.7961 49.6342 12.2399 49.5656 13.9424C49.4932 15.6674 48.0151 16.9724 46.1789 16.9311C44.3846 16.8899 42.918 15.4199 42.9904 13.7399C43.0666 12.0149 44.5485 10.7136 46.3885 10.7586V10.7549Z" fill="#DC1A5D"/>
  </g>
  <defs>
    <clipPath id="clip0_1_1775">
      <rect width="98.6667" height="24" fill="white"/>
    </clipPath>
  </defs>
</svg>