<svg xmlns="http://www.w3.org/2000/svg" width="99" height="24" viewBox="0 0 99 24" fill="none">
<path d="M49.005 18.591C50.7434 18.591 52.1527 17.1817 52.1527 15.4432C52.1527 13.7047 50.7434 12.2954 49.005 12.2954C47.2665 12.2954 45.8572 13.7047 45.8572 15.4432C45.8572 17.1817 47.2665 18.591 49.005 18.591Z" fill="#DC1A5D"/>
<path d="M44.1871 16.9948L42.7093 17.2017C42.1921 18.6647 40.8768 19.98 39.266 20.4381C36.8423 21.1327 34.5221 19.9505 33.3399 17.9849C33.3399 17.9849 39.1921 17.9406 44.0689 14.2312C44.3202 13.2263 44.8522 12.3396 45.6059 11.6598C45.2955 10.9948 44.9261 10.4184 44.4532 9.84208C42.3251 7.25587 38.7783 6.02927 35.3645 7.01942C31.9507 8.00956 29.6009 10.9357 29.1871 14.2608C29.0541 15.3101 29.1133 16.3889 29.394 17.4677C29.4088 17.5564 29.4384 17.645 29.4679 17.7337C30.798 22.315 35.6009 24.9603 40.1822 23.6303C42.6206 22.9209 44.4975 21.2214 45.532 19.0933C44.9113 18.5465 44.4532 17.8224 44.1871 16.9948ZM32.6305 14.9554C32.7931 12.8716 34.2118 10.9948 36.3399 10.3889C38.4679 9.76818 40.6699 10.5958 41.9113 12.2657C40.6108 13.1376 39.133 13.8174 37.4926 14.2904C35.8669 14.7633 33.931 14.9997 32.6305 14.9554Z" fill="white"/>
<path d="M20.5271 6.9751C19.33 6.9751 18.2217 7.27066 17.202 7.84702C16.1823 8.42337 15.2365 9.38397 14.8522 10.4037C14.4089 9.33963 13.5222 8.34948 12.5025 7.80268C11.4828 7.25589 10.3301 6.9751 9.04434 6.9751C8.02463 6.9751 7.10838 7.16722 6.25123 7.56623C5.40887 7.96525 4.52217 8.91106 4.18227 9.69431V7.21155H0V23.7337H4.18227V14.4234C4.18227 12.2066 5.83744 10.6106 7.9064 10.6106C9.91626 10.6106 11.5714 12.1918 11.5714 14.4234V23.7337H15.7537V14.3495C15.7537 12.1918 17.3941 10.6106 19.4483 10.6106C21.4729 10.6106 23.1133 12.1918 23.1133 14.3495V23.7337H27.2956V14.0391C27.2956 11.8076 26.6749 10.0785 25.4335 8.83717C24.1921 7.59579 22.5517 6.9751 20.5271 6.9751Z" fill="white"/>
<path d="M53.335 1.32983V12.783C53.8079 13.5515 54.0887 14.4678 54.0887 15.4431C54.0887 16.4185 53.8079 17.3348 53.335 18.1032V23.719H57.5616V1.32983H53.335Z" fill="white"/>
<path d="M59.601 4.24127C59.1133 3.76836 58.8621 3.17723 58.8621 2.46787C58.8621 1.75851 59.1133 1.16737 59.601 0.694467C60.0887 0.221561 60.7094 -0.0148926 61.463 -0.0148926C62.202 -0.0148926 62.8227 0.221561 63.3251 0.694467C63.8128 1.16737 64.064 1.75851 64.064 2.46787C64.064 3.17723 63.8128 3.76836 63.3251 4.24127C62.8374 4.71417 62.2167 4.95062 61.463 4.95062C60.7241 4.9654 60.1034 4.72895 59.601 4.24127ZM63.5468 6.96048V23.7043H59.3202V6.96048H63.5468Z" fill="white"/>
<path d="M74.0985 19.8029L78.3251 6.9458H82.8325L76.6404 23.6896H71.4975L65.335 6.96058H69.8719L74.0985 19.8029Z" fill="white"/>
<path d="M98.4384 16.596H86.1872C86.2907 17.8078 86.7045 18.7536 87.4582 19.4334C88.1971 20.1132 89.1281 20.4679 90.2069 20.4679C91.7734 20.4679 92.8966 19.7881 93.5616 18.4433H98.1281C97.6404 20.0541 96.7242 21.3841 95.3498 22.4186C93.9754 23.4531 92.2907 23.9703 90.2956 23.9703C88.6848 23.9703 87.2365 23.6157 85.9508 22.8915C84.665 22.1822 83.6749 21.1625 82.9508 19.8472C82.2414 18.5319 81.8719 17.0245 81.8719 15.3102C81.8719 13.5812 82.2266 12.059 82.936 10.7437C83.6453 9.42847 84.6355 8.42355 85.9064 7.71419C87.1774 7.00483 88.6404 6.65015 90.2956 6.65015C91.8917 6.65015 93.3104 6.99005 94.5813 7.68463C95.8375 8.36443 96.8128 9.3398 97.5074 10.596C98.202 11.8521 98.5567 13.3004 98.5567 14.9408C98.5715 15.5763 98.5271 16.1231 98.4384 16.596ZM94.1823 13.7585C94.1675 12.6649 93.7685 11.793 93 11.1428C92.2316 10.4925 91.3005 10.1674 90.1921 10.1674C89.1429 10.1674 88.2562 10.4777 87.5468 11.1132C86.8375 11.7487 86.3941 12.6354 86.2316 13.7585H94.1823Z" fill="white"/>
</svg>