<svg xmlns="http://www.w3.org/2000/svg" width="99" height="24" viewBox="0 0 99 24" fill="none">
<path d="M49.0047 18.591C50.7432 18.591 52.1525 17.1817 52.1525 15.4432C52.1525 13.7047 50.7432 12.2954 49.0047 12.2954C47.2662 12.2954 45.8569 13.7047 45.8569 15.4432C45.8569 17.1817 47.2662 18.591 49.0047 18.591Z" fill="#DC1A5D"/>
<path d="M44.187 16.9948L42.7092 17.2017C42.1919 18.6647 40.8767 19.98 39.2658 20.4381C36.8422 21.1327 34.522 19.9505 33.3397 17.9849C33.3397 17.9849 39.192 17.9406 44.0688 14.2312C44.32 13.2263 44.852 12.3396 45.6057 11.6598C45.2954 10.9948 44.9259 10.4184 44.453 9.84208C42.325 7.25587 38.7782 6.02927 35.3644 7.01942C31.9506 8.00956 29.6008 10.9357 29.187 14.2608C29.054 15.3101 29.1131 16.3889 29.3939 17.4677C29.4087 17.5564 29.4383 17.645 29.4678 17.7337C30.7979 22.315 35.6008 24.9603 40.1821 23.6303C42.6205 22.9209 44.4974 21.2214 45.5319 19.0933C44.9112 18.5465 44.453 17.8224 44.187 16.9948ZM32.6304 14.9554C32.7929 12.8716 34.2117 10.9948 36.3397 10.3889C38.4678 9.76818 40.6698 10.5958 41.9112 12.2657C40.6107 13.1376 39.1328 13.8174 37.4924 14.2904C35.8668 14.7633 33.9309 14.9997 32.6304 14.9554Z" fill="black"/>
<path d="M20.5271 6.9751C19.33 6.9751 18.2217 7.27066 17.202 7.84702C16.1823 8.42337 15.2365 9.38397 14.8522 10.4037C14.4089 9.33963 13.5222 8.34948 12.5025 7.80268C11.4828 7.25589 10.3301 6.9751 9.04434 6.9751C8.02463 6.9751 7.10838 7.16722 6.25123 7.56623C5.40887 7.96525 4.52217 8.91106 4.18227 9.69431V7.21155H0V23.7337H4.18227V14.4234C4.18227 12.2066 5.83744 10.6106 7.9064 10.6106C9.91626 10.6106 11.5714 12.1918 11.5714 14.4234V23.7337H15.7537V14.3495C15.7537 12.1918 17.3941 10.6106 19.4483 10.6106C21.4729 10.6106 23.1133 12.1918 23.1133 14.3495V23.7337H27.2956V14.0391C27.2956 11.8076 26.6749 10.0785 25.4335 8.83717C24.1921 7.59579 22.5517 6.9751 20.5271 6.9751Z" fill="black"/>
<path d="M53.335 1.32983V12.783C53.8079 13.5515 54.0887 14.4678 54.0887 15.4431C54.0887 16.4185 53.8079 17.3348 53.335 18.1032V23.719H57.5616V1.32983H53.335Z" fill="black"/>
<path d="M59.6012 4.24127C59.1135 3.76836 58.8623 3.17723 58.8623 2.46787C58.8623 1.75851 59.1135 1.16737 59.6012 0.694467C60.0889 0.221561 60.7096 -0.0148926 61.4633 -0.0148926C62.2022 -0.0148926 62.8229 0.221561 63.3254 0.694467C63.813 1.16737 64.0643 1.75851 64.0643 2.46787C64.0643 3.17723 63.813 3.76836 63.3254 4.24127C62.8377 4.71417 62.217 4.95062 61.4633 4.95062C60.7244 4.9654 60.1037 4.72895 59.6012 4.24127ZM63.547 6.96048V23.7043H59.3204V6.96048H63.547Z" fill="black"/>
<path d="M74.0985 19.8029L78.3251 6.9458H82.8325L76.6404 23.6896H71.4975L65.335 6.96058H69.8719L74.0985 19.8029Z" fill="black"/>
<path d="M98.4386 16.596H86.1873C86.2908 17.8078 86.7046 18.7536 87.4583 19.4334C88.1972 20.1132 89.1282 20.4679 90.2071 20.4679C91.7736 20.4679 92.8967 19.7881 93.5617 18.4433H98.1282C97.6405 20.0541 96.7243 21.3841 95.3499 22.4186C93.9755 23.4531 92.2908 23.9703 90.2957 23.9703C88.6849 23.9703 87.2366 23.6157 85.9509 22.8915C84.6652 22.1822 83.675 21.1625 82.9509 19.8472C82.2415 18.5319 81.8721 17.0245 81.8721 15.3102C81.8721 13.5812 82.2268 12.059 82.9361 10.7437C83.6455 9.42847 84.6356 8.42355 85.9066 7.71419C87.1775 7.00483 88.6405 6.65015 90.2957 6.65015C91.8918 6.65015 93.3105 6.99005 94.5814 7.68463C95.8376 8.36443 96.813 9.3398 97.5075 10.596C98.2021 11.8521 98.5568 13.3004 98.5568 14.9408C98.5716 15.5763 98.5272 16.1231 98.4386 16.596ZM94.1824 13.7585C94.1676 12.6649 93.7686 11.793 93.0001 11.1428C92.2317 10.4925 91.3006 10.1674 90.1923 10.1674C89.143 10.1674 88.2563 10.4777 87.547 11.1132C86.8376 11.7487 86.3942 12.6354 86.2317 13.7585H94.1824Z" fill="black"/>
</svg>