<svg xmlns="http://www.w3.org/2000/svg" width="64" height="64" viewBox="0 0 64 64" fill="none">
  <path d="M62.3874 23.2756L59.1668 20.4924C58.7673 20.1469 58.1632 20.191 57.8178 20.5907C57.4724 20.9904 57.5163 21.5944 57.9161 21.9397L61.1365 24.723C62.2845 25.7151 62.4113 27.4562 61.4193 28.6042L40.5009 52.8087C40.1555 53.2084 40.1994 53.8124 40.5992 54.1579C40.78 54.3142 41.0027 54.3907 41.2242 54.3907C41.4925 54.3907 41.7592 54.2785 41.9483 54.0597L62.8665 29.855C64.5484 27.909 64.3334 24.9574 62.3874 23.2756Z" fill="url(#paint0_linear_134_9290)"/>
  <path d="M56.7177 18.3754L41.8197 5.50025C40.877 4.6855 39.6732 4.28712 38.4307 4.37712C37.188 4.4675 36.055 5.03662 35.2402 5.97925L33.8207 7.62175C33.4753 8.0215 33.5192 8.62549 33.919 8.97087C34.3189 9.31649 34.9227 9.27225 35.2681 8.87262L36.6876 7.23012C37.1682 6.67412 37.8366 6.33837 38.5697 6.285C39.3029 6.23112 40.0127 6.46687 40.5688 6.9475L55.4669 19.8226C55.6477 19.979 55.8703 20.0555 56.0919 20.0555C56.3602 20.0555 56.6269 19.9432 56.816 19.7245C57.1612 19.3247 57.1173 18.7207 56.7177 18.3754Z" fill="url(#paint1_linear_134_9290)"/>
  <path d="M47.6374 14.994L21.8639 6.34923C19.425 5.53123 16.7759 6.84986 15.958 9.28836L15.618 10.302C15.45 10.8027 15.7199 11.345 16.2208 11.513C16.7217 11.681 17.2637 11.4112 17.4318 10.9102L17.7718 9.89661C18.2543 8.45798 19.8169 7.68011 21.2557 8.16274L47.0293 16.8074C48.4679 17.29 49.2457 18.8527 48.7632 20.2912L36.7715 56.0437C36.6035 56.5445 36.8734 57.0866 37.3743 57.2547C37.4752 57.2885 37.5777 57.3046 37.6785 57.3046C38.0783 57.3046 38.451 57.052 38.5853 56.6521L50.5769 20.8997C51.3946 18.4614 50.0762 15.8119 47.6374 14.994Z" fill="url(#paint2_linear_134_9290)"/>
  <path d="M31.8494 12.5961H4.66475C2.09263 12.5961 0 14.6886 0 17.2607V54.9706C0 57.5427 2.09263 59.6353 4.66475 59.6353H31.8495C34.4216 59.6353 36.5143 57.5427 36.5143 54.9706V17.2607C36.5141 14.6886 34.4216 12.5961 31.8494 12.5961ZM34.6011 54.9706C34.6011 56.4879 33.3666 57.7223 31.8494 57.7223H4.66475C3.14738 57.7223 1.913 56.4878 1.913 54.9706V17.2607C1.913 15.7433 3.1475 14.5089 4.66475 14.5089H31.8495C33.3669 14.5089 34.6012 15.7434 34.6012 17.2607V54.9706H34.6011Z" fill="url(#paint3_linear_134_9290)"/>
  <path d="M32.3472 38.995H4.16695C3.6387 38.995 3.21045 39.4232 3.21045 39.9515C3.21045 40.4797 3.6387 40.908 4.16695 40.908H32.3473C32.8756 40.908 33.3038 40.4797 33.3038 39.9515C33.3037 39.4232 32.8755 38.995 32.3472 38.995Z" fill="url(#paint4_linear_134_9290)"/>
  <path d="M27.8882 44.4647H16.0439C15.5157 44.4647 15.0874 44.893 15.0874 45.4212C15.0874 45.9495 15.5157 46.3777 16.0439 46.3777H27.8882C28.4164 46.3777 28.8447 45.9495 28.8447 45.4212C28.8447 44.893 28.4164 44.4647 27.8882 44.4647Z" fill="url(#paint5_linear_134_9290)"/>
  <path d="M12.8556 44.4647H8.62569C8.09744 44.4647 7.66919 44.893 7.66919 45.4212C7.66919 45.9495 8.09744 46.3777 8.62569 46.3777H12.8556C13.3838 46.3777 13.8121 45.9495 13.8121 45.4212C13.8121 44.893 13.3838 44.4647 12.8556 44.4647Z" fill="url(#paint6_linear_134_9290)"/>
  <path d="M27.8882 48.1211H8.62569C8.09744 48.1211 7.66919 48.5493 7.66919 49.0776C7.66919 49.6058 8.09744 50.0341 8.62569 50.0341H27.8882C28.4164 50.0341 28.8447 49.6058 28.8447 49.0776C28.8447 48.5492 28.4164 48.1211 27.8882 48.1211Z" fill="url(#paint7_linear_134_9290)"/>
  <path d="M27.8882 51.7773H8.62569C8.09744 51.7773 7.66919 52.2056 7.66919 52.7338C7.66919 53.2621 8.09744 53.6903 8.62569 53.6903H27.8882C28.4164 53.6903 28.8447 53.2621 28.8447 52.7338C28.8447 52.2056 28.4164 51.7773 27.8882 51.7773Z" fill="url(#paint8_linear_134_9290)"/>
  <path d="M28.7695 23.694C28.657 23.3478 28.3577 23.0954 27.9975 23.0432L21.8596 22.1513L19.1147 16.5894C18.9535 16.2629 18.6211 16.0562 18.257 16.0562C17.893 16.0562 17.5605 16.2629 17.3992 16.5894L14.6542 22.1513L8.51634 23.0432C8.15609 23.0954 7.85672 23.3478 7.74434 23.694C7.63184 24.0403 7.72571 24.4203 7.98634 24.6744L12.4278 29.0037L11.3793 35.1169C11.3178 35.4757 11.4653 35.8383 11.7598 36.0523C11.9265 36.1733 12.1238 36.2349 12.3221 36.2349C12.4742 36.2349 12.6271 36.1985 12.7671 36.1252L18.257 33.2388L23.7468 36.1252C24.0691 36.2945 24.4596 36.2663 24.7541 36.0523C25.0487 35.8383 25.1961 35.4757 25.1346 35.1169L24.0861 29.0037L28.5275 24.6744C28.7881 24.4203 28.882 24.0403 28.7695 23.694ZM22.3908 27.9849C22.1653 28.2047 22.0625 28.5213 22.1157 28.8315L22.9216 33.5302L18.702 31.3117C18.4232 31.1653 18.0903 31.1653 17.8118 31.3117L13.5922 33.5302L14.3981 28.8315C14.4512 28.5213 14.3485 28.2047 14.123 27.9849L10.7093 24.6574L15.427 23.9718C15.7385 23.9265 16.0077 23.7309 16.1471 23.4485L18.2568 19.1735L20.3666 23.4485C20.5058 23.7308 20.7752 23.9265 21.0867 23.9718L25.8045 24.6574L22.3908 27.9849Z" fill="url(#paint9_linear_134_9290)"/>
  <defs>
    <linearGradient id="paint0_linear_134_9290" x1="45.0535" y1="37.3251" x2="52.1704" y2="37.3403" gradientUnits="userSpaceOnUse">
      <stop stop-color="#DC1A5D"/>
      <stop offset="0.666667" stop-color="#DB1C77"/>
      <stop offset="1" stop-color="#D721C4"/>
    </linearGradient>
    <linearGradient id="paint1_linear_134_9290" x1="38.3187" y1="12.2101" x2="45.3542" y2="12.2424" gradientUnits="userSpaceOnUse">
      <stop stop-color="#DC1A5D"/>
      <stop offset="0.666667" stop-color="#DB1C77"/>
      <stop offset="1" stop-color="#D721C4"/>
    </linearGradient>
    <linearGradient id="paint2_linear_134_9290" x1="22.6764" y1="31.7057" x2="33.2478" y2="31.728" gradientUnits="userSpaceOnUse">
      <stop stop-color="#DC1A5D"/>
      <stop offset="0.666667" stop-color="#DB1C77"/>
      <stop offset="1" stop-color="#D721C4"/>
    </linearGradient>
    <linearGradient id="paint3_linear_134_9290" x1="7.36296" y1="36.1157" x2="18.3131" y2="36.1418" gradientUnits="userSpaceOnUse">
      <stop stop-color="#DC1A5D"/>
      <stop offset="0.666667" stop-color="#DB1C77"/>
      <stop offset="1" stop-color="#D721C4"/>
    </linearGradient>
    <linearGradient id="paint4_linear_134_9290" x1="9.27866" y1="39.9515" x2="18.2823" y2="40.3863" gradientUnits="userSpaceOnUse">
      <stop stop-color="#DC1A5D"/>
      <stop offset="0.666667" stop-color="#DB1C77"/>
      <stop offset="1" stop-color="#D721C4"/>
    </linearGradient>
    <linearGradient id="paint5_linear_134_9290" x1="17.8615" y1="45.4212" x2="21.9851" y2="45.5123" gradientUnits="userSpaceOnUse">
      <stop stop-color="#DC1A5D"/>
      <stop offset="0.666667" stop-color="#DB1C77"/>
      <stop offset="1" stop-color="#D721C4"/>
    </linearGradient>
    <linearGradient id="paint6_linear_134_9290" x1="8.90788" y1="45.4212" x2="10.7499" y2="45.4394" gradientUnits="userSpaceOnUse">
      <stop stop-color="#DC1A5D"/>
      <stop offset="0.666667" stop-color="#DB1C77"/>
      <stop offset="1" stop-color="#D721C4"/>
    </linearGradient>
    <linearGradient id="paint7_linear_134_9290" x1="11.9391" y1="49.0776" x2="18.2821" y2="49.2931" gradientUnits="userSpaceOnUse">
      <stop stop-color="#DC1A5D"/>
      <stop offset="0.666667" stop-color="#DB1C77"/>
      <stop offset="1" stop-color="#D721C4"/>
    </linearGradient>
    <linearGradient id="paint8_linear_134_9290" x1="11.9391" y1="52.7338" x2="18.2821" y2="52.9494" gradientUnits="userSpaceOnUse">
      <stop stop-color="#DC1A5D"/>
      <stop offset="0.666667" stop-color="#DB1C77"/>
      <stop offset="1" stop-color="#D721C4"/>
    </linearGradient>
    <linearGradient id="paint9_linear_134_9290" x1="11.956" y1="26.1456" x2="18.2893" y2="26.1659" gradientUnits="userSpaceOnUse">
      <stop stop-color="#DC1A5D"/>
      <stop offset="0.666667" stop-color="#DB1C77"/>
      <stop offset="1" stop-color="#D721C4"/>
    </linearGradient>
  </defs>
</svg>