<svg xmlns="http://www.w3.org/2000/svg" width="64" height="64" viewBox="0 0 64 64" fill="none">
  <g clip-path="url(#clip0_410_3927)">
    <path d="M63.8034 20.0828C52.7249 5.87783 53.1974 6.2337 52.6059 6.1757L35.2641 3.83983C30.8926 3.25096 27.9233 4.01633 26.407 4.15346C25.8981 4.22196 25.5413 4.69008 25.6096 5.19895C25.6782 5.70783 26.1469 6.06545 26.6551 5.99633C28.1929 5.85533 30.9508 5.13545 35.0159 5.6827L46.9246 7.2867C46.0333 7.46832 32.8916 10.1463 31.9997 10.3281L17.0753 7.2867L22.234 6.59182C22.7429 6.52332 23.0998 6.0552 23.0314 5.54633C22.9629 5.03733 22.4938 4.68033 21.9859 4.74896L11.3947 6.17545C11.3932 6.17557 11.3917 6.17582 11.3902 6.17607L11.3762 6.17795C11.362 6.17995 11.3481 6.18307 11.334 6.1857C11.3248 6.18745 11.3155 6.1887 11.3065 6.1907C11.2988 6.19232 11.2912 6.19395 11.2837 6.1957C11.2731 6.19832 11.2626 6.20145 11.2521 6.20432C11.2358 6.20882 11.2196 6.2132 11.2036 6.21857C11.197 6.22082 11.1907 6.22357 11.1841 6.22595C11.1812 6.22695 11.1783 6.22807 11.1756 6.2292C11.1663 6.2327 11.1567 6.23595 11.1476 6.23957C11.1308 6.24645 11.1146 6.25407 11.0983 6.26195C11.0912 6.26532 11.0842 6.26845 11.0772 6.27195C11.0693 6.27595 11.0617 6.27982 11.0541 6.28395C11.0467 6.28795 11.0397 6.29245 11.0323 6.29682C10.6286 6.53207 10.8257 6.5487 0.196625 20.0826C-0.0243746 20.3661 -0.0623744 20.7515 0.0993749 21.0726C0.473623 21.8151 -0.521747 20.3495 19.9968 47.5853C20.306 47.9953 20.889 48.0768 21.299 47.7675C21.7089 47.4583 21.7904 46.8753 21.4813 46.4653L3.45899 22.5784L18.0217 27.1654C18.3709 28.0865 29.0378 56.221 29.2356 56.743L24.104 49.9417C23.7948 49.5317 23.2119 49.4502 22.8018 49.7594C22.3918 50.0686 22.3104 50.6516 22.6195 51.0616C27.9929 58.182 28.5465 58.9199 28.5848 58.963C29.2636 59.7281 30.2025 60.212 31.1005 60.3635C31.2334 60.3861 32.7912 60.3856 32.9215 60.3602C34.0537 60.1404 35.0101 59.5007 35.4616 58.9061L53.6108 34.8508C53.9199 34.4408 53.8384 33.8578 53.4285 33.5486C53.0183 33.2396 52.4357 33.3211 52.1263 33.7308L34.7639 56.7435C35.3185 55.2806 45.5704 28.2405 45.9781 27.1655L60.5409 22.5785L54.7399 30.267C54.4308 30.677 54.5122 31.26 54.9222 31.5692C55.3323 31.8785 55.9152 31.797 56.2244 31.387C64.0121 21.0553 63.5925 21.6815 63.8999 21.0741C64.0624 20.7528 64.0247 20.3666 63.8034 20.0828ZM31.9999 12.6874L43.2172 25.4842H20.7827L31.9999 12.6874ZM2.39124 20.2925L11.2118 8.98119L17.1919 24.9548L2.39124 20.2925ZM12.9597 8.34569C14.8007 8.72081 28.0014 11.4111 30.2453 11.8683L19.0568 24.6321L12.9597 8.34569ZM32.1026 58.5179H31.8974L20.078 27.3436H43.922L32.1026 58.5179ZM44.943 24.632L33.7545 11.8683C35.2429 11.5649 48.7514 8.81219 51.04 8.34569L44.943 24.632ZM46.8078 24.9545L52.7879 8.98094L61.6086 20.2924L46.8078 24.9545Z" fill="url(#paint0_linear_410_3927)"/>
  </g>
  <defs>
    <linearGradient id="paint0_linear_410_3927" x1="12.9053" y1="32" x2="32.098" y2="32.0664" gradientUnits="userSpaceOnUse">
      <stop stop-color="#DC1A5D"/>
      <stop offset="0.666667" stop-color="#AB0747"/>
      <stop offset="1" stop-color="#C2004F"/>
    </linearGradient>
    <clipPath id="clip0_410_3927">
      <rect width="64" height="64" fill="white"/>
    </clipPath>
  </defs>
</svg>