<svg xmlns="http://www.w3.org/2000/svg" width="64" height="64" viewBox="0 0 64 64" fill="none">
  <g clip-path="url(#clip0_410_3922)">
    <path d="M8.37159 48.9346H4.01074C1.79932 48.9346 0 50.7339 0 52.9458V59.5967C0 61.8086 1.79932 63.6074 4.01074 63.6074H8.37159C10.583 63.6074 12.3823 61.8086 12.3823 59.5967V52.9458C12.3823 50.7339 10.583 48.9346 8.37159 48.9346ZM10.4775 59.5967C10.4775 60.7578 9.53272 61.7026 8.37159 61.7026H4.01074C2.84961 61.7026 1.90527 60.7578 1.90527 59.5967V52.9458C1.90527 51.7847 2.84961 50.8398 4.01074 50.8398H8.37159C9.53272 50.8398 10.4775 51.7847 10.4775 52.9458V59.5967Z" fill="url(#paint0_linear_410_3922)"/>
    <path d="M24.3037 41.5225H19.9429C17.7314 41.5225 15.9321 43.3218 15.9321 45.5332V53.6719C15.9321 54.1978 16.3584 54.6245 16.8843 54.6245C17.4106 54.6245 17.8369 54.1978 17.8369 53.6719V45.5332C17.8369 44.3721 18.7817 43.4277 19.9429 43.4277H24.3037C25.4648 43.4277 26.4092 44.3721 26.4092 45.5332V59.5967C26.4092 60.7578 25.4644 61.7026 24.3037 61.7026H19.9429C18.7817 61.7026 17.8369 60.7578 17.8369 59.5967V57.4824C17.8369 56.9561 17.4106 56.5298 16.8843 56.5298C16.3584 56.5298 15.9321 56.9561 15.9321 57.4824V59.5967C15.9321 61.8086 17.7314 63.6074 19.9429 63.6074H24.3037C26.5151 63.6074 28.3145 61.8086 28.3145 59.5967V45.5332C28.3145 43.3218 26.5151 41.5225 24.3037 41.5225Z" fill="url(#paint1_linear_410_3922)"/>
    <path d="M40.2349 32.4453H35.874C33.6626 32.4453 31.8633 34.2446 31.8633 36.4565V59.5967C31.8633 61.8086 33.6626 63.6074 35.874 63.6074H40.2349C42.4463 63.6074 44.2456 61.8086 44.2456 59.5967V36.4565C44.2456 34.2446 42.4463 32.4453 40.2349 32.4453ZM42.3408 59.5967C42.3408 60.7578 41.396 61.7027 40.2349 61.7027H35.874C34.7129 61.7027 33.7686 60.7578 33.7686 59.5967V36.4565C33.7686 35.2954 34.7129 34.3506 35.874 34.3506H40.2349C41.396 34.3506 42.3408 35.2954 42.3408 36.4565V59.5967Z" fill="url(#paint2_linear_410_3922)"/>
    <path d="M63.5558 13.7969L56.8248 2.13867C56.2326 1.11279 55.1715 0.5 53.9865 0.5C52.8019 0.5 51.7404 1.11279 51.1481 2.13867L44.4171 13.7969C43.8248 14.8233 43.8248 16.0483 44.4171 17.0742C45.0099 18.1006 46.0709 18.7129 47.2555 18.7129H47.795V22.8096C47.795 23.336 48.2218 23.7622 48.7477 23.7622C49.2741 23.7622 49.7003 23.336 49.7003 22.8096V17.7608C49.7003 17.2344 49.2741 16.8081 48.7477 16.8081H47.2555C46.7594 16.8081 46.3151 16.5513 46.067 16.1216C45.819 15.6919 45.819 15.1792 46.067 14.7495L52.798 3.09131C53.046 2.66162 53.4904 2.40527 53.9865 2.40527C54.4826 2.40527 54.9269 2.66162 55.1749 3.09131L61.9059 14.7495C62.1539 15.1792 62.1539 15.6919 61.9059 16.1216C61.6578 16.5513 61.2135 16.8081 60.7174 16.8081H59.2252C58.6989 16.8081 58.2726 17.2344 58.2726 17.7608V59.5967C58.2726 60.7578 57.3283 61.7027 56.1666 61.7027H51.8063C50.6451 61.7027 49.7003 60.7578 49.7003 59.5967V26.6201C49.7003 26.0938 49.2741 25.6675 48.7477 25.6675C48.2218 25.6675 47.795 26.0938 47.795 26.6201V59.5967C47.795 61.8086 49.5944 63.6075 51.8063 63.6075H56.1666C58.3785 63.6075 60.1779 61.8086 60.1779 59.5967V18.7129H60.7174C61.9025 18.7129 62.9635 18.1001 63.5558 17.0742C64.1481 16.0483 64.1481 14.8228 63.5558 13.7969Z" fill="url(#paint3_linear_410_3922)"/>
  </g>
  <defs>
    <linearGradient id="paint0_linear_410_3922" x1="2.49685" y1="56.271" x2="6.21015" y2="56.2806" gradientUnits="userSpaceOnUse">
      <stop stop-color="#DC1A5D"/>
      <stop offset="0.666667" stop-color="#AB0747"/>
      <stop offset="1" stop-color="#C2004F"/>
    </linearGradient>
    <linearGradient id="paint1_linear_410_3922" x1="18.429" y1="52.565" x2="22.1423" y2="52.5713" gradientUnits="userSpaceOnUse">
      <stop stop-color="#DC1A5D"/>
      <stop offset="0.666667" stop-color="#AB0747"/>
      <stop offset="1" stop-color="#C2004F"/>
    </linearGradient>
    <linearGradient id="paint2_linear_410_3922" x1="34.3601" y1="48.0264" x2="38.0734" y2="48.0309" gradientUnits="userSpaceOnUse">
      <stop stop-color="#DC1A5D"/>
      <stop offset="0.666667" stop-color="#AB0747"/>
      <stop offset="1" stop-color="#C2004F"/>
    </linearGradient>
    <linearGradient id="paint3_linear_410_3922" x1="48.0113" y1="32.0537" x2="54.0172" y2="32.0596" gradientUnits="userSpaceOnUse">
      <stop stop-color="#DC1A5D"/>
      <stop offset="0.666667" stop-color="#AB0747"/>
      <stop offset="1" stop-color="#C2004F"/>
    </linearGradient>
    <clipPath id="clip0_410_3922">
      <rect width="64" height="64" fill="white"/>
    </clipPath>
  </defs>
</svg>