<svg xmlns="http://www.w3.org/2000/svg" width="64" height="64" viewBox="0 0 64 64" fill="none">
  <g clip-path="url(#clip0_410_3933)">
    <path d="M62.4756 29.3814C63.87 28.0054 64.3531 25.9957 63.7364 24.1364C63.1195 22.2771 61.5311 20.9546 59.591 20.6848C58.9665 20.5989 58.3869 21.0346 58.2999 21.6607C58.2129 22.2867 58.6497 22.8648 59.2757 22.9518C60.363 23.1028 61.2184 23.8153 61.5641 24.8571C61.9099 25.8991 61.6497 26.9816 60.8682 27.7526L50.4721 38.0112C49.2748 39.1925 48.7358 40.8865 49.0306 42.5423L51.5876 56.9221C51.7799 58.0029 51.3669 59.0364 50.4826 59.6871C49.5983 60.338 48.4888 60.4247 47.5139 59.92L34.5448 53.2029C33.0512 52.4295 31.2737 52.4401 29.7902 53.232L16.9043 60.1076C15.9356 60.6244 14.8249 60.551 13.9328 59.9111C13.0407 59.2714 12.6149 58.2426 12.7938 57.1599L15.1747 42.7498C15.4491 41.0905 14.8893 39.4033 13.6777 38.2368L3.15672 28.1062C2.36584 27.3448 2.09247 26.2657 2.42547 25.2196C2.75822 24.1734 3.60484 23.4506 4.69034 23.2861L19.1309 21.0973C20.7936 20.8453 22.2252 19.7916 22.9606 18.2791L29.3442 5.14223C29.8239 4.15485 30.7655 3.56148 31.8634 3.55486C31.8697 3.55486 31.8759 3.55486 31.8823 3.55486C32.972 3.55486 33.9132 4.13573 34.4022 5.11148L40.9463 18.1688C41.6996 19.6723 43.144 20.7083 44.8099 20.9399L48.3268 21.4289C48.9519 21.5163 49.5309 21.0792 49.6179 20.4531C49.7049 19.8271 49.268 19.249 48.642 19.162L45.1251 18.673C44.2055 18.5451 43.4081 17.9732 42.9923 17.1433L36.4479 4.08598C35.575 2.34436 33.8274 1.26624 31.8814 1.26624C31.8708 1.26624 31.8598 1.26624 31.849 1.26624C29.89 1.27824 28.1414 2.38036 27.2853 4.14223L20.9019 17.279C20.4961 18.114 19.7057 18.6956 18.7879 18.8348L4.34709 21.0232C2.41022 21.3167 0.838221 22.6588 0.244222 24.5254C-0.349777 26.3922 0.157972 28.3959 1.56909 29.7544L12.0901 39.885C12.7589 40.529 13.0678 41.4604 12.9164 42.3763L10.5358 56.7866C10.2165 58.7194 11.0072 60.6294 12.5988 61.7709C13.4896 62.4097 14.5276 62.7337 15.5719 62.7337C16.3941 62.7337 17.2202 62.533 17.9813 62.1267L30.8673 55.2511C31.686 54.8139 32.6674 54.8078 33.4919 55.2351L46.461 61.9522C48.2001 62.8527 50.2608 62.6916 51.8389 61.5302C53.4165 60.3691 54.1835 58.4496 53.8404 56.5211L51.2832 42.1413C51.1208 41.2272 51.4181 40.2922 52.0791 39.64L62.4756 29.3814Z" fill="url(#paint0_linear_410_3933)"/>
    <path d="M56.6705 20.2785L55.9086 20.1727C55.2839 20.0868 54.7046 20.5224 54.6175 21.1485C54.5305 21.7744 54.9675 22.3525 55.5934 22.4397L56.3552 22.5455C56.4087 22.553 56.4617 22.5565 56.5143 22.5565C57.0765 22.5565 57.5667 22.1422 57.6463 21.5697C57.7333 20.9437 57.2965 20.3655 56.6705 20.2785Z" fill="url(#paint1_linear_410_3933)"/>
  </g>
  <defs>
    <linearGradient id="paint0_linear_410_3933" x1="12.9054" y1="32" x2="32.0981" y2="32.0613" gradientUnits="userSpaceOnUse">
      <stop stop-color="#DC1A5D"/>
      <stop offset="0.666667" stop-color="#AB0747"/>
      <stop offset="1" stop-color="#C2004F"/>
    </linearGradient>
    <linearGradient id="paint1_linear_410_3933" x1="55.2217" y1="21.3592" x2="56.1366" y2="21.3628" gradientUnits="userSpaceOnUse">
      <stop stop-color="#DC1A5D"/>
      <stop offset="0.666667" stop-color="#AB0747"/>
      <stop offset="1" stop-color="#C2004F"/>
    </linearGradient>
    <clipPath id="clip0_410_3933">
      <rect width="64" height="64" fill="white"/>
    </clipPath>
  </defs>
</svg>