<svg xmlns="http://www.w3.org/2000/svg" width="64" height="64" viewBox="0 0 64 64" fill="none">
  <path d="M58.4498 51.4756C56.8824 52.6365 55.0195 53.25 53.0625 53.25H10.9375C5.94038 53.25 1.875 49.1846 1.875 44.1875V19.8125C1.875 14.8154 5.94038 10.75 10.9375 10.75H12.0481C12.566 10.75 12.9856 10.3303 12.9856 9.8125C12.9856 9.29475 12.566 8.875 12.0481 8.875H10.9375C4.9065 8.875 0 13.7815 0 19.8125V44.1875C0 50.2185 4.9065 55.125 10.9375 55.125H53.0625C55.4243 55.125 57.673 54.3841 59.5656 52.9825C59.9816 52.6744 60.0691 52.0872 59.761 51.6711C59.4529 51.255 58.8656 51.1674 58.4498 51.4756Z" fill="#DC1A5D"/>
  <path d="M53.0625 8.875H16.0481C15.5302 8.875 15.1106 9.29475 15.1106 9.8125C15.1106 10.3303 15.5302 10.75 16.0481 10.75H53.0625C58.0596 10.75 62.125 14.8154 62.125 19.8125V44.1875C62.125 45.8099 61.6915 47.4011 60.8713 48.7895C60.6081 49.2353 60.756 49.8103 61.2018 50.0735C61.3515 50.162 61.5157 50.2039 61.6778 50.2039C61.9985 50.2039 62.311 50.0392 62.486 49.743C63.4765 48.0661 64 46.145 64 44.1875V19.8125C64 13.7815 59.0935 8.875 53.0625 8.875Z" fill="#DC1A5D"/>
  <path d="M24.5686 38.5144C24.0507 38.5144 23.6311 38.9342 23.6311 39.4519V40.6938C23.6311 41.5799 24.0919 42.369 24.8634 42.8047C25.2387 43.0167 25.6476 43.1224 26.0561 43.1224C26.4872 43.1224 26.9177 43.0047 27.3074 42.7695L41.72 34.0758C42.4539 33.633 42.892 32.857 42.892 32C42.892 31.143 42.4539 30.367 41.72 29.9243L27.3074 21.2305C26.5487 20.773 25.6349 20.7598 24.8634 21.1954C24.0917 21.631 23.6311 22.4202 23.6311 23.3063V35.4808C23.6311 35.9985 24.0507 36.4183 24.5686 36.4183C25.0865 36.4183 25.5061 35.9985 25.5061 35.4808V23.3063C25.5061 23.017 25.7014 22.8755 25.7852 22.828C25.8691 22.7808 26.0911 22.6865 26.3389 22.8359L40.7515 31.5297C40.9911 31.6743 41.017 31.9067 41.017 31.9999C41.017 32.0932 40.9911 32.3255 40.7515 32.4702L26.3389 41.1639C26.0912 41.3135 25.869 41.2192 25.7852 41.1719C25.7012 41.1245 25.5061 40.983 25.5061 40.6937V39.4518C25.5061 38.9342 25.0864 38.5144 24.5686 38.5144Z" fill="#DC1A5D"/>
</svg>