<svg xmlns="http://www.w3.org/2000/svg" width="64" height="64" viewBox="0 0 64 64" fill="none">
  <path d="M30.8433 44.0418H33.1567C33.6753 44.0418 34.0957 43.6214 34.0957 43.1028C34.0957 42.5842 33.6753 42.1638 33.1567 42.1638H30.8433C30.3247 42.1638 29.9043 42.5842 29.9043 43.1028C29.9043 43.6214 30.3248 44.0418 30.8433 44.0418Z" fill="url(#paint0_linear_134_9276)"/>
  <path d="M61.9531 4.66565H2.04688C0.91825 4.66565 0 5.58377 0 6.71252V45.4668C0 46.5954 0.91825 47.5136 2.04688 47.5136H25.1505V57.4565H20.3232C19.8046 57.4565 19.3843 57.8769 19.3843 58.3955C19.3843 58.9141 19.8046 59.3345 20.3232 59.3345H43.6768C44.1954 59.3345 44.6157 58.9141 44.6157 58.3955C44.6157 57.8769 44.1954 57.4565 43.6768 57.4565H38.8494V54.5903C38.8494 54.0716 38.429 53.6513 37.9104 53.6513C37.3918 53.6513 36.9714 54.0716 36.9714 54.5903V57.4565H35.1012V52.9474C35.1012 51.2373 33.71 49.846 31.9999 49.846C30.2897 49.846 28.8985 51.2373 28.8985 52.9474V57.4565H27.0284V47.5136H36.9712V50.1434C36.9712 50.662 37.3916 51.0824 37.9103 51.0824C38.4289 51.0824 38.8493 50.662 38.8493 50.1434V47.5136H61.953C63.0816 47.5136 63.9999 46.5954 63.9999 45.4668V6.71252C64 5.58377 63.0817 4.66565 61.9531 4.66565ZM30.7766 52.9474C30.7766 52.2728 31.3254 51.724 32 51.724C32.6746 51.724 33.2234 52.2728 33.2234 52.9474V57.4565H30.7768V52.9474H30.7766ZM62.122 45.4666C62.122 45.5598 62.0462 45.6355 61.9531 45.6355H2.04688C1.95375 45.6355 1.878 45.5598 1.878 45.4666V40.5701H62.122V45.4666ZM62.122 38.6921H1.878V13.1659H62.122V38.6921ZM62.122 11.2879H1.878V6.71252C1.878 6.6194 1.95375 6.54365 2.04688 6.54365H61.9531C62.0462 6.54365 62.122 6.6194 62.122 6.71252V11.2879Z" fill="url(#paint1_linear_134_9276)"/>
  <path d="M25.4062 35.485H38.5937C40.8015 35.485 42.5976 33.6889 42.5976 31.4812V20.3769C42.5976 18.1692 40.8015 16.373 38.5937 16.373H31.6081C31.0895 16.373 30.6691 16.7934 30.6691 17.312C30.6691 17.8307 31.0895 18.251 31.6081 18.251H38.5937C39.7658 18.251 40.7196 19.2047 40.7196 20.3769V31.4812C40.7196 32.6533 39.766 33.607 38.5937 33.607H25.4062C24.2341 33.607 23.2803 32.6534 23.2803 31.4812V20.3769C23.2803 19.2048 24.234 18.251 25.4062 18.251H27.1577C27.6763 18.251 28.0967 17.8307 28.0967 17.312C28.0967 16.7934 27.6763 16.373 27.1577 16.373H25.4062C23.1985 16.373 21.4023 18.1692 21.4023 20.3769V31.4812C21.4023 33.6889 23.1986 35.485 25.4062 35.485Z" fill="url(#paint2_linear_134_9276)"/>
  <path d="M27.6953 28.735C27.6953 29.4127 28.0457 30.0196 28.6327 30.3585C28.9262 30.5278 29.2479 30.6126 29.5698 30.6126C29.8917 30.6126 30.2137 30.5278 30.5071 30.3583L35.3674 27.5523C35.9543 27.2135 36.3047 26.6066 36.3047 25.9288C36.3047 25.2512 35.9543 24.6443 35.3674 24.3056L30.5072 21.4995C29.9203 21.1606 29.2194 21.1607 28.6326 21.4995C28.0457 21.8383 27.6953 22.4452 27.6953 23.1228V28.735ZM34.4233 25.929L29.5734 28.735L29.5682 23.1258L34.4233 25.929Z" fill="url(#paint3_linear_134_9276)"/>
  <path d="M5.86668 9.84287C6.37853 9.7599 6.72621 9.27769 6.64323 8.76584C6.56025 8.25399 6.07805 7.90631 5.5662 7.98929C5.05434 8.07226 4.70667 8.55447 4.78964 9.06632C4.87262 9.57817 5.35482 9.92585 5.86668 9.84287Z" fill="url(#paint4_linear_134_9276)"/>
  <path d="M9.68119 9.85481C10.1998 9.85481 10.6202 9.4344 10.6202 8.91581C10.6202 8.39721 10.1998 7.97681 9.68119 7.97681C9.16259 7.97681 8.74219 8.39721 8.74219 8.91581C8.74219 9.4344 9.16259 9.85481 9.68119 9.85481Z" fill="url(#paint5_linear_134_9276)"/>
  <path d="M13.6438 9.85481C14.1624 9.85481 14.5828 9.4344 14.5828 8.91581C14.5828 8.39721 14.1624 7.97681 13.6438 7.97681C13.1252 7.97681 12.7048 8.39721 12.7048 8.91581C12.7048 9.4344 13.1252 9.85481 13.6438 9.85481Z" fill="url(#paint6_linear_134_9276)"/>
  <defs>
    <linearGradient id="paint0_linear_134_9276" x1="30.7495" y1="43.1028" x2="32.0064" y2="43.1114" gradientUnits="userSpaceOnUse">
      <stop stop-color="#DC1A5D"/>
      <stop offset="0.666667" stop-color="#DB1C77"/>
      <stop offset="1" stop-color="#D721C4"/>
    </linearGradient>
    <linearGradient id="paint1_linear_134_9276" x1="12.9053" y1="32.0001" x2="32.0979" y2="32.0691" gradientUnits="userSpaceOnUse">
      <stop stop-color="#DC1A5D"/>
      <stop offset="0.666667" stop-color="#DB1C77"/>
      <stop offset="1" stop-color="#D721C4"/>
    </linearGradient>
    <linearGradient id="paint2_linear_134_9276" x1="25.6763" y1="25.9291" x2="32.0324" y2="25.9507" gradientUnits="userSpaceOnUse">
      <stop stop-color="#DC1A5D"/>
      <stop offset="0.666667" stop-color="#DB1C77"/>
      <stop offset="1" stop-color="#D721C4"/>
    </linearGradient>
    <linearGradient id="paint3_linear_134_9276" x1="29.4314" y1="25.929" x2="32.0132" y2="25.9363" gradientUnits="userSpaceOnUse">
      <stop stop-color="#DC1A5D"/>
      <stop offset="0.666667" stop-color="#DB1C77"/>
      <stop offset="1" stop-color="#D721C4"/>
    </linearGradient>
    <linearGradient id="paint4_linear_134_9276" x1="5.16341" y1="9.00573" x2="5.71955" y2="8.91733" gradientUnits="userSpaceOnUse">
      <stop stop-color="#DC1A5D"/>
      <stop offset="0.666667" stop-color="#DB1C77"/>
      <stop offset="1" stop-color="#D721C4"/>
    </linearGradient>
    <linearGradient id="paint5_linear_134_9276" x1="9.12088" y1="8.91581" x2="9.68406" y2="8.91754" gradientUnits="userSpaceOnUse">
      <stop stop-color="#DC1A5D"/>
      <stop offset="0.666667" stop-color="#DB1C77"/>
      <stop offset="1" stop-color="#D721C4"/>
    </linearGradient>
    <linearGradient id="paint6_linear_134_9276" x1="13.0835" y1="8.91581" x2="13.6467" y2="8.91754" gradientUnits="userSpaceOnUse">
      <stop stop-color="#DC1A5D"/>
      <stop offset="0.666667" stop-color="#DB1C77"/>
      <stop offset="1" stop-color="#D721C4"/>
    </linearGradient>
  </defs>
</svg>