<svg xmlns="http://www.w3.org/2000/svg" width="64" height="64" viewBox="0 0 64 64" fill="none">
  <g clip-path="url(#clip0_410_3931)">
    <path d="M23.6251 59.1112C45.3813 65.8369 65.8314 45.381 59.1162 23.6238C60.0076 22.0118 60.7947 20.4239 61.4648 18.8735C61.6702 18.3983 61.4515 17.8464 60.9763 17.6411C60.5011 17.436 59.9494 17.6544 59.7439 18.1297C59.0578 19.7171 58.2445 21.3461 57.318 23.0017C57.3062 23.0196 57.2931 23.0363 57.2825 23.0552C43.5778 47.4099 11.7215 68.4963 3.61064 60.3867C0.683788 57.4598 1.49509 50.9434 5.73894 42.7511C6.01654 43.4298 6.36975 44.1985 6.67948 44.811C4.04497 50.2395 3.70888 54.159 5.71182 56.1618C12.703 63.1531 41.1796 40.5194 52.9911 21.0746C55.5004 16.9438 59.5761 9.11838 56.1657 5.70795C54.1627 3.70488 50.2433 4.04098 44.815 6.6756C44.182 6.35539 43.3835 5.99192 42.755 5.73507C50.9472 1.49109 57.4637 0.679793 60.3904 3.60677C62.9058 6.12216 62.2286 10.7107 61.2175 14.1174C61.0703 14.6137 61.3532 15.1354 61.8496 15.2828C62.3459 15.43 62.8677 15.1473 63.0149 14.6509C64.6725 9.06576 64.2235 4.78841 61.7162 2.28114C57.9363 -1.49875 50.172 -0.547092 40.3787 4.88277C18.9015 -1.75048 -1.93272 18.2636 4.88664 40.3751C-0.543097 50.1681 -1.49488 57.9325 2.28501 61.7123C7.24892 66.6763 17.4817 62.5121 23.6251 59.1112ZM57.7982 25.8981C58.5866 29.1741 58.7453 32.4683 58.3105 35.656L50.0127 43.9537C48.2288 45.7377 45.8578 46.7703 43.3367 46.8615L40.1185 46.9778C46.7158 40.9341 53.182 33.5183 57.7982 25.8981ZM37.9243 48.9331L43.4043 48.735C46.4006 48.6268 49.2184 47.3995 51.3384 45.2794L57.5965 39.0213C54.0374 51.8716 40.5913 61.333 25.8972 57.7933C30.0852 55.2549 34.1741 52.1827 37.9243 48.9331ZM7.03757 54.8362C5.81168 53.6103 6.10278 50.7365 7.81062 46.8337C9.62582 49.7849 11.9426 52.3178 14.4645 54.3054C10.8747 55.7816 8.20208 56.0004 7.03757 54.8362ZM7.89986 43.0211L14.606 36.3151C15.6804 35.2407 17.0216 34.4557 18.4847 34.0453C20.1765 33.5708 21.7344 35.1279 21.2596 36.8201C20.8491 38.2834 20.0643 39.6246 18.9898 40.6992L11.2354 48.4536C9.8953 46.7682 8.79603 44.9844 7.89986 43.0211ZM54.8401 7.0337C56.0043 8.19796 55.7855 10.8707 54.3091 14.4606C52.2818 11.8881 49.7553 9.60121 46.8376 7.80662C50.7403 6.09878 53.6141 5.80769 54.8401 7.0337ZM46.7216 12.6797L47.4558 10.4702C48.6978 11.3655 49.8582 12.3543 50.9777 13.5037L48.1323 14.2063C47.7066 14.3113 47.2742 14.1819 46.9763 13.8596C46.6784 13.5372 46.5832 13.0961 46.7216 12.6797ZM45.8382 9.39273L44.9425 12.0885C44.5855 13.1629 44.831 14.3005 45.5994 15.1319C46.3679 15.9634 47.4828 16.2977 48.5818 16.0264L52.4003 15.0836C52.7569 15.5125 53.1015 15.9517 53.4306 16.4028C53.0154 17.2482 52.6117 18.0002 52.1623 18.7891L41.5711 21.7424C39.5815 22.2973 37.7579 23.3624 36.2977 24.8228L35.0594 26.0612C34.6934 26.4273 34.6933 27.0208 35.0596 27.3868C35.4255 27.753 36.0191 27.7529 36.3852 27.3868L37.6234 26.1484C38.856 24.9158 40.3953 24.0166 42.0747 23.5484L50.7512 21.129C43.4335 32.6569 28.8215 47.0692 17.0456 53.1065L25.4521 44.7C26.9462 43.2058 28.0237 41.3369 28.5683 39.2952L29.3536 36.3502C29.8133 34.6266 30.7228 33.049 31.984 31.7879L33.2764 30.4955C33.6424 30.1294 33.6424 29.5358 33.2762 29.1699C32.9103 28.8037 32.3167 28.8038 31.9506 29.1699L30.6582 30.4622C29.1642 31.9562 28.0867 33.8252 27.542 35.8671L26.7567 38.8121C26.2971 40.5354 25.3877 42.113 24.1263 43.3743L15.0967 52.4039C14.1609 51.6266 13.2787 50.7823 12.4566 49.8843L20.3158 42.0249C21.6172 40.7235 22.5679 39.0989 23.0651 37.3267C23.9347 34.2259 21.0803 31.37 17.9787 32.2403C16.2065 32.7374 14.5819 33.6881 13.2804 34.9896L7.12681 41.1427C6.64423 39.8282 6.28189 38.5502 5.99991 37.1622L10.8737 32.2886C13.3087 29.8534 16.5434 28.4051 19.982 28.2103C23.8809 27.9897 27.5489 26.3474 30.3103 23.586L38.067 15.8292C40.3203 13.5758 41.8217 10.7488 42.4256 7.63039C43.6621 8.15972 44.7619 8.73229 45.8382 9.39273ZM35.4845 5.7072C34.8378 7.36304 33.8476 8.88165 32.5835 10.1457L25.523 17.2062C23.3182 19.411 20.4088 20.7402 17.3306 20.9489C13.8002 21.1884 10.465 22.711 7.93948 25.2364L5.87605 27.2998C8.30207 13.9419 21.0735 3.70676 35.4845 5.7072ZM5.49546 30.332L9.26536 26.5621C11.4702 24.3573 14.3795 23.0282 17.4576 22.8195C20.9881 22.58 24.3233 21.0574 26.8488 18.5319L33.9094 11.4713C35.4464 9.9343 36.6294 8.06747 37.3638 6.03279C38.599 6.29464 39.6375 6.59711 40.6444 6.94395C40.1562 9.82406 38.8076 12.4376 36.7414 14.5036L28.9846 22.2604C26.5495 24.6955 23.3147 26.1439 19.8762 26.3385C15.9772 26.5592 12.3093 28.2016 9.54808 30.9628L5.63057 34.8802C5.45272 33.355 5.40859 31.8347 5.49546 30.332Z" fill="url(#paint0_linear_410_3931)"/>
  </g>
  <defs>
    <linearGradient id="paint0_linear_410_3931" x1="12.9077" y1="32" x2="32.098" y2="32.0589" gradientUnits="userSpaceOnUse">
      <stop stop-color="#DC1A5D"/>
      <stop offset="0.666667" stop-color="#AB0747"/>
      <stop offset="1" stop-color="#C2004F"/>
    </linearGradient>
    <clipPath id="clip0_410_3931">
      <rect width="64" height="64" fill="white"/>
    </clipPath>
  </defs>
</svg>