<svg xmlns="http://www.w3.org/2000/svg" width="64" height="64" viewBox="0 0 64 64" fill="none">
  <g clip-path="url(#clip0_134_9374)">
    <path d="M63.7821 24.3282L52.9233 11.322C52.7452 11.1086 52.4817 10.9854 52.2037 10.9854H44.7991C44.2812 10.9854 43.8616 11.4051 43.8616 11.9229C43.8616 12.4406 44.2812 12.8604 44.7991 12.8604H50.2886L42.1017 23.4009L33.9148 12.8604H40.4197C40.9376 12.8604 41.3572 12.4406 41.3572 11.9229C41.3572 11.4051 40.9376 10.9854 40.4197 10.9854H18.583L16.4841 9.93587C16.1358 9.76174 15.8645 9.46674 15.7198 9.10524L14.1825 5.26162C14.0401 4.90562 13.6955 4.67224 13.3121 4.67224C12.9288 4.67224 12.584 4.90562 12.4417 5.26149L10.9042 9.10512C10.7596 9.46662 10.4881 9.76162 10.14 9.93574L7.84195 11.0847C7.52432 11.2435 7.3237 11.5681 7.3237 11.9232C7.3237 12.2784 7.52432 12.603 7.84195 12.7617L9.27533 13.4784L0.217825 24.3282C-0.0845499 24.6905 -0.070675 25.221 0.25045 25.5669L10.5735 36.6872C10.7582 36.8862 11.0091 36.9869 11.2608 36.9869C11.4891 36.9869 11.718 36.904 11.8985 36.7365C12.278 36.3842 12.3 35.7911 11.9477 35.4116L3.08708 25.8666H21.2021L29.9319 54.7844L24.1921 48.6007L24.7167 48.3385C25.0343 48.1797 25.235 47.8551 25.235 47.5C25.235 47.1449 25.0343 46.8202 24.7167 46.6615L22.9357 45.7709C22.7121 45.6591 22.5378 45.4697 22.445 45.2375L21.2535 42.2586C21.1111 41.9027 20.7665 41.6694 20.3831 41.6694C19.9997 41.6694 19.655 41.9027 19.5127 42.2586L19.1487 43.1686L14.941 38.6359C14.5888 38.2564 13.9956 38.2344 13.6161 38.5866C13.2366 38.9389 13.2146 39.532 13.5668 39.9115L18.3783 45.0946L18.3212 45.2374C18.2283 45.4695 18.0541 45.659 17.8305 45.7707L16.0494 46.6612C15.7318 46.8201 15.5312 47.1446 15.5312 47.4997C15.5312 47.8549 15.7318 48.1795 16.0494 48.3382L17.8305 49.2286C18.0541 49.3405 18.2283 49.5299 18.3212 49.762L19.5127 52.7409C19.6551 53.0967 19.9997 53.3301 20.3831 53.3301C20.7665 53.3301 21.1112 53.0967 21.2535 52.7409L22.445 49.762C22.4709 49.6971 22.5038 49.6361 22.5417 49.5787L31.3127 59.0279C31.4901 59.219 31.7391 59.3275 31.9998 59.3275C32.2606 59.3275 32.5094 59.2189 32.687 59.0279L49.0637 41.3865L49.4386 42.3236C49.5811 42.6795 49.9257 42.9129 50.3091 42.9129C50.6924 42.9129 51.0371 42.6795 51.1796 42.3236L52.3711 39.3446C52.4638 39.1126 52.6382 38.9231 52.8617 38.8114L54.6427 37.9209C54.9603 37.762 55.1609 37.4374 55.1609 37.0824C55.1609 36.7274 54.9603 36.4026 54.6427 36.2439L54.0926 35.9687L58.2968 31.44C58.6491 31.0605 58.6272 30.4674 58.2476 30.1151C57.8681 29.7627 57.2749 29.7849 56.9227 30.1644L52.4522 34.98C52.4208 34.9294 52.3934 34.876 52.3709 34.82L51.1795 31.8411C51.0369 31.4852 50.6923 31.2519 50.3089 31.2519C49.9256 31.2519 49.581 31.4852 49.4384 31.8411L48.247 34.8201C48.1542 35.0521 47.9798 35.2416 47.7562 35.3534L45.9752 36.2439C45.6577 36.4026 45.457 36.7272 45.457 37.0824C45.457 37.4375 45.6576 37.7621 45.9752 37.9209L47.7561 38.8112C47.9797 38.9231 48.1541 39.1125 48.2468 39.3446L48.2931 39.4602L34.0678 54.7847L42.7978 25.8666H60.9128L59.9188 26.9372C59.5667 27.3167 59.5886 27.9099 59.9682 28.2621C60.1487 28.4297 60.3774 28.5125 60.6058 28.5125C60.8574 28.5125 61.1085 28.4117 61.2932 28.2129L63.7496 25.5669C64.0706 25.221 64.0846 24.6904 63.7821 24.3282ZM48.5951 37.0306C49.2298 36.7132 49.7246 36.1755 49.9882 35.5166L50.3092 34.7139L50.6302 35.5165C50.8937 36.1755 51.3885 36.7132 52.0233 37.0306L52.1273 37.0826L52.0234 37.1345C51.3887 37.4519 50.8938 37.9896 50.6302 38.6485L50.3092 39.4512L49.9882 38.6486C49.7247 37.9896 49.2299 37.4519 48.595 37.1345L48.4911 37.0826L48.5951 37.0306ZM61.0586 23.9916H44.0168L52.2301 13.4171L61.0586 23.9916ZM10.8156 14.559C10.8483 14.6179 10.8788 14.6781 10.9041 14.7414L12.4416 18.585C12.584 18.9409 12.9286 19.1742 13.312 19.1742C13.6953 19.1742 14.0401 18.9409 14.1823 18.5849L14.7266 17.2244L19.9833 23.9916H2.9412L10.8156 14.559ZM40.1865 23.9916H23.8138L31.9998 13.4515L40.1865 23.9916ZM18.5851 12.8602H30.0848L21.8987 23.4007L15.5337 15.2069L15.72 14.7414C15.8646 14.3799 16.136 14.085 16.4842 13.9107L18.5851 12.8602ZM10.9783 11.6127C11.7377 11.2331 12.3296 10.5899 12.645 9.80149L13.312 8.13399L13.979 9.80149C14.2943 10.5899 14.8862 11.2331 15.6456 11.6127L16.2665 11.9232L15.6456 12.2337C14.8862 12.6134 14.2943 13.2566 13.979 14.045L13.312 15.7125L12.645 14.045C12.3297 13.2567 11.7377 12.6135 10.9783 12.2339L10.3575 11.9234L10.9783 11.6127ZM20.7042 49.0659L20.3831 49.8686L20.062 49.0659C19.7983 48.407 19.3037 47.8692 18.6688 47.5519L18.565 47.5L18.6688 47.448C19.3036 47.1306 19.7983 46.593 20.062 45.934L20.3831 45.1312L20.7042 45.934C20.9678 46.593 21.4626 47.1306 22.0973 47.448L22.2012 47.5L22.0973 47.5519C21.4626 47.8692 20.9678 48.4069 20.7042 49.0659ZM32 55.1469L23.1607 25.8666H40.8393L32 55.1469Z" fill="url(#paint0_linear_134_9374)"/>
  </g>
  <defs>
    <linearGradient id="paint0_linear_134_9374" x1="12.9053" y1="31.9999" x2="32.098" y2="32.0689" gradientUnits="userSpaceOnUse">
      <stop stop-color="#DC1A5D"/>
      <stop offset="0.666667" stop-color="#DB1C77"/>
      <stop offset="1" stop-color="#D721C4"/>
    </linearGradient>
    <clipPath id="clip0_134_9374">
      <rect width="64" height="64" fill="white"/>
    </clipPath>
  </defs>
</svg>