<svg xmlns="http://www.w3.org/2000/svg" width="64" height="64" viewBox="0 0 64 64" fill="none">
<g clip-path="url(#clip0_252_9763)">
<path d="M60.977 34.0773C60.2127 32.3435 58.1794 31.554 56.4458 32.3184L56.3766 32.3488C56.2627 32.399 56.148 32.4468 56.0338 32.4964V25.4197C56.0338 24.9018 55.6143 24.4822 55.0964 24.4822C54.5786 24.4822 54.159 24.9018 54.159 25.4197V33.2743C53.3664 33.5873 52.5685 33.8819 51.766 34.1603V2.32496C51.766 2.07685 51.9679 1.87486 52.2161 1.87486H53.7089C53.957 1.87486 54.159 2.07673 54.159 2.32496V21.4246C54.159 21.9424 54.5786 22.362 55.0964 22.362C55.6143 22.362 56.0338 21.9424 56.0338 21.4246V2.32496C56.0338 1.04292 54.991 0 53.709 0H52.2162C50.9342 0 49.8913 1.04292 49.8913 2.32496V2.3532H48.2795C47.7617 2.3532 47.3421 2.7728 47.3421 3.29064C47.3421 3.80847 47.7617 4.22807 48.2795 4.22807H49.8913V24.1581H14.1106V4.22794H44.2846C44.8024 4.22794 45.222 3.80835 45.222 3.29051C45.222 2.77267 44.8024 2.35308 44.2846 2.35308H14.1106V2.32483C14.1106 1.04292 13.0677 0 11.7858 0H10.2929C9.01099 0 7.96807 1.04292 7.96807 2.32496V32.4978C7.85358 32.4482 7.73871 32.3989 7.62459 32.3485L7.55785 32.3192C6.71778 31.9484 5.7836 31.9269 4.92754 32.2589C4.0716 32.5909 3.39615 33.2362 3.02543 34.0764C2.65483 34.9165 2.63345 35.8504 2.96543 36.7065C3.29728 37.5625 3.94273 38.2381 4.78205 38.6083L4.84917 38.638C8.09781 40.072 11.4217 41.2389 14.8069 42.1363L26.6046 49.3163L11.0461 58.785C10.4044 59.1756 9.95317 59.7927 9.77556 60.5225C9.59795 61.2523 9.71532 62.0078 10.1058 62.6496C10.6205 63.4952 11.5192 64 12.5099 64C13.0243 64 13.5293 63.8581 13.9703 63.5898L32.0138 52.6085L50.0574 63.5898C50.4982 63.8581 51.0032 64 51.5178 64C52.5086 64 53.4073 63.4952 53.9217 62.6496C54.3123 62.0079 54.4296 61.2524 54.2522 60.5225C54.0746 59.7926 53.6234 59.1756 52.9817 58.785L37.4233 49.3162L49.2396 42.1248C52.6091 41.229 55.9175 40.066 59.1512 38.6386L59.2182 38.6091C60.9525 37.8445 61.7416 35.8117 60.977 34.0773ZM9.84293 2.32496C9.84293 2.07685 10.0448 1.87486 10.2929 1.87486H11.7858C12.0339 1.87486 12.2358 2.07673 12.2358 2.32496V34.1582C11.4313 33.8799 10.6334 33.5851 9.84293 33.2736V2.32496ZM20.4412 43.3704C21.9854 43.6391 23.5403 43.8541 25.105 44.0138L30.2107 47.1213L28.4076 48.2188L20.4412 43.3704ZM32.0137 46.024L29.1902 44.3055C30.1242 44.3439 31.0612 44.364 32.001 44.364C32.95 44.364 33.8962 44.3434 34.8394 44.3043L32.0137 46.024ZM52.007 60.3868C52.2209 60.5169 52.3712 60.7226 52.4305 60.9658C52.4897 61.2091 52.4505 61.4609 52.3202 61.6749C52.1488 61.9569 51.8488 62.1253 51.5178 62.1253C51.3473 62.1253 51.1793 62.0779 51.0322 61.9883L33.8171 51.5112L35.6203 50.4137L52.007 60.3868ZM12.9955 61.9883C12.8483 62.0778 12.6804 62.1251 12.5099 62.1251C12.179 62.1251 11.8789 61.9568 11.7073 61.6748C11.5771 61.4609 11.5381 61.2091 11.5972 60.9657C11.6564 60.7225 11.8068 60.5168 12.0208 60.3866L38.9276 44.0108C40.4941 43.8501 42.0507 43.6339 43.5967 43.3639L12.9955 61.9883ZM58.4619 36.8933L58.3946 36.9231C50.0277 40.6166 41.1475 42.4892 32.001 42.4892C22.8544 42.4892 13.9739 40.6163 5.60674 36.9228L5.53937 36.8931C5.15765 36.7247 4.86429 36.4176 4.71343 36.0285C4.56256 35.6394 4.57231 35.2148 4.74068 34.8331C4.90916 34.4511 5.21627 34.1578 5.60536 34.0069C5.99446 33.8561 6.41881 33.8659 6.80078 34.0344L6.86752 34.0639C10.2203 35.5438 13.7343 36.7333 17.312 37.5995C17.8155 37.7213 18.3219 37.4122 18.4437 36.9091C18.5654 36.406 18.2563 35.8993 17.7531 35.7774C16.5297 35.4812 15.3143 35.1452 14.1105 34.7725V26.033H49.8912V34.7774C40.7854 37.606 31.1341 38.2356 21.6161 36.5804C21.1056 36.4912 20.6207 36.833 20.5319 37.3433C20.4433 37.8534 20.7848 38.3389 21.2949 38.4275C24.8758 39.0503 28.4741 39.3597 32.0577 39.3597C40.6633 39.3594 49.1797 37.5753 57.1326 34.0645L57.2013 34.0344C57.99 33.6878 58.9139 34.0455 59.2612 34.8339C59.6088 35.6218 59.2502 36.546 58.4619 36.8933Z" fill="#DC1A5D"/>
</g>
<defs>
<clipPath id="clip0_252_9763">
<rect width="64" height="64" fill="white"/>
</clipPath>
</defs>
</svg>