<svg xmlns="http://www.w3.org/2000/svg" width="64" height="64" viewBox="0 0 64 64" fill="none">
  <g clip-path="url(#clip0_134_9288)">
    <path d="M60.9769 34.0773C60.2125 32.3435 58.1793 31.554 56.4457 32.3184L56.3764 32.3488C56.2626 32.399 56.1478 32.4468 56.0337 32.4964V25.4197C56.0337 24.9018 55.6141 24.4822 55.0963 24.4822C54.5785 24.4822 54.1589 24.9018 54.1589 25.4197V33.2743C53.3663 33.5873 52.5683 33.8819 51.7659 34.1603V2.32496C51.7659 2.07685 51.9678 1.87486 52.216 1.87486H53.7088C53.9569 1.87486 54.1589 2.07673 54.1589 2.32496V21.4246C54.1589 21.9424 54.5785 22.362 55.0963 22.362C55.6141 22.362 56.0337 21.9424 56.0337 21.4246V2.32496C56.0337 1.04292 54.9909 0 53.7089 0H52.2161C50.9341 0 49.8912 1.04292 49.8912 2.32496V2.3532H48.2794C47.7616 2.3532 47.342 2.7728 47.342 3.29064C47.342 3.80847 47.7616 4.22807 48.2794 4.22807H49.8912V24.1581H14.1105V4.22794H44.2844C44.8023 4.22794 45.2219 3.80835 45.2219 3.29051C45.2219 2.77267 44.8023 2.35308 44.2844 2.35308H14.1105V2.32483C14.1105 1.04292 13.0676 0 11.7857 0H10.2928C9.01087 0 7.96795 1.04292 7.96795 2.32496V32.4978C7.85345 32.4482 7.73859 32.3989 7.62447 32.3485L7.55773 32.3192C6.71766 31.9484 5.78348 31.9269 4.92742 32.2589C4.07148 32.5909 3.39603 33.2362 3.0253 34.0764C2.65471 34.9165 2.63333 35.8504 2.96531 36.7065C3.29716 37.5625 3.94261 38.2381 4.78193 38.6083L4.84905 38.638C8.09769 40.072 11.4216 41.2389 14.8068 42.1363L26.6045 49.3163L11.046 58.785C10.4043 59.1756 9.95305 59.7927 9.77544 60.5225C9.59783 61.2523 9.71519 62.0078 10.1057 62.6496C10.6204 63.4952 11.5191 64 12.5097 64C13.0242 64 13.5292 63.8581 13.9701 63.5898L32.0137 52.6085L50.0573 63.5898C50.4981 63.8581 51.0031 64 51.5177 64C52.5085 64 53.4072 63.4952 53.9216 62.6496C54.3122 62.0079 54.4295 61.2524 54.2521 60.5225C54.0745 59.7926 53.6233 59.1756 52.9816 58.785L37.4232 49.3162L49.2395 42.1248C52.609 41.229 55.9174 40.066 59.1511 38.6386L59.2181 38.6091C60.9524 37.8445 61.7414 35.8117 60.9769 34.0773ZM9.84281 2.32496C9.84281 2.07685 10.0447 1.87486 10.2928 1.87486H11.7857C12.0338 1.87486 12.2356 2.07673 12.2356 2.32496V34.1582C11.4312 33.8799 10.6333 33.5851 9.84281 33.2736V2.32496ZM20.441 43.3704C21.9853 43.6391 23.5402 43.8541 25.1048 44.0138L30.2106 47.1213L28.4075 48.2188L20.441 43.3704ZM32.0136 46.024L29.19 44.3055C30.1241 44.3439 31.061 44.364 32.0008 44.364C32.9499 44.364 33.8961 44.3434 34.8393 44.3043L32.0136 46.024ZM52.0069 60.3868C52.2207 60.5169 52.3711 60.7226 52.4304 60.9658C52.4896 61.2091 52.4504 61.4609 52.3201 61.6749C52.1486 61.9569 51.8486 62.1253 51.5177 62.1253C51.3472 62.1253 51.1792 62.0779 51.0321 61.9883L33.817 51.5112L35.6202 50.4137L52.0069 60.3868ZM12.9953 61.9883C12.8482 62.0778 12.6802 62.1251 12.5097 62.1251C12.1789 62.1251 11.8788 61.9568 11.7072 61.6748C11.5769 61.4609 11.5379 61.2091 11.5971 60.9657C11.6563 60.7225 11.8067 60.5168 12.0207 60.3866L38.9275 44.0108C40.494 43.8501 42.0506 43.6339 43.5966 43.3639L12.9953 61.9883ZM58.4618 36.8933L58.3944 36.9231C50.0275 40.6166 41.1474 42.4892 32.0008 42.4892C22.8542 42.4892 13.9738 40.6163 5.60662 36.9228L5.53925 36.8931C5.15752 36.7247 4.86417 36.4176 4.71331 36.0285C4.56244 35.6394 4.57219 35.2148 4.74055 34.8331C4.90904 34.4511 5.21615 34.1578 5.60524 34.0069C5.99434 33.8561 6.41868 33.8659 6.80066 34.0344L6.8674 34.0639C10.2202 35.5438 13.7342 36.7333 17.3119 37.5995C17.8154 37.7213 18.3218 37.4122 18.4436 36.9091C18.5653 36.406 18.2562 35.8993 17.753 35.7774C16.5296 35.4812 15.3142 35.1452 14.1104 34.7725V26.033H49.891V34.7774C40.7853 37.606 31.134 38.2356 21.616 36.5804C21.1055 36.4912 20.6205 36.833 20.5318 37.3433C20.4432 37.8534 20.7846 38.3389 21.2947 38.4275C24.8757 39.0503 28.474 39.3597 32.0576 39.3597C40.6632 39.3594 49.1796 37.5753 57.1325 34.0645L57.2011 34.0344C57.9898 33.6878 58.9138 34.0455 59.2611 34.8339C59.6087 35.6218 59.2501 36.546 58.4618 36.8933Z" fill="white"/>
  </g>
  <defs>
    <clipPath id="clip0_134_9288">
      <rect width="64" height="64" fill="white"/>
    </clipPath>
  </defs>
</svg>