<svg width="24" height="24" viewBox="0 0 24 24" fill="none" xmlns="http://www.w3.org/2000/svg">
<g clip-path="url(#clip0_484_1023)">
<path d="M8.17969 12.0039C8.17969 12.1992 8.25781 12.3789 8.40625 12.5195L14.5938 18.582C14.7344 18.7148 14.9063 18.7852 15.1094 18.7852C15.5078 18.7852 15.8203 18.4805 15.8203 18.0742C15.8203 17.8789 15.7422 17.6992 15.6172 17.5664L9.92969 12.0039L15.6172 6.44136C15.7422 6.30856 15.8203 6.13676 15.8203 5.93356C15.8203 5.52736 15.5078 5.22266 15.1094 5.22266C14.9063 5.22266 14.7344 5.29296 14.5938 5.43356L8.40625 11.4883C8.25781 11.6367 8.17969 11.8086 8.17969 12.0039Z" fill="#DC1A5D"/>
</g>
<defs>
<clipPath id="clip0_484_1023">
<rect width="7.64062" height="13.5703" fill="white" transform="translate(15.8203 18.7852) rotate(-180)"/>
</clipPath>
</defs>
</svg>
