<svg xmlns="http://www.w3.org/2000/svg" width="23" height="23" viewBox="0 0 23 23" fill="none">
  <g clip-path="url(#clip0_252_29004)">
    <path d="M0.721654 21.9808C1.20639 22.4518 2.00965 22.4518 2.48054 21.9808L11.3442 13.1173L20.2077 21.9808C20.6787 22.4518 21.4958 22.4657 21.9666 21.9808C22.4376 21.4962 22.4376 20.7068 21.9666 20.2359L13.103 11.3584L21.9666 2.49476C22.4376 2.02387 22.4515 1.22061 21.9666 0.749725C21.482 0.264996 20.6787 0.264996 20.2077 0.749725L11.3442 9.61335L2.48054 0.749725C2.00965 0.264996 1.19253 0.251146 0.721654 0.749725C0.250773 1.23446 0.250773 2.02387 0.721654 2.49476L9.58529 11.3584L0.721654 20.2359C0.250773 20.7068 0.236924 21.51 0.721654 21.9808Z" fill="white"/>
  </g>
  <defs>
    <clipPath id="clip0_252_29004">
      <rect width="21.9618" height="21.9756" fill="white" transform="translate(0.363281 0.363647)"/>
    </clipPath>
  </defs>
</svg>