<svg width="28" height="28" viewBox="0 0 28 28" fill="none" xmlns="http://www.w3.org/2000/svg">
<rect width="28" height="28" rx="14" fill="white"/>
<path d="M18.4783 10.0623C18.3854 10.0143 18.295 9.96168 18.2074 9.90464C17.9526 9.73619 17.719 9.53771 17.5116 9.31348C16.9927 8.71974 16.7989 8.1174 16.7275 7.69568H16.7304C16.6707 7.34563 16.6954 7.11914 16.6991 7.11914H14.3356V16.2583C14.3356 16.381 14.3356 16.5023 14.3305 16.6221C14.3305 16.637 14.329 16.6508 14.3282 16.6668C14.3282 16.6734 14.3282 16.6803 14.3268 16.6872C14.3268 16.6889 14.3268 16.6906 14.3268 16.6923C14.3018 17.0203 14.1967 17.337 14.0207 17.6148C13.8446 17.8925 13.603 18.1228 13.317 18.2852C13.019 18.4547 12.682 18.5437 12.3391 18.5432C11.2379 18.5432 10.3455 17.6453 10.3455 16.5364C10.3455 15.4275 11.2379 14.5295 12.3391 14.5295C12.5476 14.5294 12.7547 14.5622 12.9529 14.6267L12.9558 12.2202C12.3541 12.1425 11.7429 12.1903 11.1606 12.3607C10.5784 12.531 10.0377 12.8202 9.57283 13.2099C9.16546 13.5639 8.82298 13.9862 8.56081 14.4579C8.46104 14.6299 8.08462 15.3211 8.03903 16.4429C8.01036 17.0797 8.20159 17.7393 8.29275 18.012V18.0177C8.35009 18.1783 8.57228 18.7261 8.93437 19.188C9.22635 19.5585 9.57131 19.8839 9.95815 20.1539V20.1481L9.96388 20.1539C11.1081 20.9314 12.3767 20.8803 12.3767 20.8803C12.5963 20.8715 13.3319 20.8803 14.1674 20.4844C15.0939 20.0455 15.6215 19.3915 15.6215 19.3915C15.9585 19.0008 16.2264 18.5555 16.4139 18.0748C16.6277 17.5126 16.6991 16.8383 16.6991 16.5688V11.7203C16.7278 11.7375 17.1097 11.99 17.1097 11.99C17.1097 11.99 17.6598 12.3427 18.5182 12.5723C19.134 12.7357 19.9637 12.7701 19.9637 12.7701V10.4238C19.673 10.4554 19.0827 10.3636 18.4783 10.0623Z" fill="#DC1A5D"/>
</svg>
