<svg xmlns="http://www.w3.org/2000/svg" width="28" height="28" viewBox="0 0 28 28" fill="none">
<rect width="28" height="28" rx="14" fill="white"/>
<path d="M20.863 10.9122C20.863 10.494 20.8278 10.0775 20.728 9.67033C20.5488 8.92869 20.1263 8.36216 19.4941 7.94607C19.1688 7.73357 18.8109 7.60309 18.4305 7.53424C18.1383 7.48111 17.8424 7.45689 17.546 7.45009C17.5239 7.44796 17.4997 7.44329 17.4751 7.44116H10.6683C10.5821 7.44796 10.4959 7.45221 10.4097 7.45646C9.98719 7.48069 9.56726 7.52489 9.16898 7.68427C8.41276 7.98305 7.86629 8.50538 7.54784 9.25807C7.43744 9.51265 7.38182 9.78253 7.34233 10.0571C7.30921 10.2785 7.29138 10.5021 7.28501 10.7256C7.28501 10.7435 7.28076 10.7609 7.28076 10.7788V17.7051C7.28501 17.785 7.28968 17.8645 7.29392 17.9444C7.3228 18.4072 7.38224 18.8654 7.57714 19.2904C7.94442 20.0941 8.56137 20.6228 9.40846 20.8774C9.64496 20.9505 9.89293 20.9836 10.1405 21.0057C10.4547 21.0368 10.7685 21.041 11.0827 21.041H17.3278C17.6241 21.041 17.9205 21.021 18.2169 20.9836C18.6835 20.9237 19.1213 20.7864 19.5174 20.5255C19.993 20.211 20.3514 19.7949 20.5811 19.2747C20.6872 19.0354 20.7471 18.7812 20.7913 18.5241C20.8554 18.1412 20.8685 17.7536 20.8685 17.3664C20.8664 15.2146 20.8685 13.0632 20.8664 10.9114L20.863 10.9122ZM17.2271 13.172V16.4084C17.2271 16.6451 17.194 16.8776 17.0879 17.0923C16.9244 17.4263 16.659 17.6367 16.3028 17.7387C16.1057 17.7961 15.9024 17.8271 15.6968 17.836C15.1593 17.8628 14.6927 17.4973 14.5975 16.966C14.5156 16.5278 14.7258 16.045 15.1856 15.8194C15.3669 15.731 15.5639 15.6778 15.7605 15.6379C15.975 15.5916 16.1894 15.5495 16.4017 15.5006C16.5588 15.4653 16.6603 15.3701 16.6913 15.2082C16.7002 15.1729 16.7023 15.1351 16.7023 15.0998C16.7023 14.0704 16.7023 13.0411 16.7023 12.0143C16.7023 11.979 16.6955 11.9433 16.687 11.9101C16.6649 11.8239 16.603 11.7728 16.5146 11.7771C16.4238 11.7813 16.3355 11.7971 16.2471 11.8149C15.8157 11.8991 15.3848 11.9854 14.9555 12.0738L12.8613 12.4966C12.8524 12.4988 12.8414 12.5034 12.8325 12.5034C12.6754 12.5476 12.6202 12.6186 12.6134 12.7822C12.6112 12.8065 12.6134 12.8311 12.6134 12.8553C12.6112 14.3297 12.6134 15.8041 12.6112 17.278C12.6112 17.5173 12.5845 17.7519 12.4898 17.9729C12.3327 18.3358 12.0542 18.5641 11.6784 18.6724C11.4793 18.7298 11.2759 18.7634 11.0678 18.7698C10.526 18.7897 10.0747 18.4289 9.9821 17.8955C9.90227 17.4352 10.1124 16.9393 10.6343 16.7178C10.8377 16.6337 11.0479 16.5873 11.2623 16.5431C11.4236 16.51 11.5875 16.4768 11.7489 16.4437C11.9654 16.3974 12.0784 16.2601 12.0894 16.0387V15.9545C12.0894 14.2766 12.0894 12.5986 12.0894 10.9207C12.0894 10.8497 12.0983 10.7792 12.1136 10.7103C12.1535 10.5488 12.2686 10.4557 12.4231 10.4179C12.5671 10.3801 12.7153 10.3537 12.8609 10.3227C13.2766 10.2386 13.6902 10.1544 14.1059 10.0724L15.3907 9.81101C15.7712 9.73578 16.1491 9.65843 16.5295 9.58321C16.6535 9.55898 16.7796 9.5322 16.9053 9.52328C17.0798 9.50798 17.2016 9.61848 17.2195 9.79571C17.2237 9.83779 17.2263 9.87986 17.2263 9.92194C17.2263 11.0044 17.2263 12.0869 17.2263 13.1694L17.2271 13.172Z" fill="#DC1A5D"/>
</svg>