<svg width="28" height="28" viewBox="0 0 28 28" fill="none" xmlns="http://www.w3.org/2000/svg">
<rect width="28" height="28" rx="14" fill="white"/>
<path d="M11.6698 14.0359C11.6698 12.7461 12.7148 11.7003 14.0042 11.7003C15.2936 11.7003 16.3391 12.7461 16.3391 14.0359C16.3391 15.3256 15.2936 16.3715 14.0042 16.3715C12.7148 16.3715 11.6698 15.3256 11.6698 14.0359ZM10.4076 14.0359C10.4076 16.0229 12.0178 17.6335 14.0042 17.6335C15.9906 17.6335 17.6008 16.0229 17.6008 14.0359C17.6008 12.0489 15.9906 10.4383 14.0042 10.4383C12.0178 10.4383 10.4076 12.0489 10.4076 14.0359ZM16.9026 10.2956C16.9026 10.4619 16.9518 10.6245 17.0441 10.7628C17.1364 10.9011 17.2676 11.0089 17.4212 11.0726C17.5748 11.1363 17.7437 11.153 17.9068 11.1206C18.0699 11.0882 18.2196 11.0082 18.3372 10.8907C18.4548 10.7732 18.5349 10.6234 18.5674 10.4603C18.5999 10.2972 18.5834 10.1282 18.5198 9.97453C18.4563 9.82088 18.3486 9.68953 18.2104 9.5971C18.0722 9.50466 17.9097 9.45528 17.7435 9.45522H17.7432C17.5203 9.45532 17.3067 9.54389 17.1491 9.70146C16.9915 9.85904 16.9028 10.0727 16.9026 10.2956ZM11.1745 19.7388C10.4916 19.7077 10.1205 19.5939 9.8738 19.4978C9.54678 19.3704 9.31346 19.2188 9.06814 18.9737C8.82283 18.7287 8.67098 18.4955 8.54423 18.1684C8.44808 17.9218 8.33433 17.5504 8.30329 16.8673C8.26933 16.1288 8.26255 15.9069 8.26255 14.0359C8.26255 12.1649 8.26989 11.9437 8.30329 11.2046C8.33438 10.5215 8.44897 10.1509 8.54423 9.9035C8.67154 9.5764 8.82317 9.34301 9.06814 9.09762C9.31312 8.85223 9.54622 8.70034 9.8738 8.57355C10.1203 8.47737 10.4916 8.36359 11.1745 8.33254C11.9128 8.29857 12.1346 8.29179 14.0042 8.29179C15.8738 8.29179 16.0958 8.29913 16.8347 8.33254C17.5176 8.36365 17.8882 8.47827 18.1354 8.57355C18.4625 8.70034 18.6958 8.85257 18.9411 9.09762C19.1864 9.34267 19.3377 9.5764 19.465 9.9035C19.5612 10.1501 19.6749 10.5215 19.706 11.2046C19.7399 11.9437 19.7467 12.1649 19.7467 14.0359C19.7467 15.9069 19.7399 16.1282 19.706 16.8673C19.6749 17.5504 19.5605 17.9216 19.465 18.1684C19.3377 18.4955 19.1861 18.7289 18.9411 18.9737C18.6961 19.2185 18.4625 19.3704 18.1354 19.4978C17.8889 19.5939 17.5176 19.7077 16.8347 19.7388C16.0964 19.7727 15.8747 19.7795 14.0042 19.7795C12.1337 19.7795 11.9126 19.7727 11.1745 19.7388ZM11.1165 7.07209C10.3709 7.10606 9.86136 7.22432 9.41639 7.39752C8.95557 7.57637 8.56547 7.81632 8.17564 8.20564C7.78582 8.59497 7.54655 8.9858 7.36775 9.44675C7.1946 9.89213 7.07637 10.4015 7.04242 11.1474C7.0079 11.8944 7 12.1332 7 14.0359C7 15.9386 7.0079 16.1774 7.04242 16.9244C7.07637 17.6703 7.1946 18.1796 7.36775 18.625C7.54655 19.0857 7.78587 19.477 8.17564 19.8661C8.56541 20.2553 8.95557 20.4949 9.41639 20.6743C9.8622 20.8474 10.3709 20.9657 11.1165 20.9997C11.8637 21.0336 12.1021 21.0421 14.0042 21.0421C15.9063 21.0421 16.1451 21.0342 16.8919 20.9997C17.6376 20.9657 18.1468 20.8474 18.592 20.6743C19.0525 20.4949 19.4429 20.2554 19.8328 19.8661C20.2226 19.4768 20.4613 19.0857 20.6407 18.625C20.8138 18.1796 20.9326 17.6703 20.966 16.9244C20.9999 16.1768 21.0078 15.9386 21.0078 14.0359C21.0078 12.1332 20.9999 11.8944 20.966 11.1474C20.932 10.4014 20.8138 9.89184 20.6407 9.44675C20.4613 8.98608 20.222 8.59558 19.8328 8.20564C19.4435 7.81571 19.0525 7.57637 18.5926 7.39752C18.1468 7.22432 17.6375 7.1055 16.8925 7.07209C16.1456 7.03813 15.9069 7.02966 14.0048 7.02966C12.1026 7.02966 11.8637 7.03757 11.1165 7.07209Z" fill="#DC1A5D"/>
<path d="M11.6698 14.0359C11.6698 12.7461 12.7148 11.7003 14.0042 11.7003C15.2936 11.7003 16.3391 12.7461 16.3391 14.0359C16.3391 15.3256 15.2936 16.3715 14.0042 16.3715C12.7148 16.3715 11.6698 15.3256 11.6698 14.0359ZM10.4076 14.0359C10.4076 16.0229 12.0178 17.6335 14.0042 17.6335C15.9906 17.6335 17.6008 16.0229 17.6008 14.0359C17.6008 12.0489 15.9906 10.4383 14.0042 10.4383C12.0178 10.4383 10.4076 12.0489 10.4076 14.0359ZM16.9026 10.2956C16.9026 10.4619 16.9518 10.6245 17.0441 10.7628C17.1364 10.9011 17.2676 11.0089 17.4212 11.0726C17.5748 11.1363 17.7437 11.153 17.9068 11.1206C18.0699 11.0882 18.2196 11.0082 18.3372 10.8907C18.4548 10.7732 18.5349 10.6234 18.5674 10.4603C18.5999 10.2972 18.5834 10.1282 18.5198 9.97453C18.4563 9.82088 18.3486 9.68953 18.2104 9.5971C18.0722 9.50466 17.9097 9.45528 17.7435 9.45522H17.7432C17.5203 9.45532 17.3067 9.54389 17.1491 9.70146C16.9915 9.85904 16.9028 10.0727 16.9026 10.2956ZM11.1745 19.7388C10.4916 19.7077 10.1205 19.5939 9.8738 19.4978C9.54678 19.3704 9.31346 19.2188 9.06814 18.9737C8.82283 18.7287 8.67098 18.4955 8.54423 18.1684C8.44808 17.9218 8.33433 17.5504 8.30329 16.8673C8.26933 16.1288 8.26255 15.9069 8.26255 14.0359C8.26255 12.1649 8.26989 11.9437 8.30329 11.2046C8.33438 10.5215 8.44897 10.1509 8.54423 9.9035C8.67154 9.5764 8.82317 9.34301 9.06814 9.09762C9.31312 8.85223 9.54622 8.70034 9.8738 8.57355C10.1203 8.47737 10.4916 8.36359 11.1745 8.33254C11.9128 8.29857 12.1346 8.29179 14.0042 8.29179C15.8738 8.29179 16.0958 8.29913 16.8347 8.33254C17.5176 8.36365 17.8882 8.47827 18.1354 8.57355C18.4625 8.70034 18.6958 8.85257 18.9411 9.09762C19.1864 9.34267 19.3377 9.5764 19.465 9.9035C19.5612 10.1501 19.6749 10.5215 19.706 11.2046C19.7399 11.9437 19.7467 12.1649 19.7467 14.0359C19.7467 15.9069 19.7399 16.1282 19.706 16.8673C19.6749 17.5504 19.5605 17.9216 19.465 18.1684C19.3377 18.4955 19.1861 18.7289 18.9411 18.9737C18.6961 19.2185 18.4625 19.3704 18.1354 19.4978C17.8889 19.5939 17.5176 19.7077 16.8347 19.7388C16.0964 19.7727 15.8747 19.7795 14.0042 19.7795C12.1337 19.7795 11.9126 19.7727 11.1745 19.7388ZM11.1165 7.07209C10.3709 7.10606 9.86136 7.22432 9.41639 7.39752C8.95557 7.57637 8.56547 7.81632 8.17564 8.20564C7.78582 8.59497 7.54655 8.9858 7.36775 9.44675C7.1946 9.89213 7.07637 10.4015 7.04242 11.1474C7.0079 11.8944 7 12.1332 7 14.0359C7 15.9386 7.0079 16.1774 7.04242 16.9244C7.07637 17.6703 7.1946 18.1796 7.36775 18.625C7.54655 19.0857 7.78587 19.477 8.17564 19.8661C8.56541 20.2553 8.95557 20.4949 9.41639 20.6743C9.8622 20.8474 10.3709 20.9657 11.1165 20.9997C11.8637 21.0336 12.1021 21.0421 14.0042 21.0421C15.9063 21.0421 16.1451 21.0342 16.8919 20.9997C17.6376 20.9657 18.1468 20.8474 18.592 20.6743C19.0525 20.4949 19.4429 20.2554 19.8328 19.8661C20.2226 19.4768 20.4613 19.0857 20.6407 18.625C20.8138 18.1796 20.9326 17.6703 20.966 16.9244C20.9999 16.1768 21.0078 15.9386 21.0078 14.0359C21.0078 12.1332 20.9999 11.8944 20.966 11.1474C20.932 10.4014 20.8138 9.89184 20.6407 9.44675C20.4613 8.98608 20.222 8.59558 19.8328 8.20564C19.4435 7.81571 19.0525 7.57637 18.5926 7.39752C18.1468 7.22432 17.6375 7.1055 16.8925 7.07209C16.1456 7.03813 15.9069 7.02966 14.0048 7.02966C12.1026 7.02966 11.8637 7.03757 11.1165 7.07209Z" fill="#DC1A5D"/>
</svg>
