<svg width="28" height="28" viewBox="0 0 28 28" fill="none" xmlns="http://www.w3.org/2000/svg">
<rect width="28" height="28" rx="14" fill="white"/>
<path fill-rule="evenodd" clip-rule="evenodd" d="M14.0042 7.02991C10.1519 7.02991 7 10.1846 7 14.0403C7 17.8961 10.1519 21.0508 14.0042 21.0508C17.8565 21.0508 21.0084 17.8961 21.0084 14.0403C21.0084 10.1846 17.8915 7.02991 14.0042 7.02991ZM17.2261 17.16C17.086 17.3703 16.8409 17.4404 16.6308 17.3002C14.9848 16.2837 12.9185 16.0734 10.4671 16.6342C10.2219 16.7043 10.0118 16.529 9.94176 16.3187C9.87172 16.0734 10.0468 15.863 10.257 15.7929C12.9185 15.1971 15.2299 15.4424 17.051 16.5641C17.2962 16.6692 17.3312 16.9497 17.2261 17.16ZM18.0666 15.2321C17.8915 15.4775 17.5763 15.5826 17.3312 15.4074C15.4401 14.2506 12.5683 13.9001 10.362 14.6012C10.0818 14.6713 9.76666 14.5311 9.69662 14.2506C9.62657 13.9702 9.76666 13.6548 10.0468 13.5847C12.6034 12.8135 15.7552 13.1991 17.9265 14.5311C18.1367 14.6362 18.2417 14.9867 18.0666 15.2321ZM18.1367 13.2692C15.8953 11.9372 12.1481 11.797 10.0118 12.463C9.6616 12.5681 9.31139 12.3578 9.20632 12.0424C9.10126 11.6918 9.31139 11.3413 9.62657 11.2362C12.1131 10.5001 16.2105 10.6403 18.8021 12.1826C19.1173 12.3578 19.2223 12.7785 19.0472 13.0939C18.8721 13.3393 18.4519 13.4444 18.1367 13.2692Z" fill="#DC1A5D"/>
</svg>
