<svg xmlns="http://www.w3.org/2000/svg" width="28" height="28" viewBox="0 0 28 28" fill="none">
<rect width="28" height="28" rx="14" fill="white"/>
<path d="M21.7876 10.1488C21.6047 9.46148 21.0639 8.9193 20.3759 8.73348C19.1318 8.40002 14.1402 8.40002 14.1402 8.40002C14.1402 8.40002 9.15107 8.40002 7.90443 8.73348C7.21891 8.91675 6.67811 9.45893 6.49276 10.1488C6.16016 11.396 6.16016 14 6.16016 14C6.16016 14 6.16016 16.604 6.49276 17.8513C6.67557 18.5386 7.21637 19.0808 7.90443 19.2666C9.15107 19.6 14.1402 19.6 14.1402 19.6C14.1402 19.6 19.1318 19.6 20.3759 19.2666C21.0614 19.0833 21.6022 18.5411 21.7876 17.8513C22.1202 16.604 22.1202 14 22.1202 14C22.1202 14 22.1202 11.396 21.7876 10.1488Z" fill="#DC1A5D"/>
<path d="M12.5457 16.4004L16.6918 14L12.5457 11.5997V16.4004Z" fill="white"/>
</svg>
