<svg xmlns="http://www.w3.org/2000/svg" width="64" height="64" viewBox="0 0 64 64" fill="none">
  <path d="M59.9123 51.4276H59.5165V21.4373C59.5165 20.2385 58.5412 19.2632 57.3424 19.2632H55.9548C57.6035 17.4571 59.1574 15.5643 60.6037 13.5914L61.2225 14.0499C61.709 14.4103 62.3492 14.47 62.8938 14.2054C63.4383 13.9411 63.7875 13.4008 63.805 12.7958L63.9992 6.0945C64.0145 5.56547 63.7697 5.06146 63.3444 4.74647C62.9191 4.43148 62.3658 4.34442 61.8643 4.51317L55.5104 6.65129C54.9369 6.84419 54.5218 7.33544 54.4274 7.93327C54.3329 8.5311 54.5763 9.12642 55.0628 9.48695L56.0799 10.2403C55.1617 11.494 54.1885 12.7249 53.1794 13.9088C52.8431 14.3031 52.8904 14.8953 53.2847 15.2314C53.6789 15.5674 54.2711 15.5204 54.6074 15.126C55.8517 13.6662 57.0428 12.137 58.1477 10.5808C58.4433 10.1642 58.3515 9.58777 57.9411 9.28379L56.5759 8.2724L62.1128 6.40923L61.9434 12.2488L60.9574 11.5184C60.755 11.3684 60.5007 11.3056 60.2519 11.3456C60.0031 11.385 59.7805 11.523 59.6344 11.7283C53.4798 20.3778 45.239 27.5233 35.8028 32.3925C26.3595 37.2653 15.7517 39.8409 5.12614 39.8409H2.81464C2.29725 39.8409 1.87643 39.4201 1.87643 38.9027C1.87643 38.3853 2.29725 37.9645 2.81464 37.9645H5.12639C13.9351 37.9645 22.5092 36.2141 30.6106 32.7619C38.6506 29.3359 45.8048 24.4153 51.8744 18.137C52.2346 17.7644 52.2246 17.1705 51.852 16.8104C51.4794 16.4502 50.8854 16.4604 50.5254 16.8329C48.1736 19.2656 45.6534 21.4877 42.9785 23.4922C42.974 23.4922 42.9698 23.4916 42.9653 23.4916H35.4801C34.2813 23.4916 33.3061 24.4668 33.3061 25.6655V29.452C32.4689 29.8687 31.6209 30.2677 30.7621 30.649V29.3173C30.7621 28.1185 29.7869 27.1432 28.5882 27.1432H21.103C19.9042 27.1432 18.9291 28.1185 18.9291 29.3173V34.567C18.0847 34.7563 17.2367 34.9284 16.3851 35.0825V32.2935C16.3851 31.0947 15.4098 30.1195 14.2112 30.1195H6.72573C5.52695 30.1195 4.55183 31.0947 4.55183 32.2935V36.088H2.81464C1.26258 36.088 0 37.3507 0 38.9027C0 40.4546 1.26258 41.7173 2.81464 41.7173H4.55171V51.4276H4.04682C1.86229 51.4276 0.0850646 53.2048 0.0850646 55.3892V57.9601C0.0850646 58.8486 0.807864 59.5714 1.69629 59.5714H62.2628C63.1512 59.5714 63.874 58.8486 63.874 57.9601V55.3892C63.874 53.2048 62.0967 51.4276 59.9123 51.4276ZM35.1825 25.6654C35.1825 25.5012 35.316 25.3679 35.4801 25.3679H40.3359C38.6719 26.485 36.9528 27.5219 35.1825 28.4781V25.6654ZM20.8053 29.3173C20.8053 29.1531 20.9388 29.0197 21.1028 29.0197H28.588C28.7521 29.0197 28.8854 29.1531 28.8854 29.3173V31.4464C26.2394 32.5222 23.5433 33.4136 20.8052 34.1169L20.8053 29.3173ZM6.72573 31.9959H14.2109C14.375 31.9959 14.5084 32.1294 14.5084 32.2935V35.3928C11.8444 35.7914 9.14833 36.0186 6.42813 36.0736V32.2934C6.42813 32.1294 6.56161 31.9959 6.72573 31.9959ZM54.1787 21.1397H57.3424C57.5066 21.1397 57.64 21.2732 57.64 21.4373V51.4276H49.5597V25.4237C51.1629 24.0661 52.7054 22.6371 54.1787 21.1397ZM36.6635 34.06C38.9348 32.888 41.1379 31.5865 43.2627 30.1679V40.1592C43.2627 40.6775 43.6828 41.0975 44.201 41.0975C44.7191 41.0975 45.1392 40.6775 45.1392 40.1592V28.8717C46.0019 28.2536 46.8497 27.6147 47.6831 26.9576V51.4276H45.1393V44.16C45.1393 43.6418 44.7192 43.2218 44.2011 43.2218C43.6829 43.2218 43.2629 43.6418 43.2629 44.16V51.4276H35.1825V34.7994C35.6789 34.5584 36.1731 34.3131 36.6635 34.06ZM20.8053 39.8953C23.5445 39.2536 26.2446 38.4456 28.8856 37.4756V51.4276H20.8053V39.8953ZM30.7621 36.755C31.6173 36.4123 32.4654 36.0524 33.3061 35.6753V51.4276H30.7621V36.755ZM6.42813 41.7033C9.13156 41.6513 11.8309 41.4381 14.5084 41.0673V44.1771C14.5084 44.6953 14.9285 45.1153 15.4466 45.1153C15.9648 45.1153 16.3848 44.6953 16.3848 44.1771V40.782C17.2358 40.6402 18.0837 40.4811 18.9289 40.3076V51.4276H16.3848V48.178C16.3848 47.6597 15.9648 47.2398 15.4466 47.2398C14.9285 47.2398 14.5084 47.6597 14.5084 48.178V51.4276H6.42813V41.7033ZM61.9976 57.695H1.96149V55.3892C1.96149 54.2394 2.89695 53.304 4.04682 53.304H59.9123C61.0621 53.304 61.9976 54.2394 61.9976 55.3892V57.695Z" fill="url(#paint0_linear_134_4701)"/>
  <defs>
    <linearGradient id="paint0_linear_134_4701" x1="12.9053" y1="32" x2="32.0979" y2="32.0684" gradientUnits="userSpaceOnUse">
      <stop stop-color="#DC1A5D"/>
      <stop offset="0.666667" stop-color="#DB1C77"/>
      <stop offset="1" stop-color="#D721C4"/>
    </linearGradient>
  </defs>
</svg>