<svg xmlns="http://www.w3.org/2000/svg" width="64" height="64" viewBox="0 0 64 64" fill="none">
  <g clip-path="url(#clip0_134_4723)">
    <path d="M48.1801 34.9699C48.0662 34.3081 48.2855 33.6337 48.7667 33.1651L58.321 23.8534C59.3951 22.8051 59.7737 21.2674 59.3091 19.8401C58.8447 18.4135 57.6341 17.3936 56.1499 17.1785L50.6997 16.386C50.187 16.3102 49.7116 16.6662 49.6371 17.1789C49.5626 17.6912 49.9176 18.167 50.43 18.2415L55.8805 19.0341C56.6654 19.1477 57.2806 19.6661 57.5261 20.4205C57.7719 21.1755 57.5795 21.9572 57.0119 22.5112L47.4586 31.822C46.5345 32.7212 46.1135 34.017 46.3321 35.2874L48.587 48.4359C48.7059 49.1304 48.4697 49.6429 48.2507 49.9506C48.1049 50.1555 47.922 50.3292 47.7166 50.4682C46.6481 46.9865 43.4034 44.4476 39.5761 44.4476H35.9679V42.9735C38.1551 41.6934 39.6725 39.3909 39.8601 36.7256H40.4599C42.2301 36.7256 43.6704 35.2855 43.6704 33.5152C43.6704 32.214 42.8917 31.092 41.7762 30.5882V25.1814C41.7762 22.3632 39.5887 20.0465 36.8226 19.8395L35.5184 18.5352C34.7214 17.738 33.6615 17.299 32.534 17.299H29.9795C25.7027 17.299 22.2234 20.7784 22.2234 25.0551V30.5884C21.108 31.092 20.3294 32.2141 20.3294 33.5152C20.3294 35.2854 21.7695 36.7256 23.5397 36.7256H24.1395C24.3272 39.3907 25.8446 41.6934 28.0319 42.9735V44.4476H24.4237C20.5965 44.4476 17.3517 46.9864 16.2832 50.4681C16.0779 50.3291 15.8951 50.1554 15.7492 49.9506C15.5301 49.6429 15.2939 49.1302 15.4127 48.436L17.6677 35.2877C17.8864 34.0167 17.4652 32.7211 16.5419 31.8224L6.98848 22.5116C6.42048 21.9571 6.22798 21.1755 6.47373 20.4205C6.71923 19.6661 7.33448 19.1477 8.11973 19.034L21.3202 17.1154C22.5955 16.9312 23.6975 16.1312 24.2681 14.975L30.1719 3.01112C30.5229 2.29999 31.2062 1.87524 32 1.87537C32.7937 1.87537 33.477 2.29987 33.828 3.01112L39.7317 14.975C40.3024 16.1312 41.4045 16.9312 42.6787 17.1152L46.1 17.6127C46.6126 17.6877 47.088 17.3324 47.1626 16.8199C47.2371 16.3075 46.8822 15.8317 46.3697 15.7572L42.9475 15.2596C42.2839 15.1637 41.7102 14.7471 41.4131 14.1451L35.5094 2.18124C34.8456 0.835991 33.5009 0.000366211 32 0.000366211C30.4992 0.000366211 29.1544 0.836116 28.4905 2.18124L22.5869 14.1451C22.2896 14.7471 21.716 15.1637 21.0515 15.2597L7.85048 17.1784C6.36585 17.3936 5.1551 18.4135 4.69073 19.8402C4.22623 21.2675 4.60485 22.8054 5.67935 23.8539L15.2336 33.1656C15.7145 33.6336 15.9336 34.3081 15.8197 34.9704L13.5646 48.1192C13.387 49.1567 13.6204 50.1932 14.2217 51.038C14.6532 51.6441 15.2519 52.115 15.9306 52.3984C15.9184 52.5846 15.91 52.772 15.91 52.9612V55.1686C15.91 55.6865 16.3297 56.1061 16.8475 56.1061C17.3652 56.1061 17.785 55.6865 17.785 55.1686V52.9612C17.785 49.3006 20.7631 46.3225 24.4237 46.3225H25.2899L26.4139 51.5077C26.5814 52.2805 27.13 52.8881 27.8816 53.1334C28.1096 53.2077 28.3422 53.2442 28.5722 53.2442C29.1001 53.2442 29.614 53.0521 30.0256 52.6864L31.0627 51.7647L31.0625 62.125H23.846V56.749C23.846 56.5004 23.7472 56.262 23.5715 56.0861L22.8139 55.3284C22.4479 54.9621 21.8542 54.9622 21.4881 55.3282C21.122 55.6944 21.1219 56.288 21.488 56.654L21.971 57.1371V62.125H18.11C17.9307 62.125 17.785 61.9792 17.785 61.8V59.5437C17.785 59.0259 17.3652 58.6062 16.8475 58.6062C16.3297 58.6062 15.91 59.0259 15.91 59.5437V61.8C15.91 63.013 16.897 64 18.11 64H45.89C47.103 64 48.09 63.013 48.09 61.8V59.5437C48.09 59.0259 47.6704 58.6062 47.1525 58.6062C46.6346 58.6062 46.215 59.0259 46.215 59.5437V61.8C46.215 61.9792 46.0692 62.125 45.89 62.125H42.0289V57.1374L42.512 56.6544C42.8781 56.2881 42.8781 55.6946 42.512 55.3285C42.1457 54.9625 41.5522 54.9625 41.1861 55.3285L40.4284 56.0862C40.2526 56.2621 40.1539 56.5005 40.1539 56.7492V62.125H32.9375L32.9377 51.7652L33.9744 52.6864C34.386 53.0521 34.8997 53.2442 35.4276 53.2442C35.6576 53.2442 35.8902 53.2077 36.1182 53.1334C36.8697 52.8881 37.4184 52.2805 37.586 51.5077L38.71 46.3225H39.5761C43.2366 46.3225 46.2147 49.3006 46.2147 52.9612V55.1686C46.2147 55.6865 46.6343 56.1061 47.1522 56.1061C47.6701 56.1061 48.0897 55.6865 48.0897 55.1686V52.9612C48.0897 52.7719 48.0812 52.5846 48.0691 52.3984C48.7479 52.1149 49.3465 51.6441 49.7781 51.0377C50.3795 50.1931 50.6127 49.1565 50.435 48.1189L48.1801 34.9699ZM40.4601 34.8506H39.8824V32.18H40.4601C41.1965 32.18 41.7956 32.779 41.7956 33.5154C41.7956 34.2517 41.1964 34.8506 40.4601 34.8506ZM29.9796 19.1741H32.5341C33.1607 19.1741 33.7497 19.418 34.1926 19.8611L35.7565 21.425C35.9324 21.6007 36.1707 21.6995 36.4195 21.6995C38.3394 21.6995 39.9014 23.2615 39.9014 25.1814V30.3049H39.4274L37.1824 27.1617C36.9166 26.7896 36.4211 26.6635 36.0099 26.8634L34.2027 27.741C32.6207 28.5094 30.8547 28.9156 29.0956 28.9156H26.2677C25.4517 28.9156 24.7161 29.4309 24.4374 30.1977L24.3985 30.3046H24.0986V25.0549C24.0986 21.8124 26.7369 19.1741 29.9796 19.1741ZM22.2045 33.5152C22.2045 32.7789 22.8035 32.1799 23.5399 32.1799H24.1176V34.8505H23.5399C22.8036 34.8506 22.2045 34.2516 22.2045 33.5152ZM25.9926 36.1669V31.4076L26.1995 30.8386C26.2099 30.81 26.2374 30.7909 26.2677 30.7909H29.0956C31.1369 30.7909 33.1862 30.3195 35.022 29.4277L36.1169 28.896L38.0074 31.543V36.1669C38.0074 39.4794 35.3125 42.1744 32 42.1744C28.6875 42.1744 25.9926 39.4794 25.9926 36.1669ZM32 44.0494C32.7246 44.0494 33.426 43.9491 34.093 43.7651V45.0871L32 48.0522L29.907 45.087V43.765C30.574 43.949 31.2752 44.0494 32 44.0494ZM28.7801 51.2847C28.6587 51.3926 28.5294 51.3725 28.4632 51.3507C28.397 51.3291 28.2807 51.2692 28.2462 51.1105L27.2082 46.3224H28.4839L30.7506 49.5336L28.7801 51.2847ZM35.7536 51.1106C35.7192 51.2694 35.603 51.3292 35.5367 51.3509C35.4706 51.3727 35.3415 51.3927 35.2199 51.2849L33.2492 49.5339L35.516 46.3226H36.7916L35.7536 51.1106Z" fill="url(#paint0_linear_134_4723)"/>
    <path d="M63.5124 37.8017L62.2563 37.1147C61.8566 36.896 61.5558 36.5192 61.4309 36.0809L60.5152 32.8618C60.4006 32.4587 60.0324 32.1808 59.6134 32.1808C59.1944 32.1808 58.8263 32.4588 58.7117 32.8618L57.7959 36.0808C57.6712 36.5192 57.3704 36.8959 56.9706 37.1147L55.7144 37.8017C55.4138 37.966 55.2268 38.2815 55.2268 38.6242C55.2268 38.9668 55.4138 39.2823 55.7144 39.4467L56.9706 40.1337C57.3703 40.3523 57.6711 40.7292 57.7959 41.1674L58.7117 44.3865C58.8263 44.7897 59.1944 45.0675 59.6134 45.0675C60.0324 45.0675 60.4006 44.7895 60.5152 44.3865L61.4309 41.1675C61.5557 40.7292 61.8564 40.3524 62.2563 40.1337L63.5124 39.4467C63.8131 39.2823 64.0001 38.9668 64.0001 38.6242C64.0001 38.2815 63.8131 37.9662 63.5124 37.8017ZM59.6276 40.6544L59.6136 40.7038L59.5996 40.6543C59.3624 39.8209 58.8214 39.0939 58.0974 38.6242C58.8213 38.1544 59.3623 37.4273 59.5996 36.5939L59.6136 36.5445L59.6276 36.594C59.8647 37.4274 60.4057 38.1544 61.1297 38.6242C60.4057 39.0939 59.8647 39.821 59.6276 40.6544Z" fill="url(#paint1_linear_134_4723)"/>
    <path d="M8.77325 46.7996C8.77325 46.457 8.58625 46.1414 8.28563 45.9771L7.0295 45.2901C6.62962 45.0713 6.32888 44.6946 6.20412 44.2562L5.28825 41.0371C5.17362 40.6341 4.8055 40.3562 4.3865 40.3562C3.9675 40.3562 3.5995 40.6342 3.48475 41.0371L2.56888 44.2563C2.44425 44.6946 2.14337 45.0713 1.7435 45.2901L0.487375 45.9771C0.187 46.1416 0 46.457 0 46.7996C0 47.1423 0.187 47.4577 0.487625 47.6221L1.74363 48.3089C2.1435 48.5277 2.44425 48.9045 2.569 49.3428L3.48487 52.562C3.5995 52.965 3.96762 53.2428 4.38662 53.2428C4.80562 53.2428 5.17362 52.9648 5.28837 52.562L6.20425 49.3427C6.32888 48.9045 6.62975 48.5277 7.0295 48.3089L8.28563 47.6221C8.58613 47.4577 8.77325 47.1425 8.77325 46.7996ZM4.40075 48.8297L4.38662 48.8793L4.3725 48.8298C4.1355 47.9966 3.59462 47.2696 2.87063 46.7997C3.59462 46.3298 4.1355 45.6027 4.3725 44.7696L4.38662 44.72L4.40075 44.7695C4.63775 45.6027 5.17863 46.3298 5.90263 46.7996C5.17863 47.2693 4.63775 47.9966 4.40075 48.8297Z" fill="url(#paint2_linear_134_4723)"/>
    <path d="M4.86739 7.26587L6.12339 7.95275C6.52326 8.17138 6.82401 8.54825 6.94876 8.9865L7.86451 12.2056C7.97914 12.6087 8.34726 12.8866 8.76626 12.8866C9.18526 12.8866 9.55326 12.6086 9.66801 12.2058L10.5839 8.98662C10.7086 8.54825 11.0094 8.1715 11.4091 7.95275L12.6653 7.26587C12.9659 7.1015 13.1529 6.78613 13.1529 6.44338C13.1529 6.10075 12.9659 5.78525 12.6653 5.62087L11.4093 4.93388C11.0094 4.71525 10.7086 4.33838 10.5839 3.9L9.66801 0.680875C9.55326 0.278 9.18514 0 8.76626 0C8.34726 0 7.97914 0.278 7.86451 0.681L6.94876 3.9C6.82401 4.33838 6.52326 4.71513 6.12351 4.93388L4.86739 5.62087C4.56664 5.78525 4.37976 6.10075 4.37976 6.44338C4.37964 6.78613 4.56664 7.1015 4.86739 7.26587ZM8.75226 4.41313L8.76639 4.36363L8.78039 4.41313C9.01751 5.24625 9.55839 5.97337 10.2824 6.44312C9.55839 6.913 9.01751 7.64013 8.78039 8.47325L8.76626 8.52275L8.75226 8.47325C8.51514 7.64013 7.97426 6.91313 7.25026 6.44325C7.97414 5.9735 8.51514 5.24638 8.75226 4.41313Z" fill="url(#paint3_linear_134_4723)"/>
    <path d="M53.5825 8.11914L54.8385 8.80602C55.2383 9.02477 55.5392 9.40164 55.664 9.83977L56.5797 13.0589C56.6943 13.462 57.0625 13.7399 57.4815 13.7399C57.9005 13.7399 58.2686 13.4619 58.3832 13.0589L59.299 9.84002C59.4237 9.40164 59.7245 9.02477 60.1243 8.80614L61.3805 8.11927C61.6811 7.95489 61.8681 7.63952 61.8681 7.29677C61.8681 6.95414 61.6811 6.63864 61.3805 6.47427L60.1245 5.78727C59.7246 5.56864 59.4238 5.19164 59.299 4.75352L58.3832 1.53439C58.2686 1.13127 57.9005 0.853394 57.4815 0.853394C57.0625 0.853394 56.6943 1.13139 56.5797 1.53439L55.664 4.75352C55.5393 5.19164 55.2385 5.56852 54.8386 5.78727L53.5825 6.47427C53.2818 6.63864 53.0948 6.95414 53.0948 7.29677C53.0948 7.63939 53.2818 7.95477 53.5825 8.11914ZM57.4674 5.26639L57.4813 5.21702L57.4953 5.26652C57.7325 6.09964 58.2735 6.82664 58.9973 7.29639C58.2735 7.76627 57.7326 8.49327 57.4953 9.32664L57.4813 9.37602L57.4674 9.32664C57.2304 8.49339 56.6895 7.76639 55.9653 7.29652C56.6895 6.82664 57.2304 6.09964 57.4674 5.26639Z" fill="url(#paint4_linear_134_4723)"/>
    <path d="M57.427 51.9266H57.1017V51.6012C57.1017 51.0833 56.6821 50.6637 56.1642 50.6637C55.6464 50.6637 55.2267 51.0833 55.2267 51.6012V51.9266H54.9015C54.3836 51.9266 53.964 52.3462 53.964 52.8641C53.964 53.3819 54.3836 53.8016 54.9015 53.8016H55.2267V54.1268C55.2267 54.6447 55.6464 55.0643 56.1642 55.0643C56.6821 55.0643 57.1017 54.6447 57.1017 54.1268V53.8016H57.427C57.9449 53.8016 58.3645 53.3819 58.3645 52.8641C58.3645 52.3462 57.9449 51.9266 57.427 51.9266Z" fill="url(#paint5_linear_134_4723)"/>
    <path d="M4.71509 35.0872H5.04034V35.4125C5.04034 35.9303 5.46009 36.35 5.97784 36.35C6.49559 36.35 6.91534 35.9303 6.91534 35.4125V35.0872H7.24059C7.75834 35.0872 8.17809 34.6676 8.17809 34.1497C8.17809 33.6318 7.75834 33.2122 7.24059 33.2122H6.91534V32.887C6.91534 32.3691 6.49559 31.9495 5.97784 31.9495C5.46009 31.9495 5.04034 32.3691 5.04034 32.887V33.2122H4.71509C4.19734 33.2122 3.77759 33.6318 3.77759 34.1497C3.77759 34.6676 4.19734 35.0872 4.71509 35.0872Z" fill="url(#paint6_linear_134_4723)"/>
    <path d="M11.2916 57.6813H10.9664V57.3561C10.9664 56.8382 10.5466 56.4186 10.0289 56.4186C9.51111 56.4186 9.09136 56.8382 9.09136 57.3561V57.6813H8.76623C8.24848 57.6813 7.82874 58.101 7.82874 58.6188C7.82874 59.1367 8.24848 59.5563 8.76623 59.5563H9.09149V59.8816C9.09149 60.3995 9.51124 60.8191 10.029 60.8191C10.5467 60.8191 10.9665 60.3995 10.9665 59.8816V59.5563H11.2917C11.8095 59.5563 12.2292 59.1367 12.2292 58.6188C12.2292 58.101 11.8095 57.6813 11.2916 57.6813Z" fill="url(#paint7_linear_134_4723)"/>
    <path d="M45.5869 10.2151H45.9122V10.5404C45.9122 11.0583 46.3318 11.4779 46.8497 11.4779C47.3675 11.4779 47.7872 11.0583 47.7872 10.5404V10.2151H48.1124C48.6303 10.2151 49.0499 9.79552 49.0499 9.27764C49.0499 8.75977 48.6303 8.34014 48.1124 8.34014H47.7872V8.01489C47.7872 7.49702 47.3675 7.07739 46.8497 7.07739C46.3318 7.07739 45.9122 7.49702 45.9122 8.01489V8.34014H45.5869C45.069 8.34014 44.6494 8.75977 44.6494 9.27764C44.6494 9.79552 45.0692 10.2151 45.5869 10.2151Z" fill="url(#paint8_linear_134_4723)"/>
    <path d="M18.2568 5.15814H18.5821V5.48339C18.5821 6.00126 19.0018 6.42089 19.5196 6.42089C20.0373 6.42089 20.4571 6.00126 20.4571 5.48339V5.15814H20.7823C21.3001 5.15814 21.7198 4.73851 21.7198 4.22064C21.7198 3.70276 21.3001 3.28314 20.7823 3.28314H20.4571V2.95789C20.4571 2.44001 20.0373 2.02039 19.5196 2.02039C19.0018 2.02039 18.5821 2.44001 18.5821 2.95789V3.28314H18.2568C17.7391 3.28314 17.3193 3.70276 17.3193 4.22064C17.3193 4.73851 17.7391 5.15814 18.2568 5.15814Z" fill="url(#paint9_linear_134_4723)"/>
  </g>
  <defs>
    <linearGradient id="paint0_linear_134_4723" x1="15.5879" y1="32.0002" x2="32.0843" y2="32.0437" gradientUnits="userSpaceOnUse">
      <stop stop-color="#DC1A5D"/>
      <stop offset="0.666667" stop-color="#DB1C77"/>
      <stop offset="1" stop-color="#D721C4"/>
    </linearGradient>
    <linearGradient id="paint1_linear_134_4723" x1="56.9959" y1="38.6242" x2="59.6269" y2="38.6297" gradientUnits="userSpaceOnUse">
      <stop stop-color="#DC1A5D"/>
      <stop offset="0.666667" stop-color="#DB1C77"/>
      <stop offset="1" stop-color="#D721C4"/>
    </linearGradient>
    <linearGradient id="paint2_linear_134_4723" x1="1.76909" y1="46.7995" x2="4.40008" y2="46.805" gradientUnits="userSpaceOnUse">
      <stop stop-color="#DC1A5D"/>
      <stop offset="0.666667" stop-color="#DB1C77"/>
      <stop offset="1" stop-color="#D721C4"/>
    </linearGradient>
    <linearGradient id="paint3_linear_134_4723" x1="6.14883" y1="6.44332" x2="8.77978" y2="6.44881" gradientUnits="userSpaceOnUse">
      <stop stop-color="#DC1A5D"/>
      <stop offset="0.666667" stop-color="#DB1C77"/>
      <stop offset="1" stop-color="#D721C4"/>
    </linearGradient>
    <linearGradient id="paint4_linear_134_4723" x1="54.8639" y1="7.29665" x2="57.4949" y2="7.30214" gradientUnits="userSpaceOnUse">
      <stop stop-color="#DC1A5D"/>
      <stop offset="0.666667" stop-color="#DB1C77"/>
      <stop offset="1" stop-color="#D721C4"/>
    </linearGradient>
    <linearGradient id="paint5_linear_134_4723" x1="54.8513" y1="52.864" x2="56.171" y2="52.8681" gradientUnits="userSpaceOnUse">
      <stop stop-color="#DC1A5D"/>
      <stop offset="0.666667" stop-color="#DB1C77"/>
      <stop offset="1" stop-color="#D721C4"/>
    </linearGradient>
    <linearGradient id="paint6_linear_134_4723" x1="4.66493" y1="34.1497" x2="5.98458" y2="34.1538" gradientUnits="userSpaceOnUse">
      <stop stop-color="#DC1A5D"/>
      <stop offset="0.666667" stop-color="#DB1C77"/>
      <stop offset="1" stop-color="#D721C4"/>
    </linearGradient>
    <linearGradient id="paint7_linear_134_4723" x1="8.71608" y1="58.6188" x2="10.0357" y2="58.6229" gradientUnits="userSpaceOnUse">
      <stop stop-color="#DC1A5D"/>
      <stop offset="0.666667" stop-color="#DB1C77"/>
      <stop offset="1" stop-color="#D721C4"/>
    </linearGradient>
    <linearGradient id="paint8_linear_134_4723" x1="45.5368" y1="9.27764" x2="46.8564" y2="9.28169" gradientUnits="userSpaceOnUse">
      <stop stop-color="#DC1A5D"/>
      <stop offset="0.666667" stop-color="#DB1C77"/>
      <stop offset="1" stop-color="#D721C4"/>
    </linearGradient>
    <linearGradient id="paint9_linear_134_4723" x1="18.2067" y1="4.22064" x2="19.5263" y2="4.22469" gradientUnits="userSpaceOnUse">
      <stop stop-color="#DC1A5D"/>
      <stop offset="0.666667" stop-color="#DB1C77"/>
      <stop offset="1" stop-color="#D721C4"/>
    </linearGradient>
    <clipPath id="clip0_134_4723">
      <rect width="64" height="64" fill="white"/>
    </clipPath>
  </defs>
</svg>