<svg xmlns="http://www.w3.org/2000/svg" width="20" height="20" viewBox="0 0 20 20" fill="none">
  <path d="M13.3463 13.394C11.5032 12.873 9.54525 12.7916 7.66367 13.1546C7.62635 13.3075 7.58658 13.4598 7.54376 13.6113C7.2275 14.7303 6.76177 15.8022 6.16479 16.7978C7.3529 16.2542 8.65433 15.9675 9.99993 15.9675C12.3004 15.9675 14.4723 16.8041 16.1682 18.3332L18.3173 16.1842C16.9014 14.8767 15.1925 13.9158 13.3463 13.394Z" fill="#DC1A5D"/>
  <path d="M12.1282 12.1284C11.9003 10.72 11.9011 9.27866 12.1284 7.87214C11.425 7.98591 10.7134 8.04273 10.002 8.04273C9.28882 8.04273 8.57603 7.98526 7.87187 7.87146C8.0997 9.27999 8.09896 10.7215 7.87158 12.1281C9.28008 11.9003 10.7216 11.9011 12.1282 12.1284Z" fill="#DC1A5D"/>
  <path d="M6.84539 7.6639C6.69247 7.62657 6.54014 7.58658 6.38856 7.54376C5.26965 7.2275 4.19768 6.76177 3.20202 6.16479C3.74565 7.3529 4.03232 8.65433 4.03232 9.99993C4.03232 12.3004 3.19578 14.4723 1.66663 16.1682L3.8157 18.3173C5.12323 16.9014 6.08409 15.1925 6.60593 13.3463C7.12685 11.5033 7.20833 9.54538 6.84539 7.6639Z" fill="#DC1A5D"/>
  <path d="M13.1547 12.3362C13.3076 12.3735 13.4599 12.4133 13.6115 12.4561C14.7304 12.7724 15.8023 13.2381 16.798 13.8351C16.2544 12.647 15.9677 11.3455 15.9677 9.99993C15.9677 7.69948 16.8042 5.52757 18.3334 3.83166L16.1843 1.68262C14.8768 3.09849 13.9159 4.80737 13.3941 6.65359C12.8732 8.49667 12.7917 10.4547 13.1547 12.3362Z" fill="#DC1A5D"/>
  <path d="M6.65359 6.60593C8.4967 7.12689 10.4547 7.20836 12.3362 6.84536C12.3736 6.69247 12.4133 6.54011 12.4561 6.38859C12.7724 5.26965 13.2381 4.19768 13.8351 3.20205C12.647 3.74565 11.3455 4.03232 9.99993 4.03232C7.69948 4.03232 5.52757 3.19578 3.83166 1.66663L1.68262 3.8157C3.09846 5.12323 4.80733 6.08409 6.65359 6.60593Z" fill="#DC1A5D"/>
</svg>