<svg xmlns="http://www.w3.org/2000/svg" width="53" height="52" viewBox="0 0 53 52" fill="none">
  <g clip-path="url(#clip0_410_3861)">
    <path d="M7.20194 39.7593H3.65875C1.86197 39.7593 0.400024 41.2213 0.400024 43.0185V48.4223C0.400024 50.2195 1.86197 51.681 3.65875 51.681H7.20194C8.99872 51.681 10.4607 50.2195 10.4607 48.4223V43.0185C10.4607 41.2213 8.99872 39.7593 7.20194 39.7593ZM8.91303 48.4223C8.91303 49.3657 8.14536 50.1334 7.20194 50.1334H3.65875C2.71533 50.1334 1.94806 49.3657 1.94806 48.4223V43.0185C1.94806 42.075 2.71533 41.3074 3.65875 41.3074H7.20194C8.14536 41.3074 8.91303 42.075 8.91303 43.0185V48.4223Z" fill="url(#paint0_linear_410_3861)"/>
    <path d="M20.1468 33.737H16.6036C14.8068 33.737 13.3448 35.1989 13.3448 36.9957V43.6084C13.3448 44.0357 13.6912 44.3824 14.1185 44.3824C14.5461 44.3824 14.8925 44.0357 14.8925 43.6084V36.9957C14.8925 36.0523 15.6602 35.285 16.6036 35.285H20.1468C21.0902 35.285 21.8575 36.0523 21.8575 36.9957V48.4223C21.8575 49.3657 21.0898 50.1334 20.1468 50.1334H16.6036C15.6602 50.1334 14.8925 49.3657 14.8925 48.4223V46.7045C14.8925 46.2768 14.5461 45.9305 14.1185 45.9305C13.6912 45.9305 13.3448 46.2768 13.3448 46.7045V48.4223C13.3448 50.2195 14.8068 51.681 16.6036 51.681H20.1468C21.9435 51.681 23.4055 50.2195 23.4055 48.4223V36.9957C23.4055 35.1989 21.9435 33.737 20.1468 33.737Z" fill="url(#paint1_linear_410_3861)"/>
    <path d="M33.0909 26.3618H29.5477C27.7509 26.3618 26.2889 27.8238 26.2889 29.6209V48.4223C26.2889 50.2195 27.7509 51.681 29.5477 51.681H33.0909C34.8876 51.681 36.3496 50.2195 36.3496 48.4223V29.6209C36.3496 27.8238 34.8876 26.3618 33.0909 26.3618ZM34.8019 48.4223C34.8019 49.3657 34.0343 50.1334 33.0909 50.1334H29.5477C28.6042 50.1334 27.837 49.3657 27.837 48.4223V29.6209C27.837 28.6775 28.6042 27.9099 29.5477 27.9099H33.0909C34.0343 27.9099 34.8019 28.6775 34.8019 29.6209V48.4223Z" fill="url(#paint2_linear_410_3861)"/>
    <path d="M52.039 11.21L46.5701 1.73766C46.0889 0.904129 45.2268 0.406235 44.2639 0.406235C43.3015 0.406235 42.439 0.904129 41.9578 1.73766L36.4889 11.21C36.0076 12.0439 36.0076 13.0393 36.4889 13.8728C36.9705 14.7067 37.8326 15.2042 38.795 15.2042H39.2334V18.5328C39.2334 18.9604 39.5802 19.3068 40.0074 19.3068C40.4351 19.3068 40.7815 18.9604 40.7815 18.5328V14.4306C40.7815 14.0029 40.4351 13.6566 40.0074 13.6566H38.795C38.392 13.6566 38.0309 13.4479 37.8294 13.0988C37.6279 12.7497 37.6279 12.3331 37.8294 11.984L43.2983 2.51167C43.4998 2.16255 43.8609 1.95427 44.2639 1.95427C44.667 1.95427 45.028 2.16255 45.2296 2.51167L50.6985 11.984C50.9 12.3331 50.9 12.7497 50.6985 13.0988C50.4969 13.4479 50.1359 13.6566 49.7328 13.6566H48.5204C48.0928 13.6566 47.7464 14.0029 47.7464 14.4306V48.4223C47.7464 49.3657 46.9792 50.1334 46.0353 50.1334H42.4925C41.5491 50.1334 40.7815 49.3657 40.7815 48.4223V21.6288C40.7815 21.2012 40.4351 20.8548 40.0074 20.8548C39.5802 20.8548 39.2334 21.2012 39.2334 21.6288V48.4223C39.2334 50.2195 40.6954 51.681 42.4925 51.681H46.0353C47.8325 51.681 49.2945 50.2195 49.2945 48.4223V15.2042H49.7328C50.6957 15.2042 51.5578 14.7063 52.039 13.8728C52.5203 13.0393 52.5203 12.0435 52.039 11.21Z" fill="url(#paint3_linear_410_3861)"/>
  </g>
  <defs>
    <linearGradient id="paint0_linear_410_3861" x1="2.42871" y1="45.7202" x2="5.44577" y2="45.728" gradientUnits="userSpaceOnUse">
      <stop stop-color="#DC1A5D"/>
      <stop offset="0.666667" stop-color="#AB0747"/>
      <stop offset="1" stop-color="#C2004F"/>
    </linearGradient>
    <linearGradient id="paint1_linear_410_3861" x1="15.3735" y1="42.709" x2="18.3906" y2="42.7142" gradientUnits="userSpaceOnUse">
      <stop stop-color="#DC1A5D"/>
      <stop offset="0.666667" stop-color="#AB0747"/>
      <stop offset="1" stop-color="#C2004F"/>
    </linearGradient>
    <linearGradient id="paint2_linear_410_3861" x1="28.3176" y1="39.0214" x2="31.3347" y2="39.0251" gradientUnits="userSpaceOnUse">
      <stop stop-color="#DC1A5D"/>
      <stop offset="0.666667" stop-color="#AB0747"/>
      <stop offset="1" stop-color="#C2004F"/>
    </linearGradient>
    <linearGradient id="paint3_linear_410_3861" x1="39.4091" y1="26.0437" x2="44.2889" y2="26.0484" gradientUnits="userSpaceOnUse">
      <stop stop-color="#DC1A5D"/>
      <stop offset="0.666667" stop-color="#AB0747"/>
      <stop offset="1" stop-color="#C2004F"/>
    </linearGradient>
    <clipPath id="clip0_410_3861">
      <rect width="52" height="52" fill="white" transform="translate(0.400024)"/>
    </clipPath>
  </defs>
</svg>