<svg xmlns="http://www.w3.org/2000/svg" width="53" height="52" viewBox="0 0 53 52" fill="none">
  <g clip-path="url(#clip0_410_3880)">
    <path d="M48.2905 41.8239C47.017 42.7672 45.5034 43.2656 43.9133 43.2656H9.68677C5.6266 43.2656 2.32349 39.9625 2.32349 35.9023V16.0977C2.32349 12.0375 5.6266 8.73438 9.68677 8.73438H10.5892C11.0099 8.73438 11.3509 8.39333 11.3509 7.97266C11.3509 7.55198 11.0099 7.21094 10.5892 7.21094H9.68677C4.78658 7.21094 0.800049 11.1975 0.800049 16.0977V35.9023C0.800049 40.8025 4.78658 44.7891 9.68677 44.7891H43.9133C45.8323 44.7891 47.6594 44.1871 49.1971 43.0483C49.5351 42.7979 49.6062 42.3209 49.3559 41.9828C49.1055 41.6447 48.6284 41.5735 48.2905 41.8239Z" fill="#DC1A5D"/>
    <path d="M43.9133 7.21094H13.8391C13.4183 7.21094 13.0774 7.55198 13.0774 7.97266C13.0774 8.39333 13.4183 8.73438 13.8391 8.73438H43.9133C47.9735 8.73438 51.2766 12.0375 51.2766 16.0977V35.9023C51.2766 37.2205 50.9244 38.5134 50.258 39.6415C50.0441 40.0036 50.1643 40.4708 50.5265 40.6847C50.6481 40.7566 50.7816 40.7906 50.9133 40.7906C51.1738 40.7906 51.4277 40.6569 51.5699 40.4162C52.3747 39.0537 52.8 37.4928 52.8 35.9023V16.0977C52.8 11.1975 48.8135 7.21094 43.9133 7.21094Z" fill="#DC1A5D"/>
    <path d="M20.762 31.2929C20.3412 31.2929 20.0002 31.634 20.0002 32.0547V33.0637C20.0002 33.7837 20.3746 34.4248 21.0014 34.7788C21.3064 34.951 21.6386 35.0369 21.9706 35.0369C22.3208 35.0369 22.6706 34.9413 22.9872 34.7502L34.6975 27.6866C35.2937 27.3268 35.6497 26.6963 35.6497 26C35.6497 25.3037 35.2937 24.6732 34.6975 24.3135L22.9872 17.2498C22.3708 16.8781 21.6283 16.8673 21.0014 17.2213C20.3745 17.5752 20.0002 18.2164 20.0002 18.9363V28.8281C20.0002 29.2488 20.3412 29.5898 20.762 29.5898C21.1827 29.5898 21.5237 29.2488 21.5237 28.8281V18.9363C21.5237 18.7013 21.6823 18.5864 21.7505 18.5478C21.8186 18.5094 21.999 18.4328 22.2003 18.5542L33.9105 25.6178C34.1052 25.7353 34.1263 25.9241 34.1263 25.9999C34.1263 26.0757 34.1052 26.2645 33.9105 26.382L22.2003 33.4457C21.9991 33.5672 21.8185 33.4905 21.7505 33.4522C21.6822 33.4137 21.5237 33.2987 21.5237 33.0636V32.0546C21.5237 31.634 21.1826 31.2929 20.762 31.2929Z" fill="#DC1A5D"/>
  </g>
  <defs>
    <clipPath id="clip0_410_3880">
      <rect width="52" height="52" fill="white" transform="translate(0.800049)"/>
    </clipPath>
  </defs>
</svg>