<svg xmlns="http://www.w3.org/2000/svg" width="53" height="52" viewBox="0 0 53 52" fill="none">
  <g clip-path="url(#clip0_410_3876)">
    <path d="M52.4403 16.3173C43.4391 4.77574 43.823 5.06489 43.3424 5.01776L29.2522 3.11987C25.7004 2.64141 23.2878 3.26328 22.0558 3.37469C21.6423 3.43035 21.3524 3.8107 21.4079 4.22416C21.4636 4.63762 21.8445 4.92819 22.2574 4.87202C23.5068 4.75746 25.7476 4.17256 29.0505 4.6172L38.7263 5.92045C38.0022 6.06802 27.3245 8.24388 26.5999 8.39155L14.4738 5.92045L18.6653 5.35586C19.0787 5.30021 19.3687 4.91986 19.3131 4.5064C19.2575 4.09284 18.8763 3.80278 18.4637 3.85853L9.8583 5.01756C9.85708 5.01766 9.85586 5.01787 9.85464 5.01807L9.84326 5.01959C9.83169 5.02122 9.82041 5.02376 9.80894 5.02589C9.80152 5.02731 9.79391 5.02833 9.78659 5.02995C9.7804 5.03127 9.7742 5.03259 9.76811 5.03401C9.75947 5.03615 9.75094 5.03869 9.74241 5.04102C9.72921 5.04468 9.71601 5.04823 9.70301 5.0526C9.69762 5.05443 9.69255 5.05666 9.68716 5.05859C9.68483 5.0594 9.68249 5.06032 9.68026 5.06123C9.67274 5.06408 9.66492 5.06672 9.65751 5.06966C9.6439 5.07525 9.6307 5.08144 9.61749 5.08784C9.6117 5.09058 9.60601 5.09312 9.60033 5.09597C9.59393 5.09922 9.58773 5.10236 9.58154 5.10572C9.57555 5.10897 9.56986 5.11262 9.56387 5.11618C9.23582 5.30732 9.39598 5.32082 0.759855 16.3172C0.580293 16.5475 0.549418 16.8606 0.68084 17.1215C0.984917 17.7248 0.176178 16.534 16.8475 38.6631C17.0988 38.9962 17.5724 39.0624 17.9056 38.8111C18.2386 38.5599 18.3048 38.0862 18.0536 37.7531L3.41052 18.3449L15.2427 22.0719C15.5265 22.8203 24.1933 45.6796 24.354 46.1037L20.1846 40.5776C19.9334 40.2445 19.4598 40.1783 19.1265 40.4295C18.7934 40.6808 18.7273 41.1545 18.9785 41.4876C23.3443 47.2729 23.7941 47.8724 23.8252 47.9074C24.3768 48.5291 25.1396 48.9222 25.8693 49.0453C25.9772 49.0637 27.243 49.0633 27.3488 49.0427C28.2688 48.8641 29.0458 48.3444 29.4127 47.8612L44.1589 28.3163C44.41 27.9832 44.3438 27.5095 44.0108 27.2582C43.6775 27.0072 43.2041 27.0734 42.9527 27.4063L28.8457 46.1041C29.2964 44.9155 37.6261 22.9454 37.9573 22.072L49.7896 18.345L45.0763 24.5919C44.8251 24.9251 44.8912 25.3987 45.2243 25.65C45.5576 25.9013 46.0312 25.835 46.2824 25.5019C52.6099 17.1074 52.269 17.6162 52.5187 17.1227C52.6508 16.8616 52.6202 16.5479 52.4403 16.3173ZM26.6 10.3085L35.7141 20.706H17.486L26.6 10.3085ZM2.54298 16.4877L9.70971 7.29722L14.5685 20.2757L2.54298 16.4877ZM11.1299 6.78088C12.6257 7.08567 23.3512 9.27149 25.1744 9.643L16.0837 20.0136L11.1299 6.78088ZM26.6835 47.5458H26.5167L16.9135 22.2167H36.2867L26.6835 47.5458ZM37.1162 20.0135L28.0256 9.643C29.2349 9.39651 40.2106 7.15991 42.0701 6.78088L37.1162 20.0135ZM38.6314 20.2755L43.4903 7.29702L50.6571 16.4876L38.6314 20.2755Z" fill="url(#paint0_linear_410_3876)"/>
  </g>
  <defs>
    <linearGradient id="paint0_linear_410_3876" x1="11.0857" y1="26" x2="26.6797" y2="26.0539" gradientUnits="userSpaceOnUse">
      <stop stop-color="#DC1A5D"/>
      <stop offset="0.666667" stop-color="#AB0747"/>
      <stop offset="1" stop-color="#C2004F"/>
    </linearGradient>
    <clipPath id="clip0_410_3876">
      <rect width="52" height="52" fill="white" transform="translate(0.600098)"/>
    </clipPath>
  </defs>
</svg>