<svg xmlns="http://www.w3.org/2000/svg" width="52" height="52" viewBox="0 0 52 52" fill="none">
  <g clip-path="url(#clip0_410_3595)">
    <path d="M49.5438 27.6878C48.9228 26.2791 47.2708 25.6376 45.8622 26.2587L45.806 26.2834C45.7134 26.3242 45.6202 26.363 45.5275 26.4033V20.6535C45.5275 20.2327 45.1866 19.8918 44.7658 19.8918C44.3451 19.8918 44.0042 20.2327 44.0042 20.6535V27.0354C43.3602 27.2897 42.7119 27.5291 42.0599 27.7552V1.88903C42.0599 1.68744 42.2239 1.52333 42.4256 1.52333H43.6385C43.84 1.52333 44.0042 1.68734 44.0042 1.88903V17.4075C44.0042 17.8282 44.3451 18.1691 44.7658 18.1691C45.1866 18.1691 45.5275 17.8282 45.5275 17.4075V1.88903C45.5275 0.847376 44.6802 0 43.6386 0H42.4257C41.384 0 40.5367 0.847376 40.5367 1.88903V1.91198H39.2271C38.8064 1.91198 38.4654 2.2529 38.4654 2.67364C38.4654 3.09439 38.8064 3.43531 39.2271 3.43531H40.5367V19.6285H11.4649V3.4352H35.9812C36.4019 3.4352 36.7429 3.09428 36.7429 2.67354C36.7429 2.2528 36.4019 1.91188 35.9812 1.91188H11.4649V1.88893C11.4649 0.847376 10.6175 0 9.57595 0H8.36297C7.32142 0 6.47405 0.847376 6.47405 1.88903V26.4044C6.38102 26.3641 6.28769 26.3241 6.19497 26.2832L6.14074 26.2593C5.45819 25.9581 4.69917 25.9406 4.00362 26.2104C3.30817 26.4801 2.75936 27.0044 2.45815 27.6871C2.15704 28.3696 2.13967 29.1285 2.4094 29.824C2.67903 30.5196 3.20346 31.0685 3.88541 31.3693L3.93994 31.3933C6.57946 32.5585 9.28012 33.5066 12.0306 34.2358L21.6162 40.0695L8.97495 47.7628C8.45356 48.0802 8.08695 48.5816 7.94264 49.1745C7.79833 49.7675 7.89369 50.3813 8.21095 50.9028C8.62915 51.5898 9.35933 52 10.1643 52C10.5823 52 10.9925 51.8847 11.3508 51.6667L26.0112 42.7444L40.6716 51.6667C41.0298 51.8847 41.4401 52 41.8582 52C42.6632 52 43.3934 51.5898 43.8114 50.9028C44.1288 50.3814 44.224 49.7676 44.0799 49.1745C43.9356 48.5815 43.569 48.0802 43.0476 47.7628L30.4064 40.0694L40.0072 34.2264C42.7449 33.4986 45.4329 32.5536 48.0604 31.3939L48.1148 31.3699C49.5239 30.7487 50.165 29.097 49.5438 27.6878ZM7.99738 1.88903C7.99738 1.68744 8.16139 1.52333 8.36297 1.52333H9.57595C9.77754 1.52333 9.94155 1.68734 9.94155 1.88903V27.7535C9.28794 27.5274 8.63961 27.2879 7.99738 27.0348V1.88903ZM16.6084 35.2384C17.8632 35.4568 19.1265 35.6314 20.3978 35.7612L24.5462 38.2861L23.0812 39.1777L16.6084 35.2384ZM26.0111 37.3945L23.717 35.9983C24.4759 36.0294 25.2372 36.0458 26.0008 36.0458C26.7719 36.0458 27.5406 36.029 28.307 35.9972L26.0111 37.3945ZM42.2557 49.0642C42.4294 49.17 42.5516 49.3371 42.5998 49.5347C42.6479 49.7324 42.616 49.937 42.5102 50.1109C42.3709 50.34 42.1271 50.4768 41.8582 50.4768C41.7197 50.4768 41.5832 50.4383 41.4637 50.3655L27.4764 41.8528L28.9415 40.9612L42.2557 49.0642ZM10.5588 50.3655C10.4393 50.4382 10.3028 50.4767 10.1643 50.4767C9.89544 50.4767 9.65161 50.3399 9.51217 50.1108C9.40635 49.937 9.37467 49.7324 9.4227 49.5346C9.47084 49.337 9.59301 49.1699 9.76687 49.0641L31.6287 35.7588C32.9014 35.6282 34.1662 35.4525 35.4223 35.2331L10.5588 50.3655ZM47.5003 29.9758L47.4456 30C40.6475 33.001 33.4324 34.5225 26.0008 34.5225C18.5692 34.5225 11.3538 33.0008 4.55547 29.9998L4.50073 29.9756C4.19058 29.8388 3.95223 29.5893 3.82965 29.2732C3.70708 28.957 3.715 28.612 3.85179 28.3019C3.98869 27.9915 4.23821 27.7532 4.55435 27.6306C4.87049 27.508 5.21527 27.5161 5.52562 27.653L5.57985 27.6769C8.30397 28.8793 11.1591 29.8458 14.066 30.5496C14.4751 30.6485 14.8866 30.3974 14.9855 29.9886C15.0844 29.5799 14.8333 29.1682 14.4244 29.0691C13.4304 28.8285 12.4429 28.5555 11.4648 28.2526V21.1518H40.5366V28.2566C33.1382 30.5549 25.2965 31.0664 17.5631 29.7215C17.1483 29.6491 16.7543 29.9268 16.6822 30.3414C16.6102 30.7559 16.8876 31.1503 17.3021 31.2223C20.2116 31.7284 23.1352 31.9797 26.0469 31.9797C33.0389 31.9795 39.9585 30.5299 46.4203 27.6774L46.476 27.653C47.1168 27.3714 47.8675 27.662 48.1497 28.3025C48.4322 28.9427 48.1408 29.6936 47.5003 29.9758Z" fill="white"/>
  </g>
  <defs>
    <clipPath id="clip0_410_3595">
      <rect width="52" height="52" fill="white"/>
    </clipPath>
  </defs>
</svg>