<svg xmlns="http://www.w3.org/2000/svg" width="53" height="52" viewBox="0 0 53 52" fill="none">
  <g clip-path="url(#clip0_410_3786)">
    <path d="M51.3614 23.8724C52.4943 22.7544 52.8869 21.1215 52.3858 19.6109C51.8846 18.1001 50.594 17.0256 49.0177 16.8064C48.5102 16.7367 48.0393 17.0906 47.9686 17.5993C47.8979 18.1079 48.2529 18.5777 48.7615 18.6484C49.6449 18.771 50.3399 19.35 50.6208 20.1964C50.9017 21.043 50.6904 21.9225 50.0554 22.549L41.6086 30.8841C40.6357 31.8439 40.1978 33.2203 40.4374 34.5656L42.5149 46.2492C42.6711 47.1273 42.3356 47.9671 41.6171 48.4958C40.8986 49.0246 39.9971 49.0951 39.205 48.685L28.6676 43.2274C27.454 42.599 26.0098 42.6076 24.8045 43.251L14.3347 48.8375C13.5476 49.2573 12.6452 49.1977 11.9204 48.6778C11.1955 48.158 10.8496 47.3221 10.995 46.4424L12.9294 34.7342C13.1523 33.3861 12.6975 32.0152 11.7131 31.0674L3.16481 22.8363C2.52222 22.2177 2.30011 21.3409 2.57067 20.4909C2.84103 19.6409 3.52891 19.0536 4.41088 18.9199L16.1439 17.1416C17.4947 16.9368 18.6579 16.0807 19.2554 14.8518L24.4421 4.17807C24.8319 3.37583 25.597 2.89371 26.489 2.88833C26.4941 2.88833 26.4992 2.88833 26.5043 2.88833C27.3898 2.88833 28.1544 3.36029 28.5517 4.15308L33.8688 14.7622C34.4809 15.9838 35.6545 16.8255 37.008 17.0137L39.8655 17.411C40.3734 17.482 40.8438 17.1269 40.9145 16.6181C40.9852 16.1095 40.6302 15.6398 40.1216 15.5691L37.2642 15.1718C36.517 15.0679 35.8691 14.6032 35.5312 13.929L30.2139 3.31987C29.5047 1.9048 28.0847 1.02882 26.5036 1.02882C26.495 1.02882 26.4861 1.02882 26.4773 1.02882C24.8856 1.03857 23.4649 1.93405 22.7693 3.36557L17.5828 14.0392C17.253 14.7176 16.6108 15.1902 15.8652 15.3033L4.13199 17.0814C2.55828 17.3198 1.28103 18.4103 0.798406 19.9269C0.315782 21.4437 0.728328 23.0717 1.87486 24.1755L10.4232 32.4066C10.9666 32.9298 11.2176 33.6866 11.0946 34.4307L9.16034 46.1391C8.90084 47.7095 9.54333 49.2614 10.8365 50.1888C11.5603 50.7079 12.4036 50.9712 13.2522 50.9712C13.9202 50.9712 14.5914 50.8081 15.2098 50.478L25.6796 44.8916C26.3449 44.5363 27.1422 44.5313 27.8122 44.8786L38.3495 50.3362C39.7626 51.0679 41.4368 50.9369 42.7191 49.9933C44.0009 49.0499 44.6241 47.4903 44.3453 45.9234L42.2676 34.2398C42.1356 33.4971 42.3772 32.7374 42.9143 32.2075L51.3614 23.8724Z" fill="url(#paint0_linear_410_3786)"/>
    <path d="M46.6448 16.4764L46.0258 16.3903C45.5182 16.3206 45.0475 16.6745 44.9767 17.1832C44.9061 17.6918 45.2611 18.1615 45.7696 18.2323L46.3887 18.3183C46.4321 18.3244 46.4752 18.3272 46.5179 18.3272C46.9747 18.3272 47.373 17.9905 47.4377 17.5254C47.5084 17.0168 47.1534 16.547 46.6448 16.4764Z" fill="url(#paint1_linear_410_3786)"/>
  </g>
  <defs>
    <linearGradient id="paint0_linear_410_3786" x1="11.0856" y1="26" x2="26.6796" y2="26.0499" gradientUnits="userSpaceOnUse">
      <stop stop-color="#DC1A5D"/>
      <stop offset="0.666667" stop-color="#AB0747"/>
      <stop offset="1" stop-color="#C2004F"/>
    </linearGradient>
    <linearGradient id="paint1_linear_410_3786" x1="45.4676" y1="17.3544" x2="46.211" y2="17.3573" gradientUnits="userSpaceOnUse">
      <stop stop-color="#DC1A5D"/>
      <stop offset="0.666667" stop-color="#AB0747"/>
      <stop offset="1" stop-color="#C2004F"/>
    </linearGradient>
    <clipPath id="clip0_410_3786">
      <rect width="52" height="52" fill="white" transform="translate(0.600098)"/>
    </clipPath>
  </defs>
</svg>