<svg xmlns="http://www.w3.org/2000/svg" width="53" height="52" viewBox="0 0 53 52" fill="none">
  <path d="M50.3728 49.6217C49.9521 49.6217 49.6111 49.9628 49.6111 50.3834V51.2383C49.6111 51.6589 49.9521 52 50.3728 52C50.7935 52 51.1345 51.6589 51.1345 51.2383V50.3834C51.1345 49.9628 50.7935 49.6217 50.3728 49.6217Z" fill="white"/>
  <path d="M45.8765 49.6217C45.4558 49.6217 45.1147 49.9628 45.1147 50.3834V51.2383C45.1147 51.6589 45.4558 52 45.8765 52C46.2971 52 46.6382 51.6589 46.6382 51.2383V50.3834C46.6382 49.9628 46.2971 49.6217 45.8765 49.6217Z" fill="white"/>
  <path d="M41.3799 49.6217C40.9592 49.6217 40.6182 49.9628 40.6182 50.3834V51.2383C40.6182 51.6589 40.9592 52 41.3799 52C41.8006 52 42.1416 51.6589 42.1416 51.2383V50.3834C42.1416 49.9628 41.8006 49.6217 41.3799 49.6217Z" fill="white"/>
  <path d="M11.02 0C10.5993 0 10.2583 0.341047 10.2583 0.761719V1.61657C10.2583 2.03724 10.5993 2.37829 11.02 2.37829C11.4407 2.37829 11.7817 2.03724 11.7817 1.61657V0.761719C11.7817 0.341047 11.4407 0 11.02 0Z" fill="white"/>
  <path d="M6.52344 0C6.10277 0 5.76172 0.341047 5.76172 0.761719V1.61657C5.76172 2.03724 6.10277 2.37829 6.52344 2.37829C6.94411 2.37829 7.28516 2.03724 7.28516 1.61657V0.761719C7.28516 0.341047 6.94411 0 6.52344 0Z" fill="white"/>
  <path d="M2.0271 0C1.60643 0 1.26538 0.341047 1.26538 0.761719V1.61657C1.26538 2.03724 1.60643 2.37829 2.0271 2.37829C2.44777 2.37829 2.78882 2.03724 2.78882 1.61657V0.761719C2.78882 0.341047 2.44777 0 2.0271 0Z" fill="white"/>
  <path d="M44.4363 23.4967L35.4989 14.5609L28.0722 7.13416C27.6779 6.73979 27.1321 6.51361 26.5748 6.51361H9.0485C8.17516 6.51361 7.42522 7.01492 7.09139 7.82184C6.75796 8.62794 6.93427 9.51143 7.55076 10.1268C11.8762 14.4578 21.0945 23.6769 23.4162 25.9986C21.1003 28.3156 11.9055 37.5144 7.55167 41.8725C6.93427 42.4887 6.75796 43.3723 7.09139 44.1783C7.42522 44.9852 8.17506 45.4865 9.0485 45.4865H26.5748C27.1321 45.4865 27.6779 45.2603 28.0722 44.866L44.4364 28.5003C44.4364 28.5003 44.4366 28.5001 44.4367 28.4999C45.814 27.1205 45.814 24.8763 44.4363 23.4967ZM43.3587 27.4234L43.3591 27.423L26.9949 43.7888C26.8842 43.8995 26.731 43.963 26.5748 43.963H18.7622C23.7048 39.1959 28.6916 34.1427 34.3638 28.1556C35.5121 26.998 35.5234 24.9448 34.3865 23.6657C34.3766 23.6545 34.3664 23.6437 34.3558 23.6332C31.2735 20.5509 28.3621 17.6395 25.4119 14.7223C25.1127 14.4263 24.6304 14.4292 24.3348 14.7284C24.0389 15.0275 24.0417 15.5098 24.3409 15.8056C27.2824 18.7142 30.1868 21.6185 33.2611 24.6928C33.7809 25.2945 33.9026 26.4623 33.2787 27.0862C33.2738 27.0911 33.269 27.096 33.2642 27.1009C27.2427 33.457 21.9975 38.756 16.7573 43.7772C16.6992 43.833 16.652 43.8957 16.6154 43.9628H9.0485C8.67972 43.9628 8.53479 43.6818 8.49915 43.5957C8.4637 43.5099 8.36803 43.2099 8.62864 42.9498C13.6334 37.9402 25.0322 26.5368 25.0322 26.5368C25.3296 26.2393 25.3296 25.7571 25.0321 25.4597C24.918 25.3456 13.5746 14.0021 8.62793 9.04922C8.36813 8.78983 8.4637 8.48981 8.49915 8.40399C8.53479 8.31787 8.67962 8.03685 9.0485 8.03685H16.6158C16.6547 8.10824 16.7051 8.17477 16.7683 8.23286C17.5719 8.97274 18.3539 9.79174 19.11 10.5838C19.9373 11.4505 20.7929 12.3465 21.6865 13.15C21.8321 13.2809 22.0142 13.3453 22.1956 13.3453C22.4042 13.3453 22.6119 13.2602 22.7623 13.0928C23.0436 12.78 23.018 12.2984 22.7051 12.0172C21.8547 11.2526 21.0568 10.4169 20.212 9.53195C19.7394 9.03693 19.2569 8.53166 18.7612 8.03695H26.5749C26.7311 8.03695 26.8843 8.10042 26.995 8.21123L34.4219 15.6381L43.3588 24.5735C44.1433 25.3592 44.1433 26.6376 43.3587 27.4234Z" fill="white"/>
</svg>